<?xml version="1.0" encoding="utf-8"?>
<!-- Generator: Adobe Illustrator 19.0.0, SVG Export Plug-In . SVG Version: 6.00 Build 0)  -->
<svg version="1.1" id="Layer_1" xmlns="http://www.w3.org/2000/svg" xmlns:xlink="http://www.w3.org/1999/xlink" x="0px" y="0px"
	 viewBox="19 874.4 56.5 45.9" style="enable-background:new 19 874.4 56.5 45.9;" xml:space="preserve">
<style type="text/css">
	.st0{fill:#FFFFFF;}
</style>
<path class="st0" d="M18.7,915.1c0.9,0.1,1.8,0.1,2.7,0.1c5.3,0,10-1.6,14.1-4.9c-2.5,0-4.7-0.8-6.6-2.2c-1.9-1.5-3.3-3.3-4-5.6
	c0.6,0.1,1.3,0.2,2.1,0.2c1,0,2.1-0.1,3-0.4c-2.6-0.5-4.8-1.8-6.5-3.9c-1.7-2.1-2.6-4.5-2.6-7.2V891c1.6,0.9,3.3,1.4,5.2,1.4
	c-1.6-1-2.8-2.4-3.7-4c-0.9-1.7-1.4-3.5-1.4-5.4c0-2,0.5-3.9,1.6-5.7c2.8,3.5,6.3,6.3,10.3,8.4c4.1,2.1,8.4,3.2,13.1,3.5
	c-0.2-1-0.3-1.9-0.3-2.6c0-3.1,1.1-5.8,3.3-8c2.2-2.2,4.9-3.3,8.1-3.3c3.3,0,6,1.2,8.3,3.6c2.6-0.5,5-1.5,7.2-2.8
	c-0.8,2.7-2.5,4.8-4.9,6.3c2.2-0.3,4.3-0.9,6.5-1.8c-1.4,2.2-3.3,4.2-5.6,5.9v1.5c0,3-0.4,6.1-1.3,9.1c-0.9,3-2.2,6-4,8.7
	c-1.8,2.8-4,5.2-6.5,7.4c-2.5,2.2-5.5,3.9-9.1,5.2c-3.5,1.3-7.3,1.9-11.4,1.9C29.8,920.1,24,918.4,18.7,915.1z"/>
</svg>
