<?xml version="1.0" encoding="utf-8"?>
<!-- Generator: Adobe Illustrator 18.1.1, SVG Export Plug-In . SVG Version: 6.00 Build 0)  -->
<svg version="1.1" id="Layer_1" xmlns="http://www.w3.org/2000/svg" xmlns:xlink="http://www.w3.org/1999/xlink" x="0px" y="0px"
	 viewBox="97.6 279.4 400 283" enable-background="new 97.6 279.4 400 283" xml:space="preserve">
<polygon fill="#88C443" stroke="#88C443" stroke-width="0.4733" stroke-miterlimit="10" points="343.4,492.2 221.5,562.4 
	99.6,492.2 99.6,351.5 221.5,281 343.4,351.5 "/>
<path fill="#FFFFFF" d="M176.6,452.1h-10.1v-34.7c0-2.8-0.8-5-2.5-6.7s-3.8-2.5-6.7-2.5c-2.3,0-4.4,0.3-6.2,1
	c-1.6,0.7-3.1,1.7-4.2,3c-1.2,1.3-2,2.8-2.5,4.6c-0.5,1.7-0.8,3.8-0.8,6v29h-10.3V400h9.7v6c3.6-4.7,8.8-7,15.5-7
	c3.4,0,6.2,0.5,8.6,1.5c2.4,1,4.2,2.3,5.7,4s2.5,3.8,3,6.2c0.5,2.2,0.8,4.9,0.8,7.6V452.1L176.6,452.1z"/>
<path fill="#FFFFFF" d="M234.1,415.4c-1-3.3-2.7-6.2-4.8-8.6c-2.1-2.5-4.8-4.4-7.9-5.7c-3.1-1.3-6.7-2.1-10.9-2.1
	c-4,0-7.7,0.7-10.9,2.1c-3.1,1.3-5.9,3.3-7.9,5.7c-2.1,2.5-3.7,5.4-4.8,8.6c-1.1,3.2-1.5,6.9-1.5,10.6c0,3.7,0.5,7.4,1.5,10.6
	c1,3.2,2.7,6.2,4.8,8.6c2.1,2.5,4.8,4.4,8,5.7c3.1,1.3,6.7,2,10.9,2c4.1,0,7.7-0.7,10.9-2c3.1-1.3,5.7-3.3,7.9-5.7
	c2.1-2.5,3.7-5.2,4.8-8.6c1-3.2,1.5-6.7,1.5-10.6C235.7,422.2,235.2,418.6,234.1,415.4z M224,433.6c-0.8,2.2-1.8,4.1-3.1,5.6
	s-2.8,2.6-4.6,3.4c-3.5,1.5-7.7,1.5-11.3,0c-1.7-0.8-3.3-2-4.6-3.4c-1.3-1.5-2.3-3.3-3.1-5.6c-0.8-2.2-1.2-4.8-1.2-7.7
	c0-2.9,0.3-5.5,1.2-7.7c0.8-2.2,1.8-4.1,3.1-5.6c1.3-1.5,2.8-2.6,4.6-3.4c1.7-0.8,3.6-1.2,5.7-1.2c2,0,3.9,0.3,5.7,1.2
	c1.7,0.8,3.3,2,4.6,3.4c1.3,1.5,2.3,3.4,3.1,5.6c0.8,2.2,1.2,4.9,1.2,7.7C225.1,428.9,224.7,431.5,224,433.6z"/>
<path fill="#FFFFFF" d="M278.2,381v24c-0.5-0.7-1.3-1.3-2-1.7c-1.3-1-2.8-1.8-4.4-2.5c-1.5-0.5-3.1-1-4.7-1.3
	c-1.5-0.3-3-0.3-4.3-0.3c-3.9,0-7.4,0.7-10.5,2.1c-3,1.5-5.5,3.4-7.4,5.9c-1.9,2.5-3.4,5.4-4.4,8.6c-1,3.2-1.5,6.7-1.5,10.3
	c0,3.6,0.5,7.2,1.5,10.4c1,3.2,2.5,6.2,4.5,8.6c2,2.5,4.5,4.5,7.4,6c3,1.5,6.5,2.2,10.6,2.2c3.6,0,6.9-0.7,10-2
	c2.1-0.8,3.8-2.1,5.2-3.8v4.7h10.2v-70.9h-10.2V381z M277.7,432.6c-0.5,2.1-1.3,4-2.5,5.7c-1.2,1.6-2.6,3-4.4,4
	c-1.7,1-4,1.5-6.5,1.5s-4.6-0.5-6.4-1.5c-1.8-1-3.3-2.2-4.5-3.8s-2-3.5-2.6-5.7c-0.6-2.1-0.8-4.3-0.8-6.5c0-2.3,0.3-4.7,0.8-6.9
	c0.5-2.1,1.3-4.2,2.3-5.9c1-1.6,2.5-3,4.3-4c1.7-1,4-1.5,6.5-1.5c2.6,0,4.9,0.5,6.7,1.5s3.4,2.3,4.5,3.9c1.2,1.6,2,3.5,2.6,5.7
	c0.5,2.1,0.8,4.5,0.8,6.9C278.5,428.2,278.3,430.4,277.7,432.6z"/>
<path fill="#FFFFFF" d="M342,418.6c-0.7-3.4-2-6.7-3.8-9.6c-1.8-2.9-4.3-5.4-7.4-7.4c-3-2-6.9-2.9-11.6-2.9c-3.5,0-6.9,0.7-9.8,2
	c-2.9,1.3-5.6,3.2-7.7,5.7s-3.9,5.2-5.1,8.5c-1.2,3.2-1.7,6.9-1.7,10.8c0.1,3.9,0.7,7.5,1.7,10.8c1,3.3,2.6,6.2,4.7,8.6
	c2,2.5,4.7,4.3,7.7,5.7c3,1.4,6.7,2,10.8,2c5.9,0,10.8-1.5,14.7-4.4c3.9-2.9,6.4-7.4,7.6-13.2l0.2-1.2h-10.1l-0.2,0.8
	c-0.7,3-2,5.2-4,6.7c-2,1.5-4.7,2.2-7.9,2.2c-2.5,0-4.8-0.3-6.7-1.3s-3.4-2-4.6-3.3c-1.2-1.3-2-3-2.6-4.9c-0.5-1.5-0.7-3.2-0.8-5
	h37.3v-1C342.9,425.3,342.6,422,342,418.6z M318.7,408c2,0,3.7,0.3,5.2,1s2.9,1.6,4.1,2.8c1.2,1.2,2,2.5,2.7,4.2
	c0.5,1.3,1,2.7,1,4.1h-26.4c0.2-1.5,0.5-2.8,1-4.1c0.7-1.5,1.5-3,2.7-4.2c1.2-1.2,2.5-2.1,4.1-2.8C314.9,408.3,316.8,408,318.7,408z
	"/>
<path fill="#88C443" d="M383,382v24.9c-0.8-1-1.6-2-2.7-2.8c-1.3-1-2.8-1.8-4.3-2.5c-1.5-0.5-3-1-4.5-1.3c-1.5-0.3-2.9-0.3-4.2-0.3
	c-3.8,0-7.4,0.7-10.2,2.1c-2.9,1.3-5.4,3.3-7.4,5.7c-2,2.3-3.4,5.2-4.3,8.4c-1,3.2-1.5,6.7-1.5,10.2c0,3.6,0.5,7,1.5,10.2
	c1,3.2,2.5,6.1,4.4,8.5c2,2.5,4.4,4.4,7.4,5.9c3,1.5,6.4,2.1,10.3,2.1c3.5,0,6.9-0.5,9.8-1.8c2.5-1,4.5-2.7,5.9-4.9v5.7h9.2v-70.1
	L383,382L383,382z M368.5,444.8c-2.5,0-4.8-0.5-6.7-1.5c-1.8-1-3.4-2.3-4.7-4c-1.2-1.6-2.1-3.6-2.7-5.7c-0.5-2.1-0.8-4.4-0.8-6.7
	c0-2.5,0.3-4.8,0.8-7c0.5-2.2,1.3-4.3,2.5-6.1c1-1.7,2.6-3.1,4.5-4.2c1.8-1,4.1-1.5,6.9-1.5s5.1,0.5,7,1.5c2,1,3.5,2.3,4.7,4
	c1.1,1.7,2.1,3.6,2.6,5.9c0.5,2.2,0.8,4.6,0.8,6.9c0,2.2-0.3,4.5-0.8,6.7c-0.5,2.1-1.3,4.2-2.5,5.9c-1.2,1.6-2.7,3.1-4.6,4.1
	C373.4,444.3,371.1,444.8,368.5,444.8z"/>
<path fill="#88C443" d="M446.7,444.4c-0.8,0.3-1.6,0.5-2.3,0.5c-1.3,0-1.6-0.5-1.7-1c-0.2-0.8-0.3-2.2-0.3-4.1v-25.6
	c0-2.9-0.5-5.5-1.7-7.4c-1.2-1.8-2.6-3.3-4.5-4.4c-1.8-1-3.9-1.6-6.2-2c-5-0.7-10.2-0.7-14.8,0.3c-2.5,0.5-4.9,1.5-6.9,2.9
	c-2,1.3-3.6,3.1-4.8,5.4c-1.2,2.1-1.8,4.9-2,8v0.5h9.2v-0.5c0.2-3.5,1.3-5.9,3.5-7c2.2-1.3,5.1-2,8.4-2c1.3,0,2.5,0.1,3.8,0.3
	c1.3,0.2,2.5,0.5,3.4,1c1,0.5,1.7,1.3,2.5,2.3c0.5,1,1,2.3,1,4.1c0,1.3-0.3,2.5-1.2,3.1c-0.8,0.8-2,1.3-3.4,1.7
	c-1.5,0.3-3.3,0.7-5.2,1c-2,0.2-4.2,0.5-6.4,1c-2.1,0.3-4.2,0.8-6.2,1.5c-2,0.5-3.9,1.5-5.6,2.6s-2.9,2.7-3.9,4.6
	c-1,1.9-1.5,4.3-1.5,7.2c0,2.5,0.5,4.8,1.3,6.7c0.8,1.8,2.1,3.3,3.7,4.5c1.6,1.2,3.4,2,5.5,2.5c2,0.5,4.2,0.8,6.4,0.8
	c3.5,0,6.9-0.5,9.9-1.8c2.7-1,5.1-2.7,7.2-5.1c0.2,2.2,0.8,3.9,2,5c1.3,1.3,3.1,2,5.4,2c2.5,0,4.7-0.5,6.2-1.3l0.2-0.1v-7.4
	L446.7,444.4z M418.3,444.8c-1.2,0-2.3-0.1-3.5-0.3c-1-0.2-2.1-0.7-2.9-1.2c-0.8-0.5-1.5-1.3-2-2.1c-0.5-0.8-0.8-2-0.8-3.2
	c0-2,0.3-3.5,1.3-4.6c0.8-1,2-2,3.4-2.6c1.5-0.5,3.1-1,4.9-1.3c1.8-0.3,3.7-0.5,5.6-0.8c1.8-0.2,3.6-0.5,5.2-0.8
	c1.3-0.3,2.5-0.7,3.4-1.3v7.5c0,1-0.3,2.2-0.8,3.5c-0.5,1.3-1.5,2.5-2.5,3.5c-1.2,1-2.7,2-4.6,2.7
	C423.2,444.5,421,444.8,418.3,444.8z"/>
<path fill="#88C443" d="M485.2,401l-13.8,40.1L457.1,401h-10.4l20,50.1l-3.3,8.2c-0.8,1.3-1.5,2.5-2.5,3.2s-2.2,1-3.7,1
	c-0.8,0-1.5-0.1-2.3-0.3c-0.8-0.2-1.5-0.5-2.3-0.8l-0.7-0.2v8.5l0.3,0.1c0.8,0.3,1.8,0.5,2.9,0.7c1,0.1,2,0.2,2.9,0.2
	c2,0,3.6-0.3,5-0.8c1.3-0.5,2.7-1.3,3.9-2.5c1.2-1,2.2-2.5,3.2-4.2c1-1.6,2-3.8,2.8-6.2l21.8-56.4l0.3-0.7L485.2,401L485.2,401
	L485.2,401L485.2,401z"/>
<g>
	<path fill="#FFFFFF" d="M139,459.3c0.2,0,0.4,0,0.6,0s0.4,0,0.7,0c0.2,0,0.4,0,0.6,0.1c0.2,0,0.3,0.1,0.5,0.2
		c0.3,0.2,0.5,0.4,0.7,0.7c0.2,0.3,0.3,0.7,0.3,1.2c0,0.5-0.1,0.9-0.3,1.3c-0.2,0.3-0.6,0.6-1,0.8l0,0c0.5,0.1,1,0.4,1.3,0.8
		c0.3,0.4,0.4,0.9,0.4,1.4c0,0.3,0,0.6-0.2,1c-0.1,0.3-0.3,0.6-0.5,0.8c-0.2,0.2-0.5,0.4-0.9,0.6s-0.7,0.2-1.2,0.2h-4.4V459h3.4
		V459.3z M139.4,463.3c0.7,0,1.2-0.1,1.5-0.3c0.3-0.2,0.4-0.6,0.4-1.1c0-0.3,0-0.6-0.1-0.8c-0.1-0.2-0.2-0.3-0.4-0.4
		c-0.2-0.1-0.4-0.1-0.6-0.2s-0.5,0-0.7,0h-2.4v2.9L139.4,463.3L139.4,463.3z M140,467.5c0.5,0,0.9-0.1,1.3-0.4
		c0.3-0.3,0.4-0.7,0.4-1.2c0-0.3,0-0.5-0.1-0.7c-0.1-0.2-0.2-0.3-0.4-0.4c-0.2-0.1-0.4-0.2-0.6-0.2c-0.2,0-0.5,0-0.7,0h-2.8v3.2
		L140,467.5L140,467.5z"/>
	<path fill="#FFFFFF" d="M145.3,461.8v1.4l0,0c0.2-0.5,0.6-0.9,1-1.2c0.4-0.2,0.9-0.4,1.5-0.3v1.1c-0.4,0-0.8,0-1.1,0.2
		c-0.3,0.1-0.5,0.3-0.7,0.5s-0.3,0.5-0.4,0.8c-0.1,0.3-0.1,0.7-0.1,1.1v3h-1.1v-6.7L145.3,461.8L145.3,461.8z"/>
	<path fill="#FFFFFF" d="M148.2,463.8c0.1-0.4,0.3-0.8,0.6-1.1c0.3-0.3,0.6-0.5,1-0.7s0.9-0.2,1.4-0.2s1,0.1,1.4,0.2
		c0.4,0.2,0.7,0.4,1,0.7c0.3,0.3,0.5,0.7,0.6,1.1c0.1,0.4,0.2,0.9,0.2,1.4c0,0.5,0,0.9-0.2,1.4c-0.1,0.4-0.3,0.8-0.6,1.1
		c-0.3,0.3-0.6,0.5-1,0.7c-0.4,0.2-0.8,0.2-1.4,0.2s-1-0.1-1.4-0.2c-0.4-0.1-0.7-0.4-1-0.7c-0.3-0.3-0.5-0.7-0.6-1.1
		s-0.2-0.9-0.2-1.4C148,464.7,148.1,464.2,148.2,463.8z M149.3,466.3c0.1,0.3,0.2,0.6,0.4,0.8c0.2,0.2,0.4,0.4,0.6,0.5
		c0.2,0.1,0.5,0.1,0.8,0.1s0.5,0,0.8-0.1c0.2-0.1,0.5-0.3,0.6-0.5s0.3-0.5,0.4-0.8c0.1-0.3,0.1-0.7,0.1-1.1s0-0.7-0.1-1.1
		c-0.1-0.3-0.2-0.6-0.4-0.8c-0.2-0.2-0.4-0.4-0.6-0.5c-0.2-0.1-0.5-0.1-0.8-0.1s-0.5,0-0.8,0.1c-0.3,0.1-0.5,0.3-0.6,0.5
		c-0.2,0.2-0.3,0.5-0.4,0.8c-0.1,0.3-0.1,0.7-0.1,1.1S149.2,466,149.3,466.3z"/>
	<path fill="#FFFFFF" d="M160.3,468.6v-1l0,0c-0.2,0.4-0.5,0.7-0.9,0.9c-0.4,0.2-0.8,0.3-1.3,0.3c-0.4,0-0.8,0-1.1-0.2
		c-0.3-0.1-0.5-0.3-0.7-0.5s-0.3-0.4-0.4-0.7c0-0.3-0.1-0.6-0.1-1V462h1.1v4.5c0,0.4,0.1,0.7,0.3,1c0.2,0.2,0.6,0.3,1,0.3
		c0.3,0,0.6,0,0.9-0.1c0.2-0.1,0.4-0.2,0.6-0.4c0.1-0.2,0.3-0.4,0.3-0.6c0.1-0.2,0.1-0.5,0.1-0.8v-3.8h1.1v6.7L160.3,468.6
		L160.3,468.6z"/>
	<path fill="#FFFFFF" d="M168.1,470.5c-0.5,0.5-1.3,0.8-2.3,0.8c-0.3,0-0.6,0-0.9-0.1c-0.3,0-0.6-0.2-0.9-0.3
		c-0.2-0.1-0.5-0.3-0.6-0.6c-0.1-0.2-0.2-0.5-0.3-0.9h1.1c0,0.2,0,0.3,0.2,0.5c0.1,0.1,0.2,0.2,0.4,0.3c0.1,0.1,0.3,0.1,0.5,0.2
		c0.2,0,0.4,0,0.5,0c0.3,0,0.6,0,0.9-0.2c0.2-0.1,0.4-0.3,0.6-0.5c0.1-0.2,0.3-0.5,0.3-0.8c0-0.3,0.1-0.6,0.1-1v-0.4l0,0
		c-0.2,0.4-0.5,0.7-0.8,0.9c-0.4,0.2-0.8,0.3-1.2,0.3c-0.5,0-0.9-0.1-1.3-0.2c-0.3-0.2-0.7-0.4-0.9-0.7s-0.4-0.6-0.5-1.1
		c-0.1-0.4-0.2-0.8-0.2-1.3c0-0.4,0-0.8,0.1-1.2s0.3-0.8,0.5-1.1s0.5-0.6,0.9-0.8s0.9-0.3,1.4-0.3c0.4,0,0.8,0.1,1.1,0.3
		c0.3,0.2,0.6,0.4,0.8,0.8l0,0v-0.9h1v6.1C168.8,469.1,168.6,469.9,168.1,470.5z M166.6,467.4c0.2-0.1,0.4-0.3,0.6-0.6
		c0.1-0.2,0.2-0.5,0.3-0.8c0-0.3,0.1-0.6,0.1-0.9c0-0.3,0-0.6-0.1-0.8c0-0.3-0.2-0.5-0.3-0.7s-0.3-0.4-0.6-0.5
		c-0.2-0.1-0.5-0.2-0.9-0.2s-0.6,0-0.9,0.2c-0.2,0.1-0.4,0.3-0.6,0.5c-0.1,0.2-0.3,0.5-0.3,0.8c0,0.3-0.1,0.6-0.1,0.9
		c0,0.3,0,0.6,0.1,0.9c0,0.3,0.1,0.6,0.3,0.8c0.1,0.2,0.3,0.4,0.6,0.6c0.2,0.1,0.5,0.2,0.9,0.2C166.1,467.7,166.4,467.6,166.6,467.4
		z"/>
	<path fill="#FFFFFF" d="M171.6,459.3v3.5l0,0c0.1-0.2,0.2-0.4,0.3-0.5c0.1-0.1,0.3-0.2,0.5-0.3c0.2-0.1,0.4-0.1,0.6-0.2
		c0.2,0,0.4,0,0.6,0c0.4,0,0.8,0,1.1,0.2c0.3,0.1,0.5,0.3,0.7,0.5c0.2,0.2,0.3,0.4,0.4,0.7c0.1,0.3,0.1,0.6,0.1,1v4.4h-1.1v-4.5
		c0-0.4-0.1-0.7-0.3-1c-0.2-0.3-0.6-0.3-1-0.3c-0.3,0-0.6,0-0.9,0.1c-0.2,0.1-0.4,0.2-0.6,0.4c-0.1,0.2-0.3,0.4-0.3,0.6
		c-0.1,0.2-0.1,0.5-0.1,0.8v3.8h-1.1v-9.2H171.6z"/>
	<path fill="#FFFFFF" d="M180.6,461.8v1h-1.3v4.1c0,0.1,0,0.2,0,0.3c0,0.1,0,0.1,0.1,0.2c0,0,0.1,0,0.2,0.1c0.1,0,0.2,0,0.4,0h0.5v1
		h-0.8c-0.3,0-0.5,0-0.7,0c-0.2,0-0.3-0.1-0.5-0.2c-0.1-0.1-0.2-0.2-0.3-0.4c0-0.2-0.1-0.4-0.1-0.7v-4.3H177v-1h1.1v-2h1.1v2
		L180.6,461.8L180.6,461.8z"/>
	<path fill="#FFFFFF" d="M188.2,461.8v1h-1.3v4.1c0,0.1,0,0.2,0,0.3c0,0.1,0,0.1,0.1,0.2c0,0,0.1,0,0.2,0.1c0.1,0,0.2,0,0.4,0h0.5v1
		h-0.8c-0.3,0-0.5,0-0.7,0s-0.3-0.1-0.5-0.2c-0.1-0.1-0.2-0.2-0.3-0.4c0-0.2-0.1-0.4-0.1-0.7v-4.3h-1.1v-1h1.1v-2h1.1v2L188.2,461.8
		L188.2,461.8z"/>
	<path fill="#FFFFFF" d="M189.3,463.8c0.1-0.4,0.3-0.8,0.6-1.1c0.3-0.3,0.6-0.5,1-0.7s0.9-0.2,1.4-0.2s1,0.1,1.4,0.2
		c0.4,0.2,0.7,0.4,1,0.7c0.3,0.3,0.5,0.7,0.6,1.1c0.1,0.4,0.2,0.9,0.2,1.4c0,0.5,0,0.9-0.2,1.4c-0.1,0.4-0.3,0.8-0.6,1.1
		c-0.3,0.3-0.6,0.5-1,0.7c-0.4,0.2-0.8,0.2-1.4,0.2c-0.5,0-1-0.1-1.4-0.2c-0.4-0.1-0.7-0.4-1-0.7c-0.3-0.3-0.5-0.7-0.6-1.1
		s-0.2-0.9-0.2-1.4C189.1,464.7,189.2,464.2,189.3,463.8z M190.4,466.3c0.1,0.3,0.2,0.6,0.4,0.8c0.2,0.2,0.4,0.4,0.6,0.5
		c0.2,0.1,0.5,0.1,0.8,0.1s0.5,0,0.8-0.1c0.2-0.1,0.5-0.3,0.6-0.5s0.3-0.5,0.4-0.8c0.1-0.3,0.1-0.7,0.1-1.1s0-0.7-0.1-1.1
		c-0.1-0.3-0.2-0.6-0.4-0.8c-0.2-0.2-0.4-0.4-0.6-0.5c-0.2-0.1-0.5-0.1-0.8-0.1s-0.5,0-0.8,0.1c-0.2,0.1-0.5,0.3-0.6,0.5
		c-0.2,0.2-0.3,0.5-0.4,0.8c-0.1,0.3-0.1,0.7-0.1,1.1C190.3,465.6,190.3,466,190.4,466.3z"/>
	<path fill="#FFFFFF" d="M203.1,469.5c-0.1,0.3-0.2,0.6-0.4,0.8c-0.1,0.2-0.2,0.4-0.4,0.5c-0.1,0.1-0.3,0.2-0.5,0.3
		c-0.2,0-0.4,0.1-0.6,0.1c-0.1,0-0.2,0-0.4,0c-0.1,0-0.2,0-0.4-0.1v-1c0.1,0,0.2,0.1,0.3,0.1s0.2,0,0.3,0c0.2,0,0.4,0,0.5-0.1
		c0.1-0.1,0.2-0.2,0.3-0.4l0.4-1.1l-2.6-6.7h1.2l1.9,5.5l0,0l1.9-5.5h1.1L203.1,469.5z"/>
	<path fill="#FFFFFF" d="M206.8,463.8c0.1-0.4,0.3-0.8,0.6-1.1c0.3-0.3,0.6-0.5,1-0.7s0.9-0.2,1.4-0.2c0.5,0,1,0.1,1.4,0.2
		c0.4,0.2,0.7,0.4,1,0.7c0.3,0.3,0.5,0.7,0.6,1.1c0.1,0.4,0.2,0.9,0.2,1.4c0,0.5,0,0.9-0.2,1.4c-0.1,0.4-0.3,0.8-0.6,1.1
		c-0.3,0.3-0.6,0.5-1,0.7c-0.4,0.2-0.8,0.2-1.4,0.2c-0.6,0-1-0.1-1.4-0.2c-0.4-0.1-0.7-0.4-1-0.7c-0.3-0.3-0.5-0.7-0.6-1.1
		s-0.2-0.9-0.2-1.4C206.6,464.7,206.6,464.2,206.8,463.8z M207.9,466.3c0.1,0.3,0.2,0.6,0.4,0.8c0.2,0.2,0.4,0.4,0.6,0.5
		c0.2,0.1,0.5,0.1,0.8,0.1c0.3,0,0.5,0,0.8-0.1c0.2-0.1,0.5-0.3,0.6-0.5s0.3-0.5,0.4-0.8c0.1-0.3,0.1-0.7,0.1-1.1s0-0.7-0.1-1.1
		c-0.1-0.3-0.2-0.6-0.4-0.8c-0.2-0.2-0.4-0.4-0.6-0.5c-0.2-0.1-0.5-0.1-0.8-0.1c-0.3,0-0.5,0-0.8,0.1c-0.3,0.1-0.5,0.3-0.6,0.5
		c-0.2,0.2-0.3,0.5-0.4,0.8c-0.1,0.3-0.1,0.7-0.1,1.1C207.7,465.6,207.7,466,207.9,466.3z"/>
	<path fill="#FFFFFF" d="M218.9,468.6v-1l0,0c-0.2,0.4-0.5,0.7-0.9,0.9s-0.8,0.3-1.3,0.3c-0.4,0-0.8,0-1.1-0.2
		c-0.3-0.1-0.5-0.3-0.7-0.5c-0.2-0.2-0.3-0.4-0.4-0.7c0-0.3-0.1-0.6-0.1-1V462h1.1v4.5c0,0.4,0.1,0.7,0.3,1c0.2,0.2,0.6,0.3,1,0.3
		c0.3,0,0.6,0,0.9-0.1c0.2-0.1,0.4-0.2,0.6-0.4c0.2-0.2,0.3-0.4,0.3-0.6c0.1-0.2,0.1-0.5,0.1-0.8v-3.8h1.1v6.7L218.9,468.6
		L218.9,468.6z"/>
	<path fill="#FFFFFF" d="M226.3,459.3v3.4l0,0c0.2-0.3,0.4-0.6,0.8-0.8c0.4-0.1,0.8-0.2,1.3-0.2s0.9,0.1,1.3,0.3
		c0.4,0.2,0.7,0.4,0.9,0.7c0.2,0.3,0.4,0.7,0.6,1.1c0.1,0.4,0.2,0.9,0.2,1.3s0,0.9-0.2,1.3c-0.1,0.4-0.3,0.8-0.5,1.1
		c-0.2,0.3-0.6,0.5-0.9,0.7c-0.4,0.2-0.8,0.2-1.3,0.2c-0.1,0-0.3,0-0.5,0s-0.4-0.1-0.6-0.1c-0.2-0.1-0.4-0.2-0.5-0.3
		c-0.2-0.1-0.3-0.3-0.4-0.5l0,0v0.9h-1.1v-9.2L226.3,459.3L226.3,459.3z M230.3,464.2c-0.1-0.3-0.2-0.5-0.4-0.8
		c-0.1-0.2-0.4-0.4-0.6-0.5c-0.2-0.1-0.5-0.2-0.9-0.2c-0.3,0-0.7,0-0.9,0.2c-0.2,0.1-0.4,0.3-0.6,0.6c-0.1,0.2-0.3,0.5-0.3,0.8
		s-0.1,0.6-0.1,0.9c0,0.3,0,0.6,0.1,0.9c0.1,0.3,0.2,0.6,0.3,0.8c0.1,0.2,0.4,0.4,0.6,0.5c0.2,0.1,0.6,0.2,0.9,0.2
		c0.3,0,0.7,0,0.9-0.2c0.2-0.1,0.4-0.3,0.6-0.6c0.1-0.2,0.2-0.5,0.3-0.8c0-0.3,0.1-0.6,0.1-0.9C230.4,464.8,230.4,464.5,230.3,464.2
		z"/>
	<path fill="#FFFFFF" d="M235.5,469.5c-0.1,0.3-0.2,0.6-0.4,0.8c-0.1,0.2-0.2,0.4-0.4,0.5c-0.1,0.1-0.3,0.2-0.5,0.3
		c-0.2,0-0.4,0.1-0.6,0.1c-0.1,0-0.2,0-0.4,0c-0.1,0-0.2,0-0.4-0.1v-1c0.1,0,0.2,0.1,0.3,0.1s0.2,0,0.3,0c0.2,0,0.4,0,0.5-0.1
		c0.1-0.1,0.2-0.2,0.3-0.4l0.4-1.1l-2.6-6.7h1.2l1.9,5.5l0,0l1.9-5.5h1.1L235.5,469.5z"/>
	<path fill="#FFFFFF" d="M239.6,463.3v-1.4h1.4v1.4H239.6z M241,467.1v1.4h-1.4v-1.4H241z"/>
</g>
<g>
	<g>
		<path fill="#FFFFFF" d="M154.8,478.3c-0.2,1.3-1.1,2.3-2.2,2.8c-0.4,0.2-0.7,0.7-0.7,1.2V493c0,0.5,0.3,1,0.8,1.3
			c1.1,0.6,2,1.7,2.1,3.1c2.3-2.5,3.7-5.9,3.7-9.6C158.4,484.2,157,480.9,154.8,478.3z"/>
		<path fill="#FFFFFF" d="M135.4,494.4L135.4,494.4c0.4-0.2,0.8-0.7,0.8-1.2v-4.9c0-0.5-0.2-1-0.7-1.2c0,0,0,0-0.1,0l0,0l0,0
			c-1.2-0.6-2.1-2-2.1-3.5c0-2.2,1.8-3.9,3.9-3.9c2.2,0,3.9,1.8,3.9,4c0,0.5-0.1,0.9-0.3,1.4l0,0c-0.1,0.4,0,1,0.3,1.3l7.1,7.2l0,0
			c0.2,0.2,0.6,0.4,1,0.4c0.1,0,0.2,0,0.3,0c0.1-0.2,0.2-0.5,0.2-0.8v-10.7c0-0.5-0.2-1-0.6-1.2l0,0l0,0l0,0c-1.2-0.7-2.1-2-2.1-3.5
			c0-1.3,0.7-2.5,1.7-3.3c-1.4-0.5-2.9-0.7-4.5-0.7c-7.9,0-14.4,6.4-14.4,14.4c0,3.6,1.3,6.9,3.5,9.4
			C133.4,496.1,134.2,495,135.4,494.4z"/>
		<path fill="#FFFFFF" d="M150.9,479.6c1,0,1.9-0.8,1.9-1.9c0-1-0.8-1.9-1.9-1.9c-1,0-1.9,0.8-1.9,1.9
			C148.9,478.7,149.8,479.6,150.9,479.6z"/>
		<path fill="#FFFFFF" d="M148.9,498c0,1,0.8,1.9,1.9,1.9c1,0,1.9-0.8,1.9-1.9c0-1-0.8-1.9-1.9-1.9C149.8,496,148.9,496.9,148.9,498
			z"/>
		<path fill="#FFFFFF" d="M146.9,498c0-0.5,0.1-0.9,0.2-1.4l0,0c0-0.1,0.1-0.3,0.1-0.5c0-0.4-0.1-0.8-0.4-1l0,0l-7.1-7.3
			c-0.6-0.6-1.6-0.5-1.6,0.5v4.9c0,0.5,0.3,1,0.8,1.3c1.3,0.6,2.1,2,2.1,3.5s-0.8,2.8-2,3.5c1.6,0.6,3.3,0.9,5.1,0.9
			c1.7,0,3.4-0.3,5-0.9C147.8,500.8,146.9,499.5,146.9,498z"/>
		<path fill="#FFFFFF" d="M137.2,496c-1,0-1.9,0.8-1.9,1.9c0,1,0.8,1.9,1.9,1.9c1,0,1.9-0.8,1.9-1.9
			C139.1,496.9,138.3,496,137.2,496z"/>
		<path fill="#FFFFFF" d="M139.1,483.4c0-1-0.8-1.9-1.9-1.9c-1,0-1.9,0.8-1.9,1.9c0,1,0.8,1.9,1.9,1.9
			C138.3,485.4,139.1,484.5,139.1,483.4z"/>
	</g>
	<g>
		<path fill="#FFFFFF" d="M166.5,491.9v-4.6c0-1.9-0.7-2.9-2-2.9c-0.7,0-1.4,0.3-1.9,0.8c-0.5,0.5-0.7,1.2-0.7,2.1v4.6h-0.7v-8h0.7
			v1.4l0,0c0.6-1.1,1.5-1.6,2.7-1.6c0.8,0,1.5,0.3,2,0.8c0.4,0.5,0.7,1.4,0.7,2.4v4.8L166.5,491.9L166.5,491.9z"/>
		<path fill="#FFFFFF" d="M169.8,487.9c0,1.1,0.2,1.9,0.7,2.5c0.5,0.6,1.2,0.9,2.1,0.9c0.9,0,1.7-0.3,2.6-1v0.7
			c-0.8,0.6-1.7,0.9-2.7,0.9c-1,0-1.8-0.3-2.5-1.1c-0.7-0.8-0.9-1.8-0.9-3.1c0-1.1,0.3-2.1,1-2.9c0.6-0.8,1.5-1.2,2.6-1.2
			c1,0,1.7,0.3,2.3,1c0.6,0.7,0.8,1.6,0.8,2.8v0.3L169.8,487.9L169.8,487.9z M174.9,487.3c0-0.9-0.2-1.6-0.6-2.1
			c-0.4-0.5-1-0.7-1.7-0.7c-0.7,0-1.3,0.2-1.8,0.7c-0.5,0.5-0.8,1.2-0.9,2.1H174.9z"/>
		<path fill="#FFFFFF" d="M182.4,491.9v-1.6l0,0c-0.2,0.5-0.6,1-1.1,1.3c-0.5,0.3-1,0.5-1.6,0.5c-0.7,0-1.3-0.2-1.8-0.6
			c-0.4-0.4-0.6-0.9-0.6-1.6c0-1.4,0.9-2.2,2.7-2.5l2.4-0.3c0-1.7-0.6-2.5-1.9-2.5c-0.9,0-1.7,0.3-2.5,1v-0.8
			c0.3-0.2,0.7-0.4,1.2-0.6c0.5-0.1,1-0.2,1.4-0.2c0.8,0,1.4,0.2,1.9,0.7c0.4,0.5,0.6,1.2,0.6,2.2v5.2L182.4,491.9L182.4,491.9z
			 M180.2,487.9c-0.8,0.1-1.4,0.3-1.7,0.6c-0.3,0.2-0.5,0.7-0.5,1.3c0,0.4,0.1,0.8,0.4,1.1c0.3,0.3,0.7,0.4,1.3,0.4
			c0.7,0,1.4-0.3,1.9-0.8c0.5-0.5,0.7-1.3,0.7-2.2v-0.8L180.2,487.9z"/>
		<path fill="#FFFFFF" d="M189.3,484.7c-0.2-0.1-0.5-0.2-0.8-0.2c-0.6,0-1.1,0.3-1.6,0.9c-0.4,0.6-0.6,1.5-0.6,2.7v3.7h-0.8v-8h0.7
			v1.7l0,0c0.2-0.6,0.4-1.1,0.8-1.4c0.4-0.3,0.8-0.5,1.3-0.5c0.3,0,0.5,0,0.8,0.1L189.3,484.7L189.3,484.7z"/>
		<path fill="#FFFFFF" d="M191.7,481.5v4.5h4.1v0.7h-4.1v5.2H191v-11.1h5.2v0.7L191.7,481.5L191.7,481.5z"/>
		<path fill="#FFFFFF" d="M201.3,492.1c-1.1,0-2.1-0.4-2.7-1.1c-0.7-0.7-1-1.7-1-3s0.3-2.3,1-3.1c0.7-0.7,1.6-1.1,2.8-1.1
			c1.1,0,2,0.3,2.7,1.1c0.6,0.7,1,1.7,1,3.1c0,1.2-0.3,2.2-1,3C203.4,491.7,202.5,492.1,201.3,492.1z M201.4,484.4
			c-0.9,0-1.7,0.3-2.2,0.9c-0.5,0.6-0.8,1.5-0.8,2.6c0,1,0.2,1.9,0.8,2.5c0.5,0.6,1.3,0.9,2.2,0.9c0.9,0,1.7-0.3,2.2-0.9
			s0.8-1.5,0.8-2.6s-0.2-2-0.8-2.6C203,484.7,202.3,484.4,201.4,484.4z"/>
		<path fill="#FFFFFF" d="M210.8,484.7c-0.2-0.1-0.5-0.2-0.8-0.2c-0.6,0-1.1,0.3-1.6,0.9c-0.4,0.6-0.6,1.5-0.6,2.7v3.7h-0.7v-8h0.7
			v1.7l0,0c0.2-0.6,0.4-1.1,0.8-1.4c0.4-0.3,0.8-0.5,1.3-0.5c0.3,0,0.5,0,0.8,0.1L210.8,484.7L210.8,484.7z"/>
		<path fill="#FFFFFF" d="M222.1,491.9v-4.8c0-1-0.1-1.7-0.4-2.1c-0.3-0.4-0.8-0.6-1.5-0.6c-0.6,0-1.1,0.2-1.6,0.8
			c-0.4,0.5-0.7,1.2-0.7,2v4.7h-0.7v-4.8c0-1.8-0.7-2.6-2-2.6c-0.6,0-1.2,0.2-1.6,0.8c-0.4,0.5-0.6,1.2-0.6,2.1v4.6h-0.7v-8h0.7v1.3
			l0,0c0.5-1,1.3-1.5,2.4-1.5c0.6,0,1.1,0.1,1.5,0.5c0.4,0.3,0.7,0.8,0.8,1.3c0.2-0.6,0.6-1,1-1.3c0.4-0.3,0.9-0.5,1.5-0.5
			c1.7,0,2.6,1.1,2.6,3.2v4.9H222.1L222.1,491.9z"/>
	</g>
</g>
<g>
	<path fill="#FFFFFF" d="M142.6,382.8v1.1H137v3.2h5.2v1.1H137v3.4h5.6v1.1h-6.9v-10L142.6,382.8L142.6,382.8z"/>
	<path fill="#FFFFFF" d="M145.1,385.5v1.1l0,0c0.5-0.9,1.3-1.3,2.3-1.3c0.5,0,0.8,0,1.2,0.2c0.3,0.1,0.5,0.3,0.7,0.5
		s0.3,0.5,0.4,0.8c0.1,0.3,0.1,0.7,0.1,1v4.7h-1.2v-4.6c0-0.4-0.1-0.8-0.4-1c-0.2-0.2-0.6-0.4-1.1-0.4c-0.3,0-0.7,0-0.9,0.1
		c-0.2,0.1-0.5,0.2-0.6,0.5c-0.1,0.2-0.3,0.4-0.4,0.7s-0.1,0.6-0.1,0.9v4.1h-1.2v-7.2L145.1,385.5L145.1,385.5z"/>
	<path fill="#FFFFFF" d="M157.1,394.8c-0.5,0.6-1.4,0.9-2.5,0.9c-0.3,0-0.7,0-1-0.1c-0.3,0-0.6-0.2-0.9-0.3
		c-0.3-0.1-0.5-0.4-0.7-0.6c-0.2-0.2-0.3-0.6-0.3-1h1.2c0,0.2,0.1,0.4,0.2,0.5c0.1,0.1,0.3,0.2,0.4,0.3c0.2,0.1,0.4,0.1,0.6,0.2
		c0.2,0,0.4,0,0.6,0c0.4,0,0.7,0,1-0.2c0.2-0.1,0.5-0.3,0.6-0.5c0.2-0.2,0.3-0.5,0.4-0.8c0.1-0.3,0.1-0.7,0.1-1.1v-0.5l0,0
		c-0.2,0.4-0.5,0.8-0.9,1c-0.4,0.2-0.8,0.3-1.3,0.3c-0.5,0-1-0.1-1.4-0.3s-0.7-0.4-1-0.8c-0.2-0.3-0.4-0.7-0.6-1.1
		c-0.1-0.4-0.2-0.9-0.2-1.4c0-0.4,0-0.8,0.1-1.3c0.1-0.4,0.3-0.8,0.5-1.2c0.2-0.4,0.6-0.6,1-0.9c0.4-0.2,0.9-0.3,1.6-0.3
		c0.4,0,0.9,0.1,1.2,0.3c0.4,0.2,0.7,0.5,0.9,0.9l0,0v-1h1.1v6.5C157.9,393.3,157.6,394.2,157.1,394.8z M155.6,391.5
		c0.3-0.1,0.5-0.4,0.6-0.6c0.1-0.2,0.3-0.5,0.3-0.9c0.1-0.3,0.1-0.6,0.1-1c0-0.3,0-0.6-0.1-0.9c0-0.3-0.2-0.6-0.3-0.8
		s-0.4-0.4-0.6-0.6s-0.6-0.2-0.9-0.2c-0.4,0-0.7,0-1,0.2c-0.2,0.1-0.5,0.3-0.6,0.6c-0.1,0.3-0.3,0.5-0.4,0.8c-0.1,0.3-0.1,0.6-0.1,1
		c0,0.3,0,0.6,0.1,1c0,0.3,0.2,0.6,0.3,0.9c0.1,0.2,0.3,0.5,0.6,0.6c0.3,0.1,0.6,0.2,1,0.2C155,391.8,155.3,391.7,155.6,391.5z"/>
	<path fill="#FFFFFF" d="M159.8,384.2v-1.4h1.2v1.4H159.8z M161,385.5v7.2h-1.2v-7.2H161z"/>
	<path fill="#FFFFFF" d="M163.9,385.5v1.1l0,0c0.5-0.9,1.3-1.3,2.3-1.3c0.5,0,0.8,0,1.2,0.2c0.3,0.1,0.5,0.3,0.7,0.5
		s0.3,0.5,0.4,0.8c0.1,0.3,0.1,0.7,0.1,1v4.7h-1.2v-4.6c0-0.4-0.1-0.8-0.4-1s-0.6-0.4-1.1-0.4c-0.3,0-0.7,0-0.9,0.1
		c-0.2,0.1-0.5,0.2-0.6,0.5c-0.1,0.3-0.3,0.4-0.4,0.7c-0.1,0.3-0.1,0.6-0.1,0.9v4.1h-1.2v-7.2L163.9,385.5L163.9,385.5z"/>
	<path fill="#FFFFFF" d="M175.7,392.3c-0.5,0.4-1.2,0.6-2,0.6c-0.6,0-1.1-0.1-1.5-0.3c-0.4-0.2-0.8-0.4-1-0.8
		c-0.3-0.3-0.5-0.7-0.6-1.2c-0.1-0.4-0.2-1-0.2-1.5s0.1-1,0.2-1.5c0.1-0.4,0.4-0.8,0.7-1.2c0.3-0.3,0.6-0.6,1.1-0.8
		c0.4-0.2,0.8-0.3,1.3-0.3c0.6,0,1.2,0.1,1.6,0.4c0.4,0.2,0.7,0.6,1,1c0.2,0.4,0.4,0.8,0.5,1.3c0.1,0.5,0.1,0.9,0.1,1.4h-5.4
		c0,0.3,0,0.6,0.1,0.9c0,0.3,0.2,0.5,0.4,0.7c0.2,0.2,0.4,0.4,0.7,0.5c0.3,0.1,0.6,0.2,1,0.2c0.5,0,0.9-0.1,1.2-0.3
		c0.3-0.2,0.5-0.6,0.6-1h1.2C176.6,391.3,176.3,391.9,175.7,392.3z M175.4,387.7c-0.1-0.2-0.2-0.4-0.4-0.6s-0.4-0.3-0.6-0.4
		c-0.2-0.1-0.5-0.1-0.8-0.1c-0.3,0-0.6,0-0.8,0.1c-0.2,0.1-0.4,0.2-0.6,0.4c-0.2,0.2-0.3,0.4-0.4,0.6c-0.1,0.2-0.1,0.5-0.2,0.8h4.1
		C175.6,388.2,175.5,387.9,175.4,387.7z"/>
	<path fill="#FFFFFF" d="M183.2,392.3c-0.5,0.4-1.2,0.6-2,0.6c-0.6,0-1.1-0.1-1.5-0.3s-0.8-0.4-1-0.8c-0.3-0.3-0.5-0.7-0.6-1.2
		c-0.1-0.4-0.2-1-0.2-1.5s0.1-1,0.2-1.5c0.1-0.4,0.4-0.8,0.7-1.2c0.3-0.3,0.6-0.6,1.1-0.8c0.4-0.2,0.8-0.3,1.3-0.3
		c0.6,0,1.2,0.1,1.6,0.4c0.4,0.2,0.7,0.6,1,1c0.2,0.4,0.4,0.8,0.5,1.3c0.1,0.5,0.1,0.9,0.1,1.4H179c0,0.3,0,0.6,0.1,0.9
		c0,0.3,0.2,0.5,0.4,0.7s0.4,0.4,0.7,0.5c0.3,0.1,0.6,0.2,1,0.2c0.5,0,0.9-0.1,1.2-0.3c0.3-0.2,0.5-0.6,0.6-1h1.2
		C184.1,391.3,183.7,391.9,183.2,392.3z M182.9,387.7c-0.1-0.2-0.2-0.4-0.4-0.6s-0.4-0.3-0.6-0.4c-0.2-0.1-0.5-0.1-0.8-0.1
		c-0.3,0-0.6,0-0.8,0.1c-0.2,0.1-0.4,0.2-0.6,0.4c-0.2,0.2-0.3,0.4-0.4,0.6c-0.1,0.2-0.1,0.5-0.2,0.8h4.1
		C183.1,388.2,183,387.9,182.9,387.7z"/>
	<path fill="#FFFFFF" d="M186.7,385.5v1.5l0,0c0.3-0.6,0.6-1,1-1.3s0.9-0.4,1.6-0.4v1.2c-0.5,0-0.9,0-1.2,0.2
		c-0.3,0.1-0.6,0.3-0.8,0.5s-0.3,0.5-0.4,0.9c-0.1,0.3-0.1,0.7-0.1,1.2v3.2h-1.2v-7.2L186.7,385.5L186.7,385.5z"/>
	<path fill="#FFFFFF" d="M195.1,392.3c-0.5,0.4-1.2,0.6-2,0.6c-0.6,0-1.1-0.1-1.5-0.3c-0.4-0.2-0.8-0.4-1-0.8
		c-0.3-0.3-0.5-0.7-0.6-1.2c-0.1-0.4-0.2-1-0.2-1.5s0.1-1,0.2-1.5c0.1-0.4,0.4-0.8,0.7-1.2c0.3-0.3,0.6-0.6,1.1-0.8
		c0.4-0.2,0.8-0.3,1.3-0.3c0.6,0,1.2,0.1,1.6,0.4c0.4,0.2,0.7,0.6,1,1c0.2,0.4,0.4,0.8,0.5,1.3c0.1,0.5,0.1,0.9,0.1,1.4h-5.4
		c0,0.3,0,0.6,0.1,0.9c0,0.3,0.2,0.5,0.4,0.7s0.4,0.4,0.7,0.5c0.3,0.1,0.6,0.2,1,0.2c0.5,0,0.9-0.1,1.2-0.3c0.3-0.2,0.5-0.6,0.6-1
		h1.2C195.9,391.3,195.6,391.9,195.1,392.3z M194.8,387.7c-0.1-0.2-0.2-0.4-0.4-0.6s-0.4-0.3-0.6-0.4c-0.2-0.1-0.5-0.1-0.8-0.1
		s-0.6,0-0.8,0.1c-0.2,0.1-0.4,0.2-0.6,0.4c-0.2,0.2-0.3,0.4-0.4,0.6c-0.1,0.2-0.1,0.5-0.2,0.8h4.1
		C195,388.2,194.9,387.9,194.8,387.7z"/>
	<path fill="#FFFFFF" d="M202.7,392.8v-1l0,0c-0.2,0.4-0.5,0.7-0.9,0.8c-0.4,0.2-0.9,0.2-1.4,0.2c-0.5,0-1-0.1-1.4-0.3
		c-0.4-0.2-0.7-0.5-1-0.8c-0.3-0.3-0.5-0.7-0.6-1.2c-0.1-0.4-0.2-0.9-0.2-1.4s0-1,0.2-1.4c0.1-0.4,0.3-0.8,0.6-1.2
		c0.3-0.3,0.6-0.6,1-0.8c0.4-0.2,0.9-0.3,1.4-0.3c0.2,0,0.4,0,0.6,0c0.2,0,0.4,0.1,0.6,0.2c0.2,0.1,0.4,0.2,0.6,0.3
		c0.2,0.1,0.3,0.3,0.5,0.5l0,0v-3.7h1.2v10L202.7,392.8L202.7,392.8z M198.4,390.2c0.1,0.3,0.2,0.6,0.4,0.8c0.2,0.2,0.4,0.4,0.7,0.6
		s0.6,0.2,1,0.2c0.4,0,0.7-0.1,1-0.2c0.3-0.1,0.5-0.3,0.7-0.6c0.2-0.2,0.3-0.5,0.4-0.9c0.1-0.3,0.1-0.6,0.1-1c0-0.3,0-0.7-0.1-1
		c-0.1-0.3-0.2-0.6-0.4-0.9c-0.2-0.2-0.4-0.4-0.7-0.6c-0.3-0.1-0.6-0.2-1-0.2c-0.4,0-0.7,0.1-1,0.2c-0.3,0.1-0.5,0.3-0.6,0.6
		c-0.1,0.2-0.3,0.5-0.3,0.9s-0.1,0.7-0.1,1C198.3,389.5,198.3,389.9,198.4,390.2z"/>
	<path fill="#FFFFFF" d="M210.8,382.8v3.7l0,0c0.2-0.4,0.5-0.7,0.9-0.9c0.4-0.2,0.9-0.2,1.4-0.2c0.5,0,1,0.1,1.4,0.3
		c0.4,0.2,0.7,0.5,1,0.8c0.3,0.3,0.5,0.7,0.6,1.2c0.1,0.4,0.2,0.9,0.2,1.4s0,1-0.2,1.4c-0.1,0.4-0.3,0.8-0.6,1.2
		c-0.3,0.3-0.6,0.6-1,0.8c-0.4,0.2-0.9,0.3-1.4,0.3c-0.2,0-0.4,0-0.6,0c-0.2,0-0.4-0.1-0.6-0.2c-0.2-0.1-0.4-0.2-0.6-0.3
		c-0.2-0.1-0.3-0.3-0.5-0.5l0,0v0.9h-1.2v-10L210.8,382.8L210.8,382.8z M215.1,388.1c-0.1-0.3-0.2-0.6-0.4-0.8
		c-0.2-0.2-0.4-0.4-0.7-0.6c-0.3-0.1-0.6-0.2-1-0.2c-0.4,0-0.7,0.1-1,0.2c-0.3,0.1-0.5,0.3-0.7,0.6c-0.2,0.2-0.3,0.5-0.4,0.9
		c-0.1,0.3-0.1,0.6-0.1,1c0,0.3,0,0.7,0.1,1c0.1,0.3,0.2,0.6,0.4,0.9c0.2,0.2,0.4,0.4,0.7,0.6c0.3,0.1,0.6,0.2,1,0.2
		c0.4,0,0.7-0.1,1-0.2c0.3-0.1,0.5-0.3,0.6-0.6c0.1-0.2,0.3-0.5,0.3-0.9c0-0.3,0.1-0.7,0.1-1C215.2,388.7,215.1,388.4,215.1,388.1z"
		/>
	<path fill="#FFFFFF" d="M220.7,393.7c-0.1,0.3-0.3,0.6-0.4,0.9c-0.1,0.2-0.3,0.4-0.4,0.6s-0.3,0.2-0.5,0.3c-0.2,0-0.4,0.1-0.7,0.1
		c-0.1,0-0.3,0-0.4,0c-0.1,0-0.3,0-0.4-0.1v-1.1c0.1,0,0.2,0.1,0.3,0.1s0.2,0,0.3,0c0.2,0,0.4,0,0.6-0.1c0.1-0.1,0.3-0.3,0.3-0.5
		l0.5-1.2l-2.8-7.2h1.3l2.1,5.9l0,0l2-5.9h1.2L220.7,393.7z"/>
	<path fill="#FFFFFF" d="M233.3,382.8c1,0,1.7,0.2,2.3,0.8c0.5,0.5,0.8,1.2,0.8,2.2c0,0.9-0.2,1.6-0.8,2.2c-0.5,0.5-1.3,0.8-2.3,0.7
		h-3v4.1H229v-10L233.3,382.8L233.3,382.8z M232.8,387.6c0.7,0,1.3-0.1,1.6-0.4c0.3-0.3,0.5-0.7,0.5-1.3c0-0.6-0.2-1-0.5-1.3
		c-0.3-0.3-0.9-0.4-1.6-0.4h-2.6v3.6L232.8,387.6L232.8,387.6z"/>
	<path fill="#FFFFFF" d="M244.2,392.7c-0.2,0.1-0.5,0.2-0.8,0.2c-0.3,0-0.5-0.1-0.7-0.2s-0.2-0.4-0.2-0.8c-0.3,0.4-0.7,0.6-1.1,0.8
		c-0.4,0.1-0.9,0.2-1.4,0.2c-0.3,0-0.6,0-0.9-0.1c-0.3,0-0.5-0.2-0.7-0.3c-0.2-0.1-0.4-0.3-0.5-0.6c-0.1-0.2-0.2-0.5-0.2-0.9
		s0-0.7,0.2-1c0.2-0.3,0.3-0.4,0.5-0.6c0.2-0.1,0.5-0.3,0.8-0.3s0.6-0.1,0.9-0.2c0.3,0,0.6-0.1,0.9-0.1c0.3,0,0.5-0.1,0.8-0.1
		c0.2,0,0.4-0.1,0.5-0.2c0.1-0.1,0.2-0.3,0.2-0.5s0-0.4-0.1-0.6c-0.1-0.1-0.2-0.3-0.4-0.3s-0.3-0.1-0.5-0.1s-0.4,0-0.5,0
		c-0.5,0-0.9,0.1-1.2,0.3c-0.3,0.2-0.5,0.5-0.5,1.1h-1.2c0-0.4,0.1-0.8,0.3-1.1c0.1-0.3,0.4-0.5,0.6-0.7c0.3-0.2,0.6-0.3,0.9-0.4
		c0.3-0.1,0.7-0.1,1.1-0.1c0.3,0,0.6,0,0.9,0s0.6,0.1,0.9,0.3c0.2,0.1,0.4,0.3,0.6,0.6c0.2,0.2,0.2,0.6,0.2,1v3.7c0,0.3,0,0.5,0,0.6
		c0,0.1,0.1,0.2,0.3,0.2c0.1,0,0.2,0,0.3,0L244.2,392.7L244.2,392.7z M242.2,389c-0.1,0.1-0.3,0.2-0.6,0.2c-0.2,0-0.5,0.1-0.7,0.1
		s-0.5,0-0.8,0.1c-0.2,0-0.5,0.1-0.7,0.2c-0.2,0.1-0.4,0.2-0.5,0.4c-0.1,0.1-0.2,0.4-0.2,0.7c0,0.2,0,0.3,0.1,0.5
		c0.1,0.1,0.2,0.2,0.3,0.3s0.2,0.1,0.4,0.2c0.1,0,0.3,0,0.5,0c0.4,0,0.7,0,1-0.1c0.3-0.1,0.5-0.2,0.7-0.4c0.2-0.1,0.3-0.3,0.4-0.5
		c0.1-0.2,0.1-0.3,0.1-0.5V389L242.2,389z"/>
	<path fill="#FFFFFF" d="M248,393.7c-0.1,0.3-0.3,0.6-0.4,0.9c-0.1,0.2-0.3,0.4-0.4,0.6s-0.3,0.2-0.5,0.3c-0.2,0-0.4,0.1-0.7,0.1
		c-0.1,0-0.3,0-0.4,0c-0.1,0-0.3,0-0.4-0.1v-1.1c0.1,0,0.2,0.1,0.3,0.1s0.2,0,0.3,0c0.2,0,0.4,0,0.6-0.1c0.1-0.1,0.3-0.3,0.3-0.5
		l0.5-1.2l-2.8-7.2h1.3l2.1,5.9l0,0l2-5.9h1.2L248,393.7z"/>
	<path fill="#FFFFFF" d="M256.8,382.8c1,0,1.7,0.2,2.3,0.8c0.5,0.5,0.8,1.2,0.8,2.2c0,0.9-0.2,1.6-0.8,2.2c-0.5,0.5-1.3,0.8-2.3,0.7
		h-3v4.1h-1.3v-10L256.8,382.8L256.8,382.8z M256.3,387.6c0.7,0,1.3-0.1,1.6-0.4s0.5-0.7,0.5-1.3c0-0.6-0.2-1-0.5-1.3
		c-0.3-0.3-0.9-0.4-1.6-0.4h-2.6v3.6L256.3,387.6L256.3,387.6z"/>
	<path fill="#FFFFFF" d="M267.6,392.7c-0.2,0.1-0.5,0.2-0.8,0.2c-0.3,0-0.5-0.1-0.7-0.2s-0.2-0.4-0.2-0.8c-0.3,0.4-0.7,0.6-1.1,0.8
		c-0.4,0.1-0.9,0.2-1.4,0.2c-0.3,0-0.6,0-0.9-0.1c-0.3,0-0.5-0.2-0.7-0.3c-0.2-0.1-0.4-0.3-0.5-0.6c-0.1-0.2-0.2-0.5-0.2-0.9
		s0-0.7,0.2-1c0.1-0.2,0.3-0.4,0.5-0.6c0.2-0.1,0.5-0.3,0.8-0.3c0.3,0,0.6-0.1,0.9-0.2c0.3,0,0.6-0.1,0.9-0.1c0.3,0,0.5-0.1,0.8-0.1
		c0.2,0,0.4-0.1,0.5-0.2c0.1-0.1,0.2-0.3,0.2-0.5s0-0.4-0.1-0.6c-0.1-0.1-0.2-0.3-0.4-0.3c-0.2,0-0.3-0.1-0.5-0.1s-0.4,0-0.5,0
		c-0.5,0-0.9,0.1-1.2,0.3c-0.3,0.2-0.5,0.5-0.5,1.1h-1.2c0-0.4,0.1-0.8,0.3-1.1c0.1-0.3,0.4-0.5,0.6-0.7c0.3-0.2,0.6-0.3,0.9-0.4
		c0.3-0.1,0.7-0.1,1.1-0.1c0.3,0,0.6,0,0.9,0c0.3,0,0.6,0.1,0.9,0.3c0.2,0.1,0.4,0.3,0.6,0.6c0.2,0.2,0.2,0.6,0.2,1v3.7
		c0,0.3,0,0.5,0,0.6c0,0.1,0.1,0.2,0.3,0.2c0.1,0,0.2,0,0.3,0L267.6,392.7L267.6,392.7z M265.7,389c-0.1,0.1-0.3,0.2-0.6,0.2
		c-0.3,0-0.5,0.1-0.7,0.1s-0.5,0-0.8,0.1c-0.2,0-0.5,0.1-0.7,0.2c-0.2,0.1-0.4,0.2-0.5,0.4c-0.1,0.1-0.2,0.4-0.2,0.7
		c0,0.2,0,0.3,0.1,0.5c0.1,0.1,0.2,0.2,0.3,0.3c0.1,0.1,0.2,0.1,0.4,0.2c0.1,0,0.3,0,0.5,0c0.4,0,0.7,0,1-0.1
		c0.3-0.1,0.5-0.2,0.7-0.4c0.2-0.1,0.3-0.3,0.4-0.5c0.1-0.2,0.1-0.3,0.1-0.5L265.7,389L265.7,389z"/>
	<path fill="#FFFFFF" d="M270,382.8v10h-1.2v-10H270z"/>
</g>
<g>
	<path fill="#FFFFFF" d="M239.5,490.8c-0.6,0.6-1.4,0.9-2.3,1c-2.8,0-3.4-2.4-3.4-5.6s0.6-5.6,3.4-5.6c0.9,0,1.7,0.4,2.3,1l1.5,2.7
		h0.1v-3.7H241l-1.4,0.8c-0.4-0.4-1.3-0.9-2.4-0.9c-2.7,0-5.9,2.1-5.9,5.8c0,3.7,3.1,5.8,5.9,5.8c1.1,0,2-0.6,2.4-0.9l1.5,0.8h0.1
		v-3.9h-0.1L239.5,490.8z"/>
	<path fill="#FFFFFF" d="M248.4,480.3c-2.6,0-5.7,2.3-5.7,5.8c0,3.5,3.1,5.8,5.7,5.8c2.6,0,5.7-2.3,5.7-5.8
		C254.1,482.6,251,480.3,248.4,480.3z M248.4,491.8c-2.7,0-3.3-2.2-3.3-5.6s0.6-5.6,3.3-5.6c2.7,0,3.3,2.3,3.3,5.6
		C251.7,489.6,251.1,491.8,248.4,491.8z"/>
	<polygon fill="#FFFFFF" points="263.3,480.7 264.7,480.7 264.7,487.9 264.7,487.9 259.7,480.5 255.4,480.5 255.4,480.7 
		256.8,480.7 256.8,491.6 255.4,491.6 255.4,491.8 258.5,491.8 258.5,491.6 257,491.6 257,480.7 257.1,480.7 264.9,492 264.9,492 
		264.9,480.7 266.4,480.7 266.4,480.5 263.3,480.5 	"/>
	<path fill="#FFFFFF" d="M272.4,480.5h-4.8v0.2h1.4v10.9h-1.4v0.2h4.8c2.4,0,6.5-1.1,6.5-5.7S274.9,480.5,272.4,480.5z M272.4,491.6
		h-1.2v-10.9h1.2c2.8,0,4.2,2,4.2,5.5C276.6,489.6,275.3,491.6,272.4,491.6z"/>
	<path fill="#FFFFFF" d="M288,491.6h-4.1v-5.8h2.1c0.7,0.6,1.5,2.2,1.5,2.2h0.1v-4.6h-0.1c0,0-0.8,1.6-1.5,2.2h-2.1v-5h3.7
		c1.1,0.7,2,2.8,2,2.8h0.1v-3h-9.4v0.2h1.4v10.9h-1.4v0.2h9.7v-3.8h-0.1C289.8,488,288.9,490.5,288,491.6z"/>
	<polygon fill="#FFFFFF" points="287.8,478.2 287.5,477.4 287.7,476.1 287.7,476 284.2,479 284.2,479 	"/>
	<polygon fill="#FFFFFF" points="310,480.5 306.9,480.5 306.9,480.7 308.3,480.7 308.3,487.9 308.3,487.9 303.3,480.5 299,480.5 
		299,480.7 300.4,480.7 300.4,491.6 299,491.6 299,491.8 302,491.8 302,491.6 300.6,491.6 300.6,480.7 300.7,480.7 308.5,492 
		308.5,492 308.5,480.7 310,480.7 	"/>
	<path fill="#FFFFFF" d="M315.9,480.2L315.9,480.2l-4.8,11.5h-1.3v0.2h2.9v-0.2h-1.4l1.8-4.3h3.5l1.9,4.3h-1.4v0.2h5.1v-0.2h-1.3
		L315.9,480.2z M313.1,487.2l1.7-4.1l1.7,4.1H313.1z"/>
	<path fill="#FFFFFF" d="M328.5,485.2l-2.1-0.8c-1.1-0.4-1.9-0.9-1.9-2c0-1.2,0.9-1.9,2.4-1.9c0.9,0,1.5,0.3,2,0.8l1.5,2.6h0.1v-3.6
		h-0.1l-1.5,0.7c-0.4-0.3-1-0.7-2.1-0.7c-2.1,0-3.4,1.4-3.5,3.4c0,1.6,1.1,2.4,2.3,2.9l2.2,0.8c1.2,0.4,1.9,0.9,1.9,2.1
		c0,1.1-0.7,2.3-2.6,2.3c-0.9,0-1.9-0.4-2.5-1l-1.7-2.9h-0.1l0.1,3.9h0.1l1.5-0.8c0.5,0.4,1.5,1,2.6,1c2.4,0,3.9-1.7,3.9-3.6
		C331.1,486.5,329.9,485.7,328.5,485.2z"/>
	<path fill="#FFFFFF" d="M332.2,480.5v3.5h0.1c0,0,1-2.2,2-3.3h1.9v10.9h-1.7v0.2h5.6v-0.2h-1.7v-10.9h1.9c0.9,1.1,2,3.3,2,3.3h0.1
		v-3.5H332.2z"/>
</g>
</svg>
