<?xml version="1.0" encoding="utf-8"?>
<!-- Generator: Adobe Illustrator 21.1.0, SVG Export Plug-In . SVG Version: 6.00 Build 0)  -->
<svg version="1.1" id="Layer_1" xmlns="http://www.w3.org/2000/svg" xmlns:xlink="http://www.w3.org/1999/xlink" x="0px" y="0px"
	 viewBox="0 0 400 283" style="enable-background:new 0 0 400 283;" xml:space="preserve">
<style type="text/css">
	.st0{fill:#88C443;stroke:#88C443;stroke-width:0.7058;stroke-miterlimit:10;}
	.st1{fill:#FFFFFF;}
	.st2{fill:#88C443;}
</style>
<polygon class="st0" points="246.6,212.1 124.5,282.5 2.4,212.1 2.4,71.1 124.5,0.5 246.6,71.1 "/>
<path class="st1" d="M79.5,171.9H69.4v-34.8c0-2.8-0.8-5-2.5-6.7s-3.8-2.5-6.7-2.5c-2.3,0-4.4,0.3-6.2,1c-1.6,0.7-3.1,1.7-4.2,3
	c-1.2,1.3-2,2.8-2.5,4.6c-0.5,1.7-0.8,3.8-0.8,6v29.1H36.2v-51.9h9.7v6c3.6-4.7,8.8-7,15.5-7c3.4,0,6.2,0.5,8.6,1.5s4.2,2.3,5.7,4
	s2.5,3.8,3,6.2c0.5,2.2,0.8,4.9,0.8,7.6V171.9L79.5,171.9z"/>
<path class="st1" d="M137.1,135.2c-1-3.3-2.7-6.2-4.8-8.6c-2.1-2.5-4.8-4.4-7.9-5.7c-3.1-1.3-6.7-2.1-10.9-2.1
	c-4,0-7.7,0.7-10.9,2.1c-3.1,1.3-5.9,3.3-7.9,5.7c-2.1,2.5-3.7,5.4-4.8,8.6s-1.5,6.9-1.5,10.6s0.5,7.4,1.5,10.6s2.7,6.2,4.8,8.6
	c2.1,2.5,4.8,4.4,8,5.7c3.1,1.3,6.7,2,10.9,2c4.1,0,7.7-0.7,10.9-2c3.1-1.3,5.7-3.3,7.9-5.7c2.1-2.5,3.7-5.2,4.8-8.6
	c1-3.2,1.5-6.7,1.5-10.6C138.7,142,138.2,138.4,137.1,135.2z M127,153.4c-0.8,2.2-1.8,4.1-3.1,5.6s-2.8,2.6-4.6,3.4
	c-3.5,1.5-7.7,1.5-11.3,0c-1.7-0.8-3.3-2-4.6-3.4c-1.3-1.5-2.3-3.3-3.1-5.6c-0.8-2.2-1.2-4.8-1.2-7.7s0.3-5.5,1.2-7.7
	c0.8-2.2,1.8-4.1,3.1-5.6s2.8-2.6,4.6-3.4c1.7-0.8,3.6-1.2,5.7-1.2c2,0,3.9,0.3,5.7,1.2c1.7,0.8,3.3,2,4.6,3.4
	c1.3,1.5,2.3,3.4,3.1,5.6s1.2,4.9,1.2,7.7C128.1,148.7,127.7,151.3,127,153.4z"/>
<path class="st1" d="M181.3,100.7v24c-0.5-0.7-1.3-1.3-2-1.7c-1.3-1-2.8-1.8-4.4-2.5c-1.5-0.5-3.1-1-4.7-1.3c-1.5-0.3-3-0.3-4.3-0.3
	c-3.9,0-7.4,0.7-10.5,2.1c-3,1.5-5.5,3.4-7.4,5.9s-3.4,5.4-4.4,8.6s-1.5,6.7-1.5,10.3c0,3.6,0.5,7.2,1.5,10.4c1,3.2,2.5,6.2,4.5,8.6
	c2,2.5,4.5,4.5,7.4,6c3,1.5,6.5,2.2,10.6,2.2c3.6,0,6.9-0.7,10-2c2.1-0.8,3.8-2.1,5.2-3.8v4.7h10.2v-71h-10.2V100.7z M180.8,152.4
	c-0.5,2.1-1.3,4-2.5,5.7c-1.2,1.6-2.6,3-4.4,4c-1.7,1-4,1.5-6.5,1.5s-4.6-0.5-6.4-1.5s-3.3-2.2-4.5-3.8c-1.2-1.6-2-3.5-2.6-5.7
	c-0.6-2.1-0.8-4.3-0.8-6.5c0-2.3,0.3-4.7,0.8-6.9c0.5-2.1,1.3-4.2,2.3-5.9c1-1.6,2.5-3,4.3-4c1.7-1,4-1.5,6.5-1.5
	c2.6,0,4.9,0.5,6.7,1.5c1.8,1,3.4,2.3,4.5,3.9c1.2,1.6,2,3.5,2.6,5.7c0.5,2.1,0.8,4.5,0.8,6.9C181.6,148,181.4,150.2,180.8,152.4z"
	/>
<path class="st1" d="M245.2,138.4c-0.7-3.4-2-6.7-3.8-9.6s-4.3-5.4-7.4-7.4c-3-2-6.9-2.9-11.6-2.9c-3.5,0-6.9,0.7-9.8,2
	s-5.6,3.2-7.7,5.7s-3.9,5.2-5.1,8.5c-1.2,3.2-1.7,6.9-1.7,10.8c0.1,3.9,0.7,7.5,1.7,10.8s2.6,6.2,4.7,8.6c2,2.5,4.7,4.3,7.7,5.7
	s6.7,2,10.8,2c5.9,0,10.8-1.5,14.7-4.4c3.9-2.9,6.4-7.4,7.6-13.2l0.2-1.2h-10.1l-0.2,0.8c-0.7,3-2,5.2-4,6.7s-4.7,2.2-7.9,2.2
	c-2.5,0-4.8-0.3-6.7-1.3s-3.4-2-4.6-3.3s-2-3-2.6-4.9c-0.5-1.5-0.7-3.2-0.8-5H246v-1C246.1,145.1,245.8,141.8,245.2,138.4z
	 M221.9,127.7c2,0,3.7,0.3,5.2,1s2.9,1.6,4.1,2.8s2,2.5,2.7,4.2c0.5,1.3,1,2.7,1,4.1h-26.5c0.2-1.5,0.5-2.8,1-4.1
	c0.7-1.5,1.5-3,2.7-4.2s2.5-2.1,4.1-2.8C218.1,128.1,220,127.7,221.9,127.7z"/>
<path class="st2" d="M286.3,101.7v24.9c-0.8-1-1.6-2-2.7-2.8c-1.3-1-2.8-1.8-4.3-2.5c-1.5-0.5-3-1-4.5-1.3s-2.9-0.3-4.2-0.3
	c-3.8,0-7.4,0.7-10.2,2.1c-2.9,1.3-5.4,3.3-7.4,5.7c-2,2.3-3.4,5.2-4.3,8.4c-1,3.2-1.5,6.7-1.5,10.2c0,3.6,0.5,7,1.5,10.2
	s2.5,6.1,4.4,8.5c2,2.5,4.4,4.4,7.4,5.9s6.4,2.1,10.3,2.1c3.5,0,6.9-0.5,9.8-1.8c2.5-1,4.5-2.7,5.9-4.9v5.7h9.2v-70.2L286.3,101.7
	L286.3,101.7z M271.8,164.6c-2.5,0-4.8-0.5-6.7-1.5c-1.8-1-3.4-2.3-4.7-4c-1.2-1.6-2.1-3.6-2.7-5.7c-0.5-2.1-0.8-4.4-0.8-6.7
	c0-2.5,0.3-4.8,0.8-7s1.3-4.3,2.5-6.1c1-1.7,2.6-3.1,4.5-4.2c1.8-1,4.1-1.5,6.9-1.5s5.1,0.5,7,1.5c2,1,3.5,2.3,4.7,4
	c1.1,1.7,2.1,3.6,2.6,5.9c0.5,2.2,0.8,4.6,0.8,6.9c0,2.2-0.3,4.5-0.8,6.7c-0.5,2.1-1.3,4.2-2.5,5.9c-1.2,1.6-2.7,3.1-4.6,4.1
	C276.7,164.1,274.4,164.6,271.8,164.6z"/>
<path class="st2" d="M350.1,164.2c-0.8,0.3-1.6,0.5-2.3,0.5c-1.3,0-1.6-0.5-1.7-1c-0.2-0.8-0.3-2.2-0.3-4.1v-25.7
	c0-2.9-0.5-5.5-1.7-7.4c-1.2-1.8-2.6-3.3-4.5-4.4c-1.8-1-3.9-1.6-6.2-2c-5-0.7-10.2-0.7-14.8,0.3c-2.5,0.5-4.9,1.5-6.9,2.9
	c-2,1.3-3.6,3.1-4.8,5.4c-1.2,2.1-1.8,4.9-2,8v0.5h9.2v-0.5c0.2-3.5,1.3-5.9,3.5-7c2.2-1.3,5.1-2,8.4-2c1.3,0,2.5,0.1,3.8,0.3
	c1.3,0.2,2.5,0.5,3.4,1c1,0.5,1.7,1.3,2.5,2.3c0.5,1,1,2.3,1,4.1c0,1.3-0.3,2.5-1.2,3.1c-0.8,0.8-2,1.3-3.4,1.7
	c-1.5,0.3-3.3,0.7-5.2,1c-2,0.2-4.2,0.5-6.4,1c-2.1,0.3-4.2,0.8-6.2,1.5c-2,0.5-3.9,1.5-5.6,2.6s-2.9,2.7-3.9,4.6s-1.5,4.3-1.5,7.2
	c0,2.5,0.5,4.8,1.3,6.7c0.8,1.8,2.1,3.3,3.7,4.5s3.4,2,5.5,2.5c2,0.5,4.2,0.8,6.4,0.8c3.5,0,6.9-0.5,9.9-1.8c2.7-1,5.1-2.7,7.2-5.1
	c0.2,2.2,0.8,3.9,2,5c1.3,1.3,3.1,2,5.4,2c2.5,0,4.7-0.5,6.2-1.3l0.2-0.1v-7.4L350.1,164.2z M321.7,164.6c-1.2,0-2.3-0.1-3.5-0.3
	c-1-0.2-2.1-0.7-2.9-1.2s-1.5-1.3-2-2.1c-0.5-0.8-0.8-2-0.8-3.2c0-2,0.3-3.5,1.3-4.6c0.8-1,2-2,3.4-2.6c1.5-0.5,3.1-1,4.9-1.3
	s3.7-0.5,5.6-0.8c1.8-0.2,3.6-0.5,5.2-0.8c1.3-0.3,2.5-0.7,3.4-1.3v7.5c0,1-0.3,2.2-0.8,3.5s-1.5,2.5-2.5,3.5c-1.2,1-2.7,2-4.6,2.7
	C326.6,164.3,324.4,164.6,321.7,164.6z"/>
<path class="st2" d="M388.7,120.7l-13.8,40.2l-14.3-40.2h-10.4l20,50.2l-3.3,8.2c-0.8,1.3-1.5,2.5-2.5,3.2s-2.2,1-3.7,1
	c-0.8,0-1.5-0.1-2.3-0.3c-0.8-0.2-1.5-0.5-2.3-0.8l-0.7-0.2v8.5l0.3,0.1c0.8,0.3,1.8,0.5,2.9,0.7c1,0.1,2,0.2,2.9,0.2
	c2,0,3.6-0.3,5-0.8c1.3-0.5,2.7-1.3,3.9-2.5c1.2-1,2.2-2.5,3.2-4.2c1-1.6,2-3.8,2.8-6.2l21.8-56.5l0.3-0.7L388.7,120.7L388.7,120.7
	L388.7,120.7L388.7,120.7z"/>
</svg>
