<?xml version="1.0" encoding="utf-8"?>
<!-- Generator: Adobe Illustrator 18.1.1, SVG Export Plug-In . SVG Version: 6.00 Build 0)  -->
<svg version="1.1" id="Layer_1" xmlns="http://www.w3.org/2000/svg" xmlns:xlink="http://www.w3.org/1999/xlink" x="0px" y="0px"
	 viewBox="0 0 841.9 595.3" enable-background="new 0 0 841.9 595.3" xml:space="preserve">
<polygon fill="#88C443" stroke="#88C443" stroke-miterlimit="10" points="514.2,440.9 269.5,582.1 24.8,440.9 24.8,158.3 269.5,17 
	514.2,158.3 "/>
<path fill="#FFFFFF" d="M184.6,360h-20.3v-69.7c0-5.7-1.6-10-5-13.4s-7.7-5-13.5-5c-4.7,0-8.8,0.7-12.4,2.1
	c-3.3,1.4-6.3,3.5-8.4,6.1c-2.4,2.6-4,5.7-5.1,9.2c-1.1,3.5-1.7,7.7-1.7,12v58.4H97.6V255.7h19.5v12c7.3-9.4,17.6-14.1,31-14.1
	c6.8,0,12.5,1,17.2,3c4.7,2,8.4,4.7,11.4,8.1c3,3.5,5,7.7,6.1,12.4c1.1,4.5,1.7,9.8,1.7,15.3V360L184.6,360z"/>
<path fill="#FFFFFF" d="M294.8,286.9c-2.1-6.7-5.5-12.4-9.7-17.2c-4.3-5-9.7-8.8-15.9-11.5s-13.5-4.3-21.8-4.3
	c-8.1,0-15.5,1.4-21.8,4.3c-6.3,2.7-11.8,6.7-15.9,11.5c-4.3,5-7.4,10.8-9.7,17.2c-2.2,6.4-3.1,13.8-3.1,21.2c0,7.4,1,14.8,3.1,21.2
	c2.1,6.4,5.5,12.4,9.7,17.2c4.3,5,9.7,8.8,16.1,11.5c6.3,2.7,13.5,4.1,21.8,4.1c8.2,0,15.5-1.4,21.8-4.1c6.3-2.7,11.5-6.7,15.9-11.5
	c4.3-5,7.4-10.5,9.7-17.2c2.1-6.4,3.1-13.5,3.1-21.2C298,300.5,297.1,293.3,294.8,286.9z M274.5,323.4c-1.6,4.5-3.7,8.2-6.3,11.2
	c-2.6,3-5.7,5.3-9.2,6.8c-7.1,3.1-15.5,3.1-22.6,0c-3.5-1.6-6.7-4-9.2-6.8c-2.7-3-4.7-6.7-6.3-11.2c-1.6-4.5-2.4-9.7-2.4-15.5
	c0-5.8,0.7-11,2.4-15.5c1.6-4.5,3.7-8.2,6.3-11.2c2.6-3,5.7-5.3,9.2-6.8c3.5-1.6,7.3-2.4,11.4-2.4c4,0,7.8,0.7,11.4,2.4
	c3.5,1.6,6.7,4,9.2,6.8c2.7,3,4.7,6.8,6.3,11.2c1.6,4.5,2.4,9.8,2.4,15.5C276.8,313.9,276,319,274.5,323.4z"/>
<path fill="#FFFFFF" d="M383.4,217.8v48.1c-1.1-1.4-2.6-2.6-4-3.5c-2.7-2.1-5.7-3.7-8.8-5.1c-3.1-1.1-6.3-2.1-9.4-2.7
	c-3.1-0.6-6.1-0.7-8.7-0.7c-7.8,0-14.9,1.4-21,4.3c-6.1,3-11,6.8-14.9,11.8c-3.8,5-6.8,10.8-8.8,17.2c-2,6.4-3,13.4-3,20.6
	c0,7.3,1,14.4,3,20.8c2,6.4,5.1,12.4,9.1,17.2c4,5,9.1,9.1,14.9,12c6.1,3,13.1,4.5,21.2,4.5c7.3,0,13.9-1.4,20-4
	c4.3-1.7,7.7-4.3,10.4-7.7v9.4h20.5V217.8H383.4L383.4,217.8z M382.4,321.3c-1,4.3-2.7,8.1-5.1,11.4c-2.4,3.3-5.3,6.1-8.8,8.1
	c-3.5,2-8.1,3-13.1,3c-5,0-9.2-1-12.9-3c-3.7-2-6.7-4.5-9.1-7.7c-2.4-3.3-4.1-7.1-5.3-11.4s-1.7-8.7-1.7-13.1
	c0-4.7,0.6-9.4,1.6-13.9c1-4.3,2.6-8.4,4.7-11.8c2.1-3.3,5.1-6.1,8.7-8.1c3.5-2,8.1-3,13.1-3c5.3,0,9.8,1,13.5,3
	c3.7,2,6.8,4.7,9.1,7.8c2.4,3.3,4.1,7.1,5.3,11.4c1.1,4.3,1.7,9.1,1.7,13.8C384,312.5,383.6,316.9,382.4,321.3z"/>
<path fill="#FFFFFF" d="M511.4,293.3c-1.4-6.8-4-13.4-7.7-19.2c-3.7-5.8-8.7-10.8-14.8-14.8c-6.1-4-13.9-5.8-23.2-5.8
	c-7.1,0-13.8,1.4-19.6,4.1c-5.8,2.7-11.2,6.4-15.5,11.4c-4.3,5-7.8,10.5-10.2,17.1c-2.4,6.4-3.5,13.8-3.5,21.6
	c0.2,7.8,1.4,15.1,3.5,21.6c2.1,6.7,5.3,12.5,9.4,17.2c4.1,5,9.4,8.7,15.5,11.4c6.1,2.7,13.4,4.1,21.6,4.1c11.8,0,21.6-3,29.4-8.8
	c7.8-5.8,12.9-14.9,15.3-26.5l0.4-2.4h-20.2l-0.4,1.6c-1.4,6.1-4,10.5-8.1,13.5c-4.1,3-9.4,4.5-15.9,4.5c-5.1,0-9.7-0.7-13.4-2.6
	c-3.7-1.9-6.8-4-9.2-6.7c-2.4-2.7-4.1-6.1-5.3-9.8c-1-3.1-1.4-6.4-1.6-10h74.9v-2C513.2,306.6,512.7,300.1,511.4,293.3z
	 M464.8,271.9c4,0,7.4,0.7,10.5,2.1c3.1,1.4,5.8,3.3,8.2,5.7c2.4,2.4,4.1,5.1,5.5,8.4c1.1,2.6,2,5.5,2.1,8.2h-53.2
	c0.4-3,1.1-5.7,2.1-8.2c1.4-3.1,3.1-6.1,5.5-8.4c2.4-2.4,5.1-4.3,8.2-5.7C457.2,272.7,460.9,271.9,464.8,271.9z"/>
<path fill="#88C443" d="M593.7,219.8v49.9c-1.6-2.1-3.3-4.1-5.5-5.7c-2.7-2-5.7-3.7-8.7-5c-3-1.1-6.1-2.1-9.1-2.7
	c-3-0.6-5.8-0.7-8.4-0.7c-7.7,0-14.8,1.4-20.5,4.3c-5.8,2.7-10.8,6.7-14.8,11.5c-4,4.7-6.8,10.4-8.7,16.9c-2,6.4-3,13.4-3,20.5
	c0,7.3,1,14.1,3,20.5c2,6.4,5,12.2,8.8,17.1c4,5,8.8,8.8,14.8,11.8c6,3,12.8,4.3,20.6,4.3c7.1,0,13.8-1.1,19.6-3.7
	c5.1-2.1,9.1-5.5,11.8-9.8v11.4h18.5V219.8H593.7z M564.7,345.8c-5.1,0-9.7-1-13.4-3c-3.7-2-6.8-4.7-9.4-8.1
	c-2.4-3.3-4.3-7.3-5.5-11.5c-1.1-4.3-1.7-8.8-1.7-13.4c0-5,0.6-9.7,1.6-14.1s2.7-8.7,5-12.2c2.1-3.5,5.3-6.3,9.1-8.4
	c3.7-2.1,8.2-3.1,13.8-3.1s10.2,1,14.1,3.1c4,2,7.1,4.7,9.4,8.1s4.3,7.3,5.3,11.8c1.1,4.5,1.7,9.2,1.7,13.9c0,4.5-0.6,9.1-1.6,13.5
	c-1,4.3-2.7,8.4-5.1,11.8c-2.4,3.3-5.5,6.3-9.2,8.2C574.5,344.8,570,345.8,564.7,345.8z"/>
<path fill="#88C443" d="M721.7,344.9c-1.7,0.6-3.3,1-4.7,1c-2.7,0-3.3-1.1-3.5-2c-0.4-1.7-0.6-4.5-0.6-8.2v-51.6
	c0-5.8-1.1-11-3.5-14.8c-2.4-3.7-5.3-6.7-9.1-8.8c-3.7-2-7.8-3.3-12.4-4.1c-10-1.4-20.5-1.4-29.6,0.7c-5.1,1.1-9.8,3.1-13.8,5.8
	c-4,2.7-7.3,6.3-9.7,10.8c-2.4,4.3-3.7,9.8-4,16.1v1h18.5v-1c0.4-7.1,2.7-11.8,7.1-14.1c4.5-2.6,10.2-4,16.9-4
	c2.6,0,5.1,0.2,7.7,0.6c2.6,0.4,5,1.1,6.8,2.1c2,1,3.5,2.7,5,4.7c1.1,2,2,4.7,2,8.2c0,2.7-0.7,5-2.4,6.3c-1.7,1.6-4.1,2.7-6.8,3.5
	c-3,0.7-6.7,1.4-10.5,2c-4.1,0.4-8.4,1.1-12.9,2c-4.3,0.7-8.4,1.7-12.5,3c-4.1,1.1-7.8,3-11.2,5.3s-5.8,5.5-7.8,9.2
	c-2,3.7-3,8.7-3,14.4c0,5.1,1,9.7,2.7,13.4c1.7,3.7,4.3,6.7,7.4,9.1c3.1,2.4,6.8,4,11,5.1c4.1,1,8.4,1.6,12.9,1.6
	c7.1,0,13.8-1.1,19.8-3.7c5.5-2.1,10.2-5.5,14.5-10.2c0.4,4.5,1.7,7.8,4,10c2.7,2.6,6.3,4,10.8,4c5.1,0,9.4-1,12.4-2.7l0.4-0.2
	v-14.8L721.7,344.9z M664.8,345.8c-2.4,0-4.7-0.2-7.1-0.7c-2.1-0.4-4.3-1.4-5.8-2.4c-1.6-1-3-2.6-4-4.3c-1-1.7-1.6-4-1.6-6.4
	c0-4,0.7-7.1,2.6-9.2c1.7-2.1,4.1-4,6.8-5.3c3-1.1,6.3-2.1,9.8-2.7c3.7-0.6,7.4-1.1,11.2-1.6c3.7-0.4,7.3-1,10.5-1.7
	c2.7-0.6,5.1-1.4,6.8-2.6v15.1c0,2.1-0.6,4.5-1.6,7.1c-1.1,2.6-3,5-5.1,7.1c-2.4,2.1-5.5,4-9.2,5.5
	C674.6,345.1,670.1,345.8,664.8,345.8z"/>
<path fill="#88C443" d="M798.9,257.8l-27.7,80.5l-28.6-80.5h-20.8l40.1,100.5l-6.7,16.5c-1.6,2.7-3.1,5-5.1,6.4
	c-2,1.4-4.5,2.1-7.4,2.1c-1.6,0-3.1-0.2-4.7-0.7c-1.6-0.5-3.1-1-4.7-1.6l-1.4-0.4v17.1l0.6,0.2c1.7,0.6,3.7,1.1,5.8,1.4
	c2,0.2,4,0.4,5.8,0.4c4,0,7.3-0.6,10-1.6c2.7-1,5.5-2.6,7.8-5c2.4-2.1,4.5-5.1,6.4-8.4c2-3.3,4-7.7,5.7-12.5L817.7,259l0.6-1.4
	h-19.5v0.2H798.9z"/>
<g>
	<path fill="#FFFFFF" d="M103.9,375c0.4,0,0.8,0,1.3,0s0.9,0,1.4,0.1c0.5,0,0.9,0.1,1.3,0.2c0.4,0.1,0.7,0.2,1,0.4
		c0.6,0.4,1.1,0.9,1.5,1.5c0.4,0.6,0.6,1.4,0.6,2.4c0,1-0.2,1.8-0.7,2.6c-0.5,0.7-1.2,1.3-2,1.6v0.1c1.1,0.2,2,0.8,2.6,1.6
		c0.6,0.8,0.9,1.8,0.9,2.9c0,0.7-0.1,1.3-0.4,2c-0.2,0.6-0.6,1.2-1.1,1.7c-0.5,0.5-1.1,0.9-1.8,1.2c-0.7,0.3-1.5,0.5-2.4,0.5h-9V375
		H103.9z M104.6,383c1.4,0,2.4-0.2,3-0.7s0.9-1.2,0.9-2.2c0-0.7-0.1-1.2-0.3-1.6c-0.2-0.4-0.5-0.7-0.9-0.9c-0.4-0.2-0.8-0.3-1.3-0.4
		c-0.5-0.1-1-0.1-1.5-0.1h-4.9v5.9H104.6z M105.8,391.5c1.1,0,1.9-0.3,2.6-0.9c0.6-0.6,0.9-1.4,0.9-2.4c0-0.6-0.1-1.1-0.3-1.5
		c-0.2-0.4-0.5-0.7-0.9-0.9c-0.4-0.2-0.8-0.4-1.3-0.5c-0.5-0.1-1-0.1-1.5-0.1h-5.6v6.4H105.8z"/>
	<path fill="#FFFFFF" d="M116.6,380.1v2.8h0.1c0.5-1.1,1.2-1.9,2-2.4c0.8-0.5,1.8-0.8,3-0.7v2.3c-0.9,0-1.6,0.1-2.3,0.4
		s-1.1,0.6-1.5,1.1c-0.4,0.5-0.7,1-0.8,1.7c-0.2,0.7-0.3,1.4-0.3,2.3v6h-2.2v-13.4H116.6z"/>
	<path fill="#FFFFFF" d="M122.5,384.1c0.3-0.9,0.7-1.6,1.2-2.2c0.6-0.6,1.2-1.1,2.1-1.5s1.8-0.5,2.8-0.5c1.1,0,2,0.2,2.8,0.5
		c0.8,0.4,1.5,0.9,2,1.5c0.6,0.6,1,1.4,1.2,2.2c0.3,0.9,0.4,1.8,0.4,2.8s-0.1,1.9-0.4,2.8c-0.3,0.8-0.7,1.6-1.2,2.2
		c-0.6,0.6-1.2,1.1-2,1.5c-0.8,0.4-1.7,0.5-2.8,0.5c-1.1,0-2-0.2-2.8-0.5s-1.5-0.8-2.1-1.5c-0.6-0.6-1-1.4-1.2-2.2
		c-0.3-0.8-0.4-1.8-0.4-2.8S122.2,384.9,122.5,384.1z M124.7,389c0.2,0.6,0.5,1.2,0.9,1.6c0.4,0.4,0.8,0.8,1.3,1
		c0.5,0.2,1.1,0.3,1.6,0.3c0.6,0,1.1-0.1,1.6-0.3c0.5-0.2,1-0.6,1.3-1s0.7-1,0.9-1.6c0.2-0.6,0.3-1.4,0.3-2.2c0-0.8-0.1-1.5-0.3-2.2
		c-0.2-0.6-0.5-1.2-0.9-1.6c-0.4-0.4-0.8-0.8-1.3-1s-1.1-0.3-1.6-0.3c-0.6,0-1.1,0.1-1.6,0.3s-1,0.6-1.3,1c-0.4,0.4-0.7,1-0.9,1.6
		c-0.2,0.6-0.3,1.4-0.3,2.2C124.4,387.7,124.5,388.4,124.7,389z"/>
	<path fill="#FFFFFF" d="M146.8,393.6v-2.1h-0.1c-0.5,0.8-1.1,1.4-1.8,1.8c-0.7,0.4-1.6,0.6-2.6,0.6c-0.9,0-1.6-0.1-2.2-0.4
		c-0.6-0.2-1.1-0.6-1.4-1c-0.4-0.4-0.6-0.9-0.8-1.5c-0.1-0.6-0.2-1.3-0.2-2v-8.8h2.2v9.1c0,0.8,0.2,1.5,0.7,2c0.5,0.5,1.2,0.7,2,0.7
		c0.7,0,1.3-0.1,1.8-0.3c0.5-0.2,0.9-0.5,1.2-0.9c0.3-0.4,0.6-0.8,0.7-1.3c0.2-0.5,0.2-1.1,0.2-1.7v-7.6h2.2v13.4H146.8z"/>
	<path fill="#FFFFFF" d="M162.3,397.4c-1,1.1-2.6,1.6-4.7,1.6c-0.6,0-1.3-0.1-1.9-0.2s-1.2-0.4-1.8-0.7c-0.5-0.3-1-0.7-1.3-1.2
		c-0.3-0.5-0.5-1.1-0.6-1.8h2.2c0,0.4,0.1,0.7,0.4,1s0.5,0.5,0.9,0.7c0.3,0.2,0.7,0.3,1.1,0.4c0.4,0.1,0.8,0.1,1.1,0.1
		c0.7,0,1.3-0.1,1.8-0.4c0.5-0.3,0.9-0.6,1.2-1c0.3-0.4,0.6-1,0.7-1.6c0.1-0.6,0.2-1.3,0.2-2.1v-0.9h-0.1c-0.4,0.8-1,1.4-1.7,1.8
		c-0.8,0.4-1.6,0.6-2.5,0.6c-1,0-1.9-0.2-2.6-0.5c-0.7-0.4-1.4-0.9-1.9-1.5c-0.5-0.6-0.9-1.3-1.1-2.2c-0.3-0.8-0.4-1.7-0.4-2.6
		c0-0.8,0.1-1.6,0.3-2.5c0.2-0.8,0.6-1.6,1-2.3c0.5-0.7,1.1-1.2,1.9-1.7c0.8-0.4,1.8-0.7,2.9-0.7c0.8,0,1.6,0.2,2.3,0.6
		c0.7,0.4,1.3,0.9,1.7,1.7h0v-1.9h2.1v12.3C163.8,394.6,163.3,396.3,162.3,397.4z M159.4,391.3c0.5-0.3,0.9-0.7,1.2-1.2
		s0.5-1.1,0.7-1.7c0.1-0.6,0.2-1.2,0.2-1.9c0-0.6-0.1-1.2-0.2-1.7c-0.1-0.6-0.4-1.1-0.7-1.5c-0.3-0.5-0.7-0.8-1.2-1.1
		c-0.5-0.3-1.1-0.4-1.8-0.4c-0.7,0-1.3,0.1-1.8,0.4c-0.5,0.3-0.9,0.6-1.2,1.1c-0.3,0.5-0.6,1-0.7,1.6c-0.1,0.6-0.2,1.2-0.2,1.8
		c0,0.6,0.1,1.2,0.2,1.8c0.1,0.6,0.3,1.2,0.6,1.7c0.3,0.5,0.7,0.9,1.2,1.2c0.5,0.3,1.1,0.5,1.8,0.5
		C158.3,391.8,158.9,391.6,159.4,391.3z"/>
	<path fill="#FFFFFF" d="M169.3,375v7.1h0.1c0.2-0.4,0.4-0.8,0.7-1.1c0.3-0.3,0.7-0.5,1.1-0.7c0.4-0.2,0.8-0.3,1.2-0.4
		c0.4-0.1,0.8-0.1,1.2-0.1c0.9,0,1.6,0.1,2.2,0.4c0.6,0.2,1.1,0.6,1.4,1c0.4,0.4,0.6,0.9,0.8,1.5s0.2,1.3,0.2,2v8.8H176v-9.1
		c0-0.8-0.2-1.5-0.7-2c-0.5-0.5-1.2-0.7-2-0.7c-0.7,0-1.3,0.1-1.8,0.3c-0.5,0.2-0.9,0.5-1.2,0.9c-0.3,0.4-0.6,0.8-0.7,1.3
		c-0.2,0.5-0.2,1.1-0.2,1.7v7.6h-2.2V375H169.3z"/>
	<path fill="#FFFFFF" d="M187.3,380.1v2h-2.7v8.3c0,0.3,0,0.5,0.1,0.6c0,0.2,0.1,0.3,0.2,0.4c0.1,0.1,0.3,0.1,0.5,0.2
		c0.2,0,0.5,0,0.8,0h1v2h-1.7c-0.6,0-1.1,0-1.5-0.1s-0.7-0.2-1-0.4c-0.3-0.2-0.4-0.5-0.6-0.9c-0.1-0.4-0.2-0.9-0.2-1.5v-8.6h-2.3v-2
		h2.3v-4h2.2v4H187.3z"/>
	<path fill="#FFFFFF" d="M202.7,380.1v2H200v8.3c0,0.3,0,0.5,0.1,0.6c0,0.2,0.1,0.3,0.2,0.4c0.1,0.1,0.3,0.1,0.5,0.2
		c0.2,0,0.5,0,0.8,0h1v2H201c-0.6,0-1.1,0-1.5-0.1s-0.7-0.2-1-0.4c-0.3-0.2-0.4-0.5-0.6-0.9c-0.1-0.4-0.2-0.9-0.2-1.5v-8.6h-2.3v-2
		h2.3v-4h2.2v4H202.7z"/>
	<path fill="#FFFFFF" d="M204.9,384.1c0.3-0.9,0.7-1.6,1.2-2.2c0.6-0.6,1.2-1.1,2.1-1.5s1.8-0.5,2.8-0.5c1.1,0,2,0.2,2.8,0.5
		c0.8,0.4,1.5,0.9,2,1.5c0.6,0.6,1,1.4,1.2,2.2c0.3,0.9,0.4,1.8,0.4,2.8s-0.1,1.9-0.4,2.8c-0.3,0.8-0.7,1.6-1.2,2.2
		c-0.6,0.6-1.2,1.1-2,1.5c-0.8,0.4-1.7,0.5-2.8,0.5c-1.1,0-2-0.2-2.8-0.5s-1.5-0.8-2.1-1.5c-0.6-0.6-1-1.4-1.2-2.2
		c-0.3-0.8-0.4-1.8-0.4-2.8S204.6,384.9,204.9,384.1z M207.1,389c0.2,0.6,0.5,1.2,0.9,1.6c0.4,0.4,0.8,0.8,1.3,1
		c0.5,0.2,1.1,0.3,1.6,0.3c0.6,0,1.1-0.1,1.6-0.3c0.5-0.2,1-0.6,1.3-1s0.7-1,0.9-1.6c0.2-0.6,0.3-1.4,0.3-2.2c0-0.8-0.1-1.5-0.3-2.2
		c-0.2-0.6-0.5-1.2-0.9-1.6c-0.4-0.4-0.8-0.8-1.3-1s-1.1-0.3-1.6-0.3c-0.6,0-1.1,0.1-1.6,0.3s-1,0.6-1.3,1c-0.4,0.4-0.7,1-0.9,1.6
		c-0.2,0.6-0.3,1.4-0.3,2.2C206.8,387.7,206.9,388.4,207.1,389z"/>
	<path fill="#FFFFFF" d="M232.6,395.4c-0.3,0.7-0.5,1.2-0.8,1.7c-0.3,0.5-0.5,0.8-0.8,1.1c-0.3,0.3-0.6,0.5-1,0.6
		c-0.4,0.1-0.8,0.2-1.3,0.2c-0.3,0-0.5,0-0.8-0.1c-0.3,0-0.5-0.1-0.8-0.2v-2c0.2,0.1,0.4,0.2,0.7,0.2c0.3,0.1,0.5,0.1,0.6,0.1
		c0.5,0,0.8-0.1,1.1-0.3c0.3-0.2,0.5-0.5,0.7-0.9l0.9-2.3l-5.3-13.4h2.5l3.9,11h0.1l3.8-11h2.3L232.6,395.4z"/>
	<path fill="#FFFFFF" d="M240,384.1c0.3-0.9,0.7-1.6,1.2-2.2c0.6-0.6,1.2-1.1,2.1-1.5s1.8-0.5,2.8-0.5c1.1,0,2,0.2,2.8,0.5
		c0.8,0.4,1.5,0.9,2,1.5c0.6,0.6,1,1.4,1.2,2.2c0.3,0.9,0.4,1.8,0.4,2.8s-0.1,1.9-0.4,2.8c-0.3,0.8-0.7,1.6-1.2,2.2
		c-0.6,0.6-1.2,1.1-2,1.5c-0.8,0.4-1.7,0.5-2.8,0.5c-1.1,0-2-0.2-2.8-0.5s-1.5-0.8-2.1-1.5c-0.6-0.6-1-1.4-1.2-2.2
		c-0.3-0.8-0.4-1.8-0.4-2.8S239.7,384.9,240,384.1z M242.3,389c0.2,0.6,0.5,1.2,0.9,1.6c0.4,0.4,0.8,0.8,1.3,1
		c0.5,0.2,1.1,0.3,1.6,0.3c0.6,0,1.1-0.1,1.6-0.3c0.5-0.2,1-0.6,1.3-1s0.7-1,0.9-1.6c0.2-0.6,0.3-1.4,0.3-2.2c0-0.8-0.1-1.5-0.3-2.2
		c-0.2-0.6-0.5-1.2-0.9-1.6c-0.4-0.4-0.8-0.8-1.3-1s-1.1-0.3-1.6-0.3c-0.6,0-1.1,0.1-1.6,0.3s-1,0.6-1.3,1c-0.4,0.4-0.7,1-0.9,1.6
		c-0.2,0.6-0.3,1.4-0.3,2.2C241.9,387.7,242,388.4,242.3,389z"/>
	<path fill="#FFFFFF" d="M264.3,393.6v-2.1h-0.1c-0.5,0.8-1.1,1.4-1.8,1.8c-0.7,0.4-1.6,0.6-2.6,0.6c-0.9,0-1.6-0.1-2.2-0.4
		c-0.6-0.2-1.1-0.6-1.4-1c-0.4-0.4-0.6-0.9-0.8-1.5c-0.1-0.6-0.2-1.3-0.2-2v-8.8h2.2v9.1c0,0.8,0.2,1.5,0.7,2c0.5,0.5,1.2,0.7,2,0.7
		c0.7,0,1.3-0.1,1.8-0.3c0.5-0.2,0.9-0.5,1.2-0.9c0.3-0.4,0.6-0.8,0.7-1.3c0.2-0.5,0.2-1.1,0.2-1.7v-7.6h2.2v13.4H264.3z"/>
	<path fill="#FFFFFF" d="M279.2,375v6.9h0.1c0.4-0.7,0.9-1.3,1.7-1.6c0.8-0.3,1.6-0.5,2.6-0.5c1,0,1.9,0.2,2.7,0.6
		c0.8,0.4,1.4,0.9,1.9,1.5c0.5,0.6,0.9,1.4,1.2,2.2c0.3,0.8,0.4,1.8,0.4,2.7s-0.1,1.9-0.4,2.7c-0.3,0.8-0.6,1.6-1.1,2.2
		s-1.2,1.1-1.9,1.5c-0.8,0.4-1.7,0.5-2.7,0.5c-0.3,0-0.7,0-1.1-0.1c-0.4-0.1-0.8-0.2-1.2-0.3c-0.4-0.2-0.8-0.4-1.1-0.6
		c-0.4-0.3-0.7-0.6-0.9-1h-0.1v1.8H277V375H279.2z M287.2,384.9c-0.2-0.6-0.4-1.1-0.8-1.6c-0.3-0.5-0.8-0.8-1.3-1.1
		s-1.1-0.4-1.9-0.4c-0.7,0-1.4,0.1-1.9,0.4c-0.5,0.3-0.9,0.7-1.3,1.2c-0.3,0.5-0.6,1-0.7,1.6c-0.1,0.6-0.2,1.2-0.2,1.8
		c0,0.7,0.1,1.3,0.2,1.9c0.2,0.6,0.4,1.2,0.7,1.6s0.8,0.8,1.3,1.1c0.5,0.3,1.2,0.4,1.9,0.4s1.4-0.1,1.9-0.4s0.9-0.7,1.2-1.2
		s0.5-1,0.7-1.7c0.1-0.6,0.2-1.3,0.2-1.9C287.4,386.1,287.3,385.5,287.2,384.9z"/>
	<path fill="#FFFFFF" d="M297.6,395.4c-0.3,0.7-0.5,1.2-0.8,1.7c-0.3,0.5-0.5,0.8-0.8,1.1c-0.3,0.3-0.6,0.5-1,0.6
		c-0.4,0.1-0.8,0.2-1.3,0.2c-0.3,0-0.5,0-0.8-0.1c-0.3,0-0.5-0.1-0.8-0.2v-2c0.2,0.1,0.4,0.2,0.7,0.2c0.3,0.1,0.5,0.1,0.6,0.1
		c0.5,0,0.8-0.1,1.1-0.3c0.3-0.2,0.5-0.5,0.7-0.9l0.9-2.3l-5.3-13.4h2.5l3.9,11h0.1l3.8-11h2.3L297.6,395.4z"/>
	<path fill="#FFFFFF" d="M305.8,383v-2.9h2.9v2.9H305.8z M308.7,390.7v2.9h-2.9v-2.9H308.7z"/>
</g>
<g>
	<g>
		<path fill="#FFFFFF" d="M135.6,413.1c-0.5,2.6-2.2,4.7-4.5,5.7c-0.8,0.5-1.4,1.4-1.4,2.5v21.5c0,1.1,0.7,2.1,1.7,2.6
			c2.3,1.2,4,3.5,4.3,6.3c4.6-5.1,7.4-11.9,7.4-19.3C143,425,140.2,418.2,135.6,413.1z"/>
		<path fill="#FFFFFF" d="M96.6,445.4L96.6,445.4c0.9-0.4,1.6-1.4,1.6-2.5v-9.8c0-1-0.5-2-1.4-2.5c-0.1,0-0.1-0.1-0.2-0.1
			c0,0,0,0,0,0h0c-2.5-1.3-4.3-4-4.3-7c0-4.4,3.6-7.9,7.9-7.9c4.4,0,7.9,3.6,7.9,8c0,1-0.2,1.9-0.6,2.9h0c-0.2,0.8,0,2,0.7,2.7
			l14.2,14.5h0c0.5,0.5,1.3,0.9,2.1,0.9c0.2,0,0.4,0,0.6-0.1c0.3-0.4,0.4-1,0.4-1.6v-21.5c0-1-0.5-2-1.3-2.5c-0.1,0-0.1-0.1-0.1-0.1
			c0,0,0,0,0,0h0c-2.5-1.4-4.3-4-4.3-7c0-2.7,1.4-5.1,3.5-6.6c-2.9-1-5.9-1.5-9.1-1.5c-15.9,0-28.8,12.9-28.8,28.8
			c0,7.2,2.6,13.8,7,18.9C92.7,448.8,94.3,446.6,96.6,445.4z"/>
		<path fill="#FFFFFF" d="M127.8,415.6c2.1,0,3.9-1.7,3.9-3.9c0-2.1-1.7-3.9-3.9-3.9c-2.1,0-3.9,1.7-3.9,3.9
			C123.9,413.8,125.7,415.6,127.8,415.6z"/>
		<path fill="#FFFFFF" d="M123.9,452.5c0,2.1,1.7,3.9,3.9,3.9c2.1,0,3.9-1.7,3.9-3.9c0-2.1-1.7-3.9-3.9-3.9
			C125.7,448.6,123.9,450.4,123.9,452.5z"/>
		<path fill="#FFFFFF" d="M119.9,452.5c0-1,0.2-1.9,0.5-2.8l0,0c0.1-0.3,0.2-0.7,0.2-1c0-0.8-0.3-1.6-0.9-2.1l0,0l-14.3-14.6
			c-1.3-1.3-3.2-1.1-3.2,1.1v9.8c0,1.1,0.7,2.1,1.6,2.6c2.6,1.3,4.3,4,4.3,7c0,3-1.7,5.6-4.1,7c3.2,1.2,6.6,1.9,10.2,1.9
			c3.5,0,6.9-0.6,10-1.8C121.6,458.2,119.9,455.5,119.9,452.5z"/>
		<path fill="#FFFFFF" d="M100.2,448.6c-2.1,0-3.9,1.7-3.9,3.9c0,2.1,1.7,3.9,3.9,3.9c2.1,0,3.9-1.7,3.9-3.9
			C104.1,450.4,102.4,448.6,100.2,448.6z"/>
		<path fill="#FFFFFF" d="M104.1,423.4c0-2.1-1.7-3.9-3.9-3.9c-2.1,0-3.9,1.7-3.9,3.9c0,2.1,1.7,3.9,3.9,3.9
			C102.4,427.3,104.1,425.5,104.1,423.4z"/>
	</g>
	<g>
		<path fill="#FFFFFF" d="M159.1,440.4v-9.3c0-3.8-1.4-5.8-4.1-5.8c-1.5,0-2.8,0.6-3.8,1.7c-1,1.1-1.5,2.5-1.5,4.2v9.2h-1.4v-16h1.4
			v2.9h0.1c1.2-2.2,3-3.3,5.5-3.3c1.7,0,3,0.6,4,1.7c0.9,1.1,1.4,2.8,1.4,4.9v9.7H159.1z"/>
		<path fill="#FFFFFF" d="M165.7,432.4c0,2.2,0.5,3.9,1.5,5.1c1,1.2,2.4,1.9,4.2,1.9c1.8,0,3.5-0.7,5.2-2v1.5
			c-1.7,1.2-3.5,1.8-5.5,1.8c-2.1,0-3.7-0.7-5-2.2c-1.3-1.5-1.9-3.6-1.9-6.3c0-2.3,0.7-4.3,2-5.9c1.3-1.6,3-2.4,5.2-2.4
			c2,0,3.5,0.7,4.6,2.1c1.1,1.4,1.6,3.3,1.6,5.7v0.6H165.7z M176,431.1c-0.1-1.8-0.5-3.3-1.3-4.3c-0.8-1-2-1.5-3.4-1.5
			c-1.5,0-2.7,0.5-3.7,1.5c-1,1-1.6,2.4-1.8,4.3H176z"/>
		<path fill="#FFFFFF" d="M191,440.4v-3.2H191c-0.5,1.1-1.2,2-2.2,2.6c-1,0.6-2.1,1-3.2,1c-1.5,0-2.7-0.4-3.6-1.3
			c-0.9-0.9-1.3-1.9-1.3-3.2c0-2.8,1.8-4.5,5.5-5.1l4.9-0.7c0-3.4-1.3-5.1-3.9-5.1c-1.8,0-3.5,0.7-5.1,2.1v-1.7
			c0.6-0.5,1.4-0.9,2.4-1.2c1-0.3,2-0.5,2.9-0.5c1.6,0,2.9,0.5,3.8,1.5c0.9,1,1.3,2.5,1.3,4.4v10.4H191z M186.6,432.4
			c-1.7,0.2-2.8,0.6-3.5,1.2c-0.7,0.5-1,1.4-1,2.6c0,0.9,0.3,1.7,0.9,2.3c0.6,0.6,1.5,0.9,2.6,0.9c1.5,0,2.8-0.6,3.8-1.7
			c1-1.1,1.5-2.6,1.5-4.4v-1.6L186.6,432.4z"/>
		<path fill="#FFFFFF" d="M204.8,425.9c-0.5-0.3-1-0.5-1.7-0.5c-1.3,0-2.3,0.6-3.2,1.9c-0.9,1.3-1.3,3.1-1.3,5.5v7.5h-1.4v-16h1.4
			v3.5h0.1c0.4-1.2,0.9-2.2,1.7-2.8c0.8-0.7,1.7-1,2.7-1c0.6,0,1.1,0.1,1.6,0.3V425.9z"/>
		<path fill="#FFFFFF" d="M209.7,419.4v9.1h8.3v1.4h-8.3v10.4h-1.5V418h10.4v1.4H209.7z"/>
		<path fill="#FFFFFF" d="M229.1,440.7c-2.3,0-4.2-0.8-5.5-2.3c-1.4-1.5-2-3.5-2-6c0-2.7,0.7-4.7,2.1-6.2c1.4-1.5,3.3-2.2,5.6-2.2
			c2.3,0,4.1,0.7,5.4,2.2c1.3,1.5,2,3.5,2,6.2c0,2.5-0.7,4.5-2,6C233.3,440,231.4,440.7,229.1,440.7z M229.2,425.3
			c-1.9,0-3.4,0.6-4.5,1.9c-1.1,1.3-1.7,3-1.7,5.3c0,2.1,0.5,3.8,1.6,5c1.1,1.3,2.6,1.9,4.5,1.9c1.9,0,3.4-0.6,4.4-1.9
			c1-1.2,1.6-3,1.6-5.2c0-2.3-0.5-4-1.6-5.2C232.5,425.9,231.1,425.3,229.2,425.3z"/>
		<path fill="#FFFFFF" d="M248.1,425.9c-0.5-0.3-1-0.5-1.7-0.5c-1.3,0-2.3,0.6-3.2,1.9c-0.9,1.3-1.3,3.1-1.3,5.5v7.5h-1.4v-16h1.4
			v3.5h0.1c0.4-1.2,0.9-2.2,1.7-2.8c0.8-0.7,1.7-1,2.7-1c0.6,0,1.1,0.1,1.6,0.3V425.9z"/>
		<path fill="#FFFFFF" d="M270.8,440.4v-9.6c0-2-0.3-3.4-0.9-4.2c-0.6-0.8-1.6-1.2-3-1.2c-1.3,0-2.3,0.5-3.3,1.6
			c-0.9,1.1-1.4,2.4-1.4,4.1v9.4h-1.4v-9.7c0-3.6-1.4-5.3-4.1-5.3c-1.3,0-2.4,0.5-3.2,1.6c-0.9,1.1-1.3,2.5-1.3,4.2v9.2h-1.4v-16
			h1.4v2.7h0.1c1.1-2,2.7-3,4.9-3c1.2,0,2.2,0.3,3,1c0.8,0.7,1.4,1.6,1.7,2.6c0.5-1.2,1.2-2.1,2.1-2.7c0.9-0.6,1.9-1,3-1
			c3.5,0,5.2,2.2,5.2,6.5v9.9H270.8z"/>
	</g>
</g>
<g>
	<path fill="#FFFFFF" d="M357.9,419.3c0.9,0.1,1.7,0.4,2.1,0.7c0.5,0.3,0.8,0.8,1,1.3c0.2,0.4,0.2,1,0.3,1.7c0,0.7,0,1.5,0,2.2v9.9
		L347.6,419h-5.9v0.3c0.3,0,0.6,0.1,1,0.2c0.3,0.1,0.7,0.2,0.9,0.4c0.3,0.2,0.5,0.5,0.8,0.8c0.2,0.4,0.4,0.8,0.4,1.4
		c0,0.6,0,1,0,1.4v1.1v1.1v1.4c0,1.3,0,2.5,0,3.7c0,1.1,0,2.1-0.1,3c0,1.1-0.1,2.1-0.2,2.9c-0.1,0.8-0.3,1.4-0.5,1.8
		c-0.3,0.4-0.6,0.7-1.1,0.9c-0.5,0.2-0.9,0.3-1.4,0.4v0.3h7.2v-0.3c-0.8-0.1-1.4-0.3-1.9-0.5c-0.5-0.2-0.8-0.6-1-1
		c-0.2-0.4-0.3-1-0.4-1.8c-0.1-0.8-0.1-1.7-0.1-2.7v-12.3c1.3,1.5,2.6,2.9,3.8,4.3c1.2,1.4,2.4,2.8,3.6,4.2c1.2,1.4,2.5,3,3.9,4.6
		c1.4,1.6,2.9,3.3,4.5,5.3c0.2,0.2,0.4,0.3,0.5,0.3c0.1,0,0.2,0,0.2-0.1c0,0,0.1-0.1,0.1-0.2v-1.9c0-0.7,0-1.4,0-2.1
		c0-0.7,0-1.4,0-2.1v-1.9c0-1.3,0-2.5,0-3.7c0-1.1,0.1-2.1,0.1-3c0-0.9,0.1-1.7,0.1-2.5c0-0.8,0.1-1.3,0.3-1.6c0.2-0.6,0.6-1,1-1.3
		c0.4-0.3,1-0.5,1.7-0.6V419h-7.2V419.3z"/>
	<path fill="#FFFFFF" d="M314.2,411.6c-0.2,0.2-0.4,0.4-0.6,0.6c-0.2,0.2-0.3,0.3-0.5,0.4c-0.1,0.1-0.3,0.2-0.3,0.2
		c-0.1,0-0.3-0.2-0.7-0.5c-0.4-0.3-1.1-0.6-1.9-1c-0.8-0.4-1.8-0.7-3.1-1c-1.2-0.3-2.7-0.4-4.3-0.4c-1.8,0-3.4,0.2-4.9,0.6
		c-1.4,0.4-2.7,0.9-3.9,1.5c-1.1,0.6-2.1,1.4-3,2.2c-0.8,0.8-1.5,1.7-2.1,2.7c-0.5,0.8-0.9,1.6-1.2,2.3c-0.3,0.8-0.6,1.5-0.7,2.2
		c-0.2,0.7-0.3,1.4-0.4,2c-0.1,0.6-0.1,1.2-0.1,1.7c0,2.2,0.4,4.2,1.1,6.1c0.8,1.8,1.9,3.4,3.3,4.7c1.4,1.3,3.2,2.3,5.2,3.1
		c2,0.7,4.3,1.1,6.9,1.1c1.5,0,2.9-0.1,4-0.4c1.2-0.3,2.2-0.6,3-0.9c0.8-0.3,1.4-0.7,1.9-0.9c0.4-0.3,0.7-0.4,0.7-0.4
		c0.1,0,0.4,0.2,0.7,0.6c0.4,0.4,0.7,0.8,1,1.3h0.5l0.1-9h-0.5c-0.2,1.2-0.7,2.3-1.4,3.4c-0.7,1.1-1.5,2.1-2.5,2.9
		c-1,0.8-2.1,1.5-3.3,2c-1.2,0.5-2.6,0.8-4,0.8c-1.8,0-3.4-0.4-4.9-1.1c-1.5-0.7-2.7-1.7-3.8-3c-1-1.3-1.8-2.8-2.4-4.5
		c-0.6-1.7-0.8-3.6-0.8-5.5c0-1.9,0.3-3.7,0.8-5.4c0.5-1.8,1.3-3.3,2.3-4.7c1-1.4,2.2-2.5,3.7-3.4c1.5-0.8,3.1-1.3,5-1.3
		c1.4,0,2.6,0.2,3.9,0.7c1.2,0.5,2.3,1.2,3.3,2c1,0.8,1.8,1.8,2.5,3c0.7,1.1,1.2,2.4,1.6,3.7l0.5,0v-9.1h-0.5
		C314.6,411.1,314.4,411.4,314.2,411.6z"/>
	<path fill="#FFFFFF" d="M337.1,421.9c-0.9-1-2-1.8-3.3-2.3c-1.3-0.6-2.8-0.9-4.5-0.9c-1.5,0-3,0.2-4.3,0.7s-2.6,1.2-3.6,2.1
		c-1,0.9-1.8,2.1-2.4,3.4c-0.6,1.3-0.9,2.8-0.9,4.5c0,1.6,0.3,3,0.9,4.3c0.6,1.3,1.4,2.4,2.3,3.4c1,0.9,2.1,1.7,3.5,2.2
		c1.3,0.5,2.7,0.8,4.2,0.8c1.5,0,2.9-0.3,4.2-0.8c1.3-0.5,2.5-1.3,3.5-2.2c1-1,1.8-2.1,2.4-3.4c0.6-1.3,0.9-2.8,0.9-4.3
		c0-1.4-0.2-2.7-0.7-4C338.7,424,338,422.9,337.1,421.9z M335.8,433.1c-0.3,1.2-0.8,2.3-1.4,3.3c-0.6,1-1.4,1.8-2.3,2.4
		c-0.9,0.6-2,0.9-3.2,0.9c-1.2,0-2.3-0.3-3.2-0.8c-0.9-0.6-1.7-1.3-2.3-2.2c-0.6-0.9-1.1-2-1.4-3.2c-0.3-1.2-0.5-2.5-0.5-3.8
		c0-1.3,0.1-2.5,0.4-3.8c0.3-1.2,0.7-2.3,1.3-3.3c0.6-1,1.4-1.8,2.3-2.4c0.9-0.6,2-0.9,3.3-0.9c1.2,0,2.3,0.3,3.2,0.9
		c0.9,0.6,1.7,1.4,2.3,2.4c0.6,1,1.1,2.1,1.4,3.3c0.3,1.2,0.5,2.4,0.5,3.6C336.3,430.6,336.1,431.8,335.8,433.1z"/>
	<path fill="#FFFFFF" d="M404.7,413.6v-0.1c-0.1-0.2-0.3-0.3-0.5-0.5c-0.2-0.2-0.6-0.3-1-0.3l-4,4.9l0.3,0.2L404.7,413.6z"/>
	<path fill="#FFFFFF" d="M388.2,423.2c-0.5-0.8-1.2-1.4-1.9-1.9c-0.7-0.5-1.5-1-2.3-1.3c-0.6-0.3-1.3-0.5-1.9-0.6
		c-0.6-0.1-1.3-0.2-1.9-0.3c-0.6-0.1-1.3-0.1-1.9-0.1h-1.9c-2.2,0-4,0-5.6,0c-1.5,0-2.7,0-3.5,0v0.3c0.5,0.1,1,0.2,1.4,0.3
		c0.4,0.1,0.8,0.4,1.1,0.7c0.1,0.1,0.2,0.3,0.3,0.6c0.1,0.2,0.1,0.5,0.1,0.8c0,0.3,0,0.6,0,1v1.1v5.7v1.7c0,0.6,0,1.2,0,1.7
		c0,0.6,0,1.1,0,1.5c0,0.5,0,0.8,0,1.1c0,0.3,0,0.6,0,1c0,0.3,0,0.6-0.1,0.9c0,0.3-0.1,0.6-0.1,0.8c-0.1,0.2-0.1,0.4-0.2,0.5
		c-0.2,0.3-0.6,0.5-1,0.7c-0.5,0.2-0.9,0.3-1.4,0.4v0.3h10.7c0.9,0,1.8-0.1,2.8-0.2c1-0.1,1.9-0.3,2.8-0.7c0.9-0.3,1.7-0.7,2.5-1.3
		c0.8-0.5,1.5-1.2,2.1-2c0.6-0.8,1.1-1.8,1.4-2.9c0.4-1.1,0.5-2.4,0.5-3.9c0-1.3-0.2-2.4-0.5-3.4C389.2,424.8,388.8,424,388.2,423.2
		z M384.9,435.7c-1,1.7-2.6,2.9-4.7,3.5c-0.4,0.1-0.9,0.2-1.4,0.3c-0.5,0-1,0.1-1.5,0.1c-0.5,0-1.1-0.1-1.7-0.2
		c-0.6-0.1-1.1-0.4-1.5-0.7c-0.1-0.1-0.2-0.3-0.3-0.5c-0.1-0.2-0.2-0.5-0.2-0.8c0-0.3-0.1-0.6-0.1-0.9c0-0.3,0-0.6,0-0.9
		c0-0.6,0-1.5,0-2.5v-3.4c0-2.3,0-4.3,0-6c0-1.7,0.1-3,0.2-3.9c0.1,0,0.3-0.1,0.5-0.1c0.2,0,0.5,0,0.7-0.1c0.3,0,0.5,0,0.8-0.1
		c0.3,0,0.5,0,0.8,0c0.7,0,1.3,0,1.7,0.1c0.5,0.1,0.9,0.1,1.3,0.2c1,0.2,1.9,0.6,2.8,1.2c0.9,0.6,1.6,1.3,2.2,2.2
		c0.6,0.9,1.1,1.8,1.5,2.9c0.4,1.1,0.5,2.2,0.5,3.3C386.4,431.8,385.9,434,384.9,435.7z"/>
	<path fill="#FFFFFF" d="M408.9,436.5c-0.5,0.6-0.9,1.1-1.4,1.5c-0.5,0.4-1,0.7-1.5,0.9c-0.5,0.2-1.1,0.4-1.7,0.5
		c-0.6,0.1-1.1,0.1-1.6,0.1s-0.9,0-1.3,0c-0.8,0-1.5-0.1-2.2-0.2c-0.7-0.1-1.1-0.3-1.3-0.6c-0.2-0.3-0.3-0.7-0.3-1.2
		c0-0.6-0.1-1.1-0.1-1.8c0-0.3,0-0.7,0-1.2c0-0.5,0-1,0-1.5v-1.8v-1.9h0.8h0.6c0.2,0,0.4,0,0.6,0c0.2,0,0.5,0,0.7,0
		c0.6,0,1.1,0.1,1.5,0.3c0.4,0.2,0.8,0.4,1.1,0.7c0.4,0.3,0.7,0.8,1,1.5c0.3,0.7,0.6,1.3,0.7,1.9h0.4v-9.2h-0.4
		c-0.1,0.5-0.2,1-0.4,1.5c-0.1,0.4-0.3,0.8-0.6,1.2c-0.2,0.3-0.6,0.6-0.9,0.8c-0.4,0.2-0.9,0.4-1.5,0.6c-0.3,0.1-0.6,0.1-1,0.1
		c-0.4,0-0.8,0.1-1.2,0.1c-0.4,0-0.7,0-1,0h-0.6v-1v-1.9c0-0.7,0-1.5,0-2.3c0-0.8,0-1.6,0-2.2c0-0.4,0-0.6,0.1-0.9
		c0-0.2,0-0.4,0.1-0.5c0-0.1,0-0.3,0.1-0.4c0-0.1,0-0.2,0.1-0.3c0.2-0.1,0.5-0.1,0.9-0.1c0.4,0,0.8,0,1.2,0c1.3,0,2.4,0.1,3.3,0.2
		c0.9,0.1,1.5,0.3,1.8,0.4c1.4,0.7,2.9,2,4.4,4l0.3-0.1l-2-4.8h-16.1v0.3c0.5,0.1,1,0.2,1.3,0.2c0.3,0.1,0.6,0.3,0.9,0.6
		c0.1,0.1,0.2,0.3,0.3,0.6c0.1,0.3,0.1,0.6,0.1,0.9c0,0.3,0.1,0.7,0.1,1.1c0,0.4,0,0.7,0,1.1v5.7v1.7c0,0.6,0,1.2,0,1.7
		c0,0.6,0,1.1,0,1.5c0,0.5,0,0.8,0,1.1c0,0.3,0,0.6,0,0.9c0,0.3-0.1,0.6-0.1,0.9c0,0.3-0.1,0.5-0.2,0.8c-0.1,0.2-0.1,0.4-0.2,0.5
		c-0.3,0.3-0.6,0.6-1,0.7c-0.4,0.2-0.9,0.3-1.4,0.4v0.3h17.9l1.5-5.6l-0.3-0.1C409.8,435.2,409.4,435.9,408.9,436.5z"/>
	<path fill="#FFFFFF" d="M509.4,418.7c-0.4,0.1-0.9,0.2-1.3,0.3c-0.4,0.1-0.9,0.1-1.6,0.2c-0.7,0-1.4,0-2,0c-0.6,0-1.1,0-1.7,0
		c-0.5,0-1.1,0-1.7,0h-1.9h-2h-1.7c-0.5,0-1.1,0-1.7,0c-0.6,0-1.2,0-2,0c-0.7,0-1.3-0.1-1.6-0.1c-0.4-0.1-0.8-0.1-1.2-0.2l-0.9,5.5
		l0.3,0.1c0.1-0.4,0.3-0.7,0.5-1.1c0.2-0.4,0.4-0.7,0.6-1c0.2-0.3,0.4-0.6,0.6-0.9c0.2-0.3,0.4-0.5,0.5-0.6c0.4-0.4,0.9-0.7,1.3-0.8
		c0.5-0.2,1.1-0.2,1.8-0.3c0.4,0,0.7,0,1,0c0.3,0,0.5,0,0.8,0h0.8h1.1v9.7v1.7c0,0.6,0,1.1,0,1.7c0,0.5,0,1,0,1.5c0,0.4,0,0.8,0,1.1
		c0,0.3,0,0.6,0,1c0,0.3,0,0.6-0.1,0.9s-0.1,0.5-0.1,0.8c0,0.2-0.1,0.4-0.2,0.5c-0.4,0.5-0.9,0.8-1.4,1c-0.5,0.1-1,0.2-1.5,0.3v0.3
		h9.5v-0.3c-0.4-0.1-0.9-0.2-1.4-0.4c-0.5-0.2-0.9-0.4-1.2-0.9c-0.2-0.2-0.2-0.6-0.3-1.1c0-0.5,0-1.1,0-1.6v-6.5v-2.2v-2.7
		c0-0.9,0-1.8,0-2.6c0-0.8,0-1.5,0-2h1.1h0.8c0.3,0,0.5,0,0.8,0c0.3,0,0.6,0,1,0c0.7,0,1.3,0.1,1.8,0.2c0.5,0.1,0.9,0.4,1.3,0.8
		c0.2,0.1,0.3,0.3,0.6,0.6c0.2,0.3,0.4,0.6,0.7,0.9c0.2,0.3,0.4,0.7,0.7,1.1c0.2,0.4,0.4,0.7,0.6,1.1l0.3-0.1L509.4,418.7z"/>
	<path fill="#FFFFFF" d="M486,430.8c-0.7-0.9-1.8-1.6-3.1-2.1c-0.4-0.1-0.7-0.3-1.1-0.4c-0.3-0.1-0.7-0.2-1-0.3
		c-0.3-0.1-0.7-0.2-1-0.3c-0.3-0.1-0.7-0.3-1.1-0.4c-1-0.4-1.8-0.9-2.4-1.5c-0.6-0.6-0.9-1.4-0.9-2.5c0-0.7,0.1-1.2,0.3-1.8
		c0.2-0.5,0.5-0.9,0.9-1.3c0.4-0.4,0.9-0.6,1.4-0.8c0.5-0.2,1.1-0.3,1.7-0.3c0.8,0,1.5,0.2,2.1,0.5c0.6,0.3,1.2,0.7,1.7,1.2
		c0.5,0.5,0.9,1.1,1.3,1.7c0.4,0.6,0.7,1.3,0.9,1.9h0.3V419h-0.3c-0.2,0.2-0.3,0.5-0.5,0.7c-0.2,0.2-0.3,0.4-0.4,0.4
		c0,0-0.1-0.1-0.3-0.2c-0.2-0.1-0.5-0.3-0.9-0.5c-0.4-0.2-0.9-0.3-1.5-0.5c-0.6-0.1-1.4-0.2-2.2-0.2c-0.9,0-1.8,0.1-2.7,0.4
		c-0.8,0.2-1.6,0.6-2.2,1.1c-0.6,0.5-1.2,1.1-1.5,1.9c-0.4,0.8-0.6,1.7-0.6,2.7c0,0.6,0.1,1.2,0.3,1.8c0.2,0.6,0.5,1.1,0.8,1.5
		c0.4,0.5,0.8,0.9,1.2,1.2c0.5,0.3,1,0.6,1.5,0.8c0.4,0.2,0.8,0.3,1.2,0.4c0.3,0.1,0.6,0.2,0.9,0.3c0.3,0.1,0.6,0.2,1,0.3
		c0.4,0.1,0.8,0.3,1.2,0.4c0.5,0.2,0.9,0.4,1.3,0.6c0.4,0.2,0.8,0.5,1.1,0.8c0.3,0.3,0.5,0.7,0.7,1.1c0.2,0.4,0.3,0.9,0.3,1.4
		c0,1.3-0.4,2.4-1.3,3.2c-0.9,0.8-2.1,1.2-3.5,1.2c-0.5,0-1-0.1-1.6-0.3c-0.5-0.2-1-0.4-1.3-0.5c-0.3-0.2-0.7-0.4-1-0.8
		c-0.4-0.3-0.7-0.7-1-1.2c-0.3-0.4-0.6-0.9-0.9-1.4c-0.3-0.5-0.5-1-0.7-1.5h-0.3l0.1,5.8h0.3c0.2-0.2,0.3-0.4,0.5-0.7
		s0.3-0.4,0.4-0.4c0.1,0,0.2,0.1,0.4,0.2c0.2,0.1,0.6,0.3,1,0.5c0.4,0.2,1,0.3,1.7,0.4c0.7,0.1,1.5,0.2,2.5,0.2
		c1.1,0,2.1-0.1,3.1-0.4c0.9-0.3,1.7-0.6,2.4-1.2c0.7-0.5,1.2-1.2,1.6-1.9h0c0.4-0.7,0.6-1.6,0.6-2.5
		C487.1,432.9,486.8,431.7,486,430.8z"/>
	<path fill="#FFFFFF" d="M469.8,438.8c-0.2-0.2-0.4-0.4-0.5-0.6c-0.1-0.2-0.2-0.3-0.3-0.4c-0.2-0.5-0.4-1-0.6-1.4
		c-0.2-0.4-0.4-0.9-0.6-1.5c-0.5-1.2-0.9-2.5-1.4-3.7c-0.5-1.3-0.9-2.6-1.4-3.9c-0.5-1.3-1-2.7-1.6-4.2c-0.5-1.4-1.1-3-1.7-4.6h-0.2
		c-0.1,0.1-0.2,0.3-0.3,0.5c-0.1,0.2-0.3,0.4-0.5,0.7c-0.2,0.2-0.5,0.5-0.7,0.7c-0.3,0.2-0.6,0.4-0.9,0.6l0.3,0.6
		c-0.5,1.1-1,2.3-1.5,3.5c-0.5,1.3-1.1,2.5-1.6,3.7c-0.5,1.2-1.1,2.4-1.6,3.6c-0.5,1.2-1,2.2-1.4,3.1c-0.4,1-0.8,1.7-1.1,2.2
		c-0.3,0.5-0.5,0.8-0.7,1c-0.1,0.1-0.3,0.2-0.6,0.4c-0.4,0.2-0.8,0.4-1.3,0.4v0.3h6.2v-0.3c-0.3,0-0.5-0.1-0.8-0.1
		c-0.3-0.1-0.5-0.1-0.8-0.2c-0.2-0.1-0.4-0.2-0.6-0.4c-0.2-0.2-0.2-0.4-0.2-0.6c0-0.4,0.2-1.2,0.6-2.2c0.3-0.7,0.5-1.4,0.8-2
		c0.3-0.7,0.6-1.4,0.8-2.1h7.8c0.3,0.8,0.6,1.5,0.8,2.2c0.3,0.7,0.5,1.3,0.7,1.9c0.2,0.6,0.3,1.1,0.5,1.5c0.1,0.4,0.2,0.7,0.2,0.9
		c0,0.3-0.1,0.5-0.3,0.7c-0.2,0.2-0.4,0.3-0.6,0.4c-0.2,0.1-0.5,0.2-0.7,0.2c-0.2,0-0.4,0.1-0.4,0.1v0.3h8.5v-0.4
		c-0.4,0-0.8-0.1-1.2-0.3C470.3,439.2,470,439,469.8,438.8z M455.7,431.3c0.5-1.1,0.9-2.2,1.3-3.2c0.4-1,0.8-1.9,1.1-2.6
		c0.3-0.8,0.6-1.4,0.8-2c0.2-0.5,0.4-0.9,0.5-1.2c0.2,0.4,0.4,1,0.7,1.6c0.3,0.7,0.6,1.4,0.9,2.2c0.3,0.8,0.7,1.7,1,2.5
		c0.3,0.9,0.7,1.8,1,2.6H455.7z"/>
	<path fill="#FFFFFF" d="M451.6,410.6h-10.1v0.4c1.3,0.2,2.3,0.5,3,1c0.7,0.5,1.2,1.1,1.5,1.9c0.2,0.6,0.3,1.4,0.4,2.4
		c0,1,0,2,0,3.1v13.9l-19.4-22.6h-8.3v0.4c0.4,0.1,0.9,0.1,1.4,0.3c0.5,0.1,0.9,0.3,1.3,0.6s0.8,0.7,1.1,1.2
		c0.3,0.5,0.5,1.1,0.6,1.9c0,0.8,0,1.5,0,2v1.5v1.5v2c0,1.8,0,3.5,0,5.1c0,1.6-0.1,3-0.1,4.1c-0.1,1.6-0.1,2.9-0.2,4
		c-0.1,1.1-0.4,2-0.7,2.5c-0.4,0.6-0.9,1-1.6,1.3c-0.7,0.3-1.3,0.4-2,0.5v0.4h10.1v-0.4c-1.1-0.1-2-0.4-2.6-0.7
		c-0.6-0.3-1.1-0.8-1.4-1.4c-0.3-0.5-0.4-1.4-0.5-2.5c-0.1-1.1-0.1-2.4-0.1-3.8V414c1.9,2.1,3.6,4.1,5.3,6c1.7,1.9,3.4,3.9,5.1,5.9
		c1.7,2,3.5,4.2,5.5,6.4c1.9,2.2,4,4.7,6.3,7.4c0.3,0.3,0.5,0.4,0.7,0.4c0.1,0,0.2,0,0.3-0.1c0.1-0.1,0.1-0.2,0.1-0.3v-2.7
		c0-1,0-2,0-3c0-1,0-2,0-2.9v-2.6c0-1.8,0-3.5,0.1-5.1c0-1.6,0.1-3,0.1-4.1c0.1-1.3,0.1-2.4,0.2-3.5c0.1-1.1,0.2-1.9,0.4-2.3
		c0.3-0.8,0.8-1.4,1.4-1.8c0.6-0.4,1.4-0.6,2.4-0.8V410.6z"/>
</g>
<g>
	<path fill="#FFFFFF" d="M111,221.3v2.2H99.8v6.4h10.4v2.2H99.8v6.9h11.2v2.2H97.2v-20H111z"/>
	<path fill="#FFFFFF" d="M116.1,226.8v2.3h0.1c1-1.8,2.6-2.6,4.7-2.6c1,0,1.7,0.1,2.4,0.4c0.6,0.3,1.1,0.6,1.5,1.1
		c0.4,0.5,0.7,1,0.8,1.7c0.2,0.6,0.2,1.4,0.2,2.1v9.5h-2.4v-9.8c0-0.9-0.3-1.6-0.8-2.1c-0.5-0.5-1.2-0.8-2.2-0.8
		c-0.7,0-1.4,0.1-1.9,0.3c-0.5,0.2-1,0.5-1.3,1s-0.6,0.9-0.8,1.4c-0.2,0.6-0.3,1.2-0.3,1.8v8.2h-2.4v-14.5H116.1z"/>
	<path fill="#FFFFFF" d="M140.3,245.4c-1.1,1.2-2.8,1.8-5.1,1.8c-0.7,0-1.4-0.1-2.1-0.2s-1.3-0.4-1.9-0.7c-0.6-0.3-1-0.8-1.4-1.3
		c-0.4-0.5-0.6-1.2-0.6-2h2.4c0,0.4,0.2,0.8,0.4,1.1c0.3,0.3,0.6,0.5,0.9,0.7c0.4,0.2,0.8,0.3,1.2,0.4s0.8,0.1,1.2,0.1
		c0.8,0,1.4-0.1,2-0.4c0.5-0.3,1-0.6,1.3-1.1c0.4-0.5,0.6-1,0.8-1.7c0.2-0.7,0.2-1.4,0.2-2.2v-1h-0.1c-0.4,0.9-1,1.6-1.9,2
		c-0.8,0.4-1.7,0.6-2.6,0.6c-1.1,0-2-0.2-2.8-0.6c-0.8-0.4-1.5-0.9-2-1.6s-0.9-1.4-1.2-2.3c-0.3-0.9-0.4-1.8-0.4-2.8
		c0-0.9,0.1-1.7,0.3-2.6c0.2-0.9,0.6-1.7,1.1-2.5s1.2-1.3,2.1-1.8c0.9-0.5,1.9-0.7,3.2-0.7c0.9,0,1.8,0.2,2.5,0.6
		c0.8,0.4,1.4,1,1.8,1.8h0v-2.1h2.2V240C142,242.4,141.4,244.2,140.3,245.4z M137.3,238.8c0.6-0.3,1-0.8,1.3-1.3
		c0.3-0.5,0.6-1.1,0.7-1.8c0.2-0.7,0.2-1.3,0.2-2c0-0.6-0.1-1.3-0.2-1.9c-0.1-0.6-0.4-1.2-0.7-1.7c-0.3-0.5-0.8-0.9-1.3-1.2
		c-0.5-0.3-1.2-0.4-1.9-0.4c-0.8,0-1.4,0.1-2,0.4c-0.5,0.3-1,0.7-1.3,1.2c-0.3,0.5-0.6,1-0.8,1.7c-0.2,0.6-0.2,1.3-0.2,2
		c0,0.7,0.1,1.3,0.2,2c0.1,0.7,0.4,1.2,0.7,1.8c0.3,0.5,0.7,1,1.3,1.3s1.2,0.5,2,0.5C136.1,239.3,136.7,239.2,137.3,238.8z"/>
	<path fill="#FFFFFF" d="M145.7,224.2v-2.9h2.4v2.9H145.7z M148.1,226.8v14.5h-2.4v-14.5H148.1z"/>
	<path fill="#FFFFFF" d="M154,226.8v2.3h0.1c1-1.8,2.6-2.6,4.7-2.6c1,0,1.7,0.1,2.4,0.4c0.6,0.3,1.1,0.6,1.5,1.1
		c0.4,0.5,0.7,1,0.8,1.7c0.2,0.6,0.2,1.4,0.2,2.1v9.5h-2.4v-9.8c0-0.9-0.3-1.6-0.8-2.1c-0.5-0.5-1.2-0.8-2.2-0.8
		c-0.7,0-1.4,0.1-1.9,0.3c-0.5,0.2-1,0.5-1.3,1s-0.6,0.9-0.8,1.4c-0.2,0.6-0.3,1.2-0.3,1.8v8.2h-2.4v-14.5H154z"/>
	<path fill="#FFFFFF" d="M177.6,240.3c-1.1,0.8-2.4,1.2-4.1,1.2c-1.2,0-2.2-0.2-3-0.6c-0.8-0.4-1.6-0.9-2.1-1.6
		c-0.6-0.7-1-1.5-1.3-2.4c-0.3-0.9-0.5-2-0.5-3.1c0-1.1,0.2-2.1,0.5-3c0.3-0.9,0.8-1.7,1.4-2.4s1.3-1.2,2.2-1.6
		c0.8-0.4,1.7-0.6,2.7-0.6c1.3,0,2.4,0.3,3.2,0.8c0.8,0.5,1.5,1.2,2,2c0.5,0.8,0.9,1.7,1.1,2.7s0.3,1.9,0.2,2.8h-10.8
		c0,0.6,0.1,1.2,0.2,1.8s0.4,1.1,0.8,1.5c0.4,0.4,0.8,0.8,1.4,1.1c0.6,0.3,1.3,0.4,2,0.4c1,0,1.8-0.2,2.5-0.7
		c0.6-0.5,1.1-1.2,1.3-2.1h2.4C179.4,238.3,178.7,239.5,177.6,240.3z M177,231.1c-0.2-0.5-0.5-0.9-0.9-1.3c-0.4-0.4-0.8-0.7-1.3-0.9
		c-0.5-0.2-1-0.3-1.6-0.3c-0.6,0-1.2,0.1-1.7,0.3c-0.5,0.2-0.9,0.5-1.3,0.9c-0.4,0.4-0.6,0.8-0.8,1.3c-0.2,0.5-0.3,1-0.4,1.6h8.3
		C177.3,232.1,177.2,231.6,177,231.1z"/>
	<path fill="#FFFFFF" d="M192.6,240.3c-1.1,0.8-2.4,1.2-4.1,1.2c-1.2,0-2.2-0.2-3-0.6c-0.8-0.4-1.6-0.9-2.1-1.6
		c-0.6-0.7-1-1.5-1.3-2.4c-0.3-0.9-0.5-2-0.5-3.1c0-1.1,0.2-2.1,0.5-3c0.3-0.9,0.8-1.7,1.4-2.4s1.3-1.2,2.2-1.6
		c0.8-0.4,1.7-0.6,2.7-0.6c1.3,0,2.4,0.3,3.2,0.8c0.8,0.5,1.5,1.2,2,2c0.5,0.8,0.9,1.7,1.1,2.7s0.3,1.9,0.2,2.8h-10.8
		c0,0.6,0.1,1.2,0.2,1.8s0.4,1.1,0.8,1.5c0.4,0.4,0.8,0.8,1.4,1.1c0.6,0.3,1.3,0.4,2,0.4c1,0,1.8-0.2,2.5-0.7
		c0.6-0.5,1.1-1.2,1.3-2.1h2.4C194.4,238.3,193.7,239.5,192.6,240.3z M192,231.1c-0.2-0.5-0.5-0.9-0.9-1.3c-0.4-0.4-0.8-0.7-1.3-0.9
		c-0.5-0.2-1-0.3-1.6-0.3c-0.6,0-1.2,0.1-1.7,0.3c-0.5,0.2-0.9,0.5-1.3,0.9c-0.4,0.4-0.6,0.8-0.8,1.3c-0.2,0.5-0.3,1-0.4,1.6h8.3
		C192.4,232.1,192.2,231.6,192,231.1z"/>
	<path fill="#FFFFFF" d="M199.6,226.8v3.1h0.1c0.6-1.2,1.3-2,2.1-2.6c0.8-0.6,1.9-0.8,3.2-0.8v2.5c-1,0-1.8,0.1-2.4,0.4
		c-0.7,0.3-1.2,0.6-1.6,1.1c-0.4,0.5-0.7,1.1-0.9,1.8c-0.2,0.7-0.3,1.5-0.3,2.5v6.4h-2.4v-14.5H199.6z"/>
	<path fill="#FFFFFF" d="M216.5,240.3c-1.1,0.8-2.4,1.2-4.1,1.2c-1.2,0-2.2-0.2-3-0.6c-0.8-0.4-1.6-0.9-2.1-1.6
		c-0.6-0.7-1-1.5-1.3-2.4c-0.3-0.9-0.5-2-0.5-3.1c0-1.1,0.2-2.1,0.5-3c0.3-0.9,0.8-1.7,1.4-2.4s1.3-1.2,2.2-1.6
		c0.8-0.4,1.7-0.6,2.7-0.6c1.3,0,2.4,0.3,3.2,0.8c0.8,0.5,1.5,1.2,2,2c0.5,0.8,0.9,1.7,1.1,2.7s0.3,1.9,0.2,2.8h-10.8
		c0,0.6,0.1,1.2,0.2,1.8s0.4,1.1,0.8,1.5c0.4,0.4,0.8,0.8,1.4,1.1c0.6,0.3,1.3,0.4,2,0.4c1,0,1.8-0.2,2.5-0.7
		c0.6-0.5,1.1-1.2,1.3-2.1h2.4C218.2,238.3,217.5,239.5,216.5,240.3z M215.9,231.1c-0.2-0.5-0.5-0.9-0.9-1.3
		c-0.4-0.4-0.8-0.7-1.3-0.9c-0.5-0.2-1-0.3-1.6-0.3c-0.6,0-1.2,0.1-1.7,0.3c-0.5,0.2-0.9,0.5-1.3,0.9c-0.4,0.4-0.6,0.8-0.8,1.3
		c-0.2,0.5-0.3,1-0.4,1.6h8.3C216.2,232.1,216.1,231.6,215.9,231.1z"/>
	<path fill="#FFFFFF" d="M231.8,241.3v-2h-0.1c-0.4,0.8-1,1.4-1.8,1.7c-0.8,0.4-1.8,0.5-2.8,0.5c-1.1,0-2.1-0.2-2.9-0.6
		c-0.8-0.4-1.5-1-2.1-1.7c-0.6-0.7-1-1.5-1.2-2.4c-0.3-0.9-0.4-1.9-0.4-2.9s0.1-2,0.4-2.9c0.3-0.9,0.7-1.7,1.2-2.4
		c0.6-0.7,1.2-1.2,2.1-1.6s1.8-0.6,2.9-0.6c0.4,0,0.8,0,1.2,0.1c0.4,0.1,0.9,0.2,1.3,0.4c0.4,0.2,0.8,0.4,1.2,0.7
		c0.4,0.3,0.7,0.6,1,1.1h0.1v-7.4h2.4v20H231.8z M223.3,236.1c0.2,0.6,0.4,1.2,0.8,1.7c0.4,0.5,0.8,0.9,1.4,1.2
		c0.6,0.3,1.2,0.4,2,0.4c0.8,0,1.5-0.2,2-0.5c0.6-0.3,1-0.7,1.4-1.2c0.4-0.5,0.6-1.1,0.8-1.8s0.2-1.3,0.2-2c0-0.7-0.1-1.4-0.3-2.1
		c-0.2-0.7-0.4-1.2-0.8-1.8c-0.4-0.5-0.8-0.9-1.4-1.2s-1.3-0.5-2.1-0.5c-0.8,0-1.5,0.2-2,0.5c-0.6,0.3-1,0.7-1.3,1.3
		c-0.3,0.5-0.6,1.1-0.7,1.8s-0.2,1.4-0.2,2.1C223,234.8,223.1,235.5,223.3,236.1z"/>
	<path fill="#FFFFFF" d="M248.1,221.3v7.5h0.1c0.4-0.8,1-1.4,1.8-1.8c0.8-0.4,1.8-0.5,2.8-0.5c1.1,0,2.1,0.2,2.9,0.6s1.5,1,2.1,1.7
		c0.6,0.7,1,1.5,1.2,2.4c0.3,0.9,0.4,1.9,0.4,2.9c0,1-0.1,2-0.4,2.9c-0.3,0.9-0.7,1.7-1.2,2.4c-0.6,0.7-1.2,1.2-2.1,1.6
		c-0.8,0.4-1.8,0.6-2.9,0.6c-0.4,0-0.8,0-1.2-0.1s-0.9-0.2-1.3-0.4c-0.4-0.2-0.8-0.4-1.2-0.7c-0.4-0.3-0.7-0.6-1-1.1h-0.1v1.9h-2.4
		v-20H248.1z M256.7,231.9c-0.2-0.6-0.4-1.2-0.8-1.7c-0.4-0.5-0.8-0.9-1.4-1.2c-0.6-0.3-1.2-0.4-2-0.4c-0.8,0-1.5,0.2-2,0.5
		c-0.6,0.3-1,0.7-1.4,1.2c-0.4,0.5-0.6,1.1-0.8,1.8c-0.2,0.7-0.2,1.3-0.2,2c0,0.7,0.1,1.4,0.3,2.1s0.4,1.2,0.8,1.8
		c0.4,0.5,0.8,0.9,1.4,1.2c0.6,0.3,1.3,0.5,2.1,0.5s1.5-0.2,2.1-0.5c0.6-0.3,1-0.7,1.3-1.3c0.3-0.5,0.6-1.1,0.7-1.8
		c0.1-0.7,0.2-1.4,0.2-2.1C256.9,233.2,256.8,232.6,256.7,231.9z"/>
	<path fill="#FFFFFF" d="M267.9,243.2c-0.3,0.7-0.6,1.3-0.8,1.8c-0.3,0.5-0.6,0.9-0.9,1.2s-0.7,0.5-1.1,0.7
		c-0.4,0.1-0.9,0.2-1.4,0.2c-0.3,0-0.6,0-0.8-0.1c-0.3,0-0.6-0.1-0.8-0.2v-2.2c0.2,0.1,0.4,0.2,0.7,0.2c0.3,0.1,0.5,0.1,0.7,0.1
		c0.5,0,0.9-0.1,1.2-0.3c0.3-0.2,0.6-0.6,0.7-1l1-2.4l-5.7-14.4h2.7l4.2,11.8h0.1l4.1-11.8h2.5L267.9,243.2z"/>
	<path fill="#FFFFFF" d="M293.2,221.3c2,0,3.5,0.5,4.6,1.6c1,1,1.6,2.5,1.6,4.4c0,1.9-0.5,3.3-1.6,4.4c-1,1-2.6,1.6-4.6,1.5h-6.1
		v8.2h-2.7v-20H293.2z M292.3,230.9c1.5,0,2.6-0.3,3.3-0.9c0.7-0.6,1-1.5,1-2.7c0-1.2-0.4-2.1-1-2.7c-0.7-0.6-1.8-0.9-3.3-0.9h-5.2
		v7.3H292.3z"/>
	<path fill="#FFFFFF" d="M315,241.2c-0.4,0.2-1,0.4-1.7,0.4c-0.6,0-1.1-0.2-1.5-0.5s-0.5-0.9-0.5-1.7c-0.7,0.8-1.4,1.3-2.3,1.7
		c-0.9,0.3-1.8,0.5-2.8,0.5c-0.7,0-1.3-0.1-1.9-0.2s-1.1-0.4-1.5-0.7c-0.4-0.3-0.8-0.7-1-1.2c-0.3-0.5-0.4-1.1-0.4-1.9
		c0-0.8,0.1-1.5,0.4-2c0.3-0.5,0.6-0.9,1.1-1.3c0.5-0.3,1-0.6,1.6-0.7s1.2-0.3,1.8-0.4c0.7-0.1,1.3-0.2,1.9-0.3
		c0.6-0.1,1.1-0.2,1.6-0.3c0.4-0.1,0.8-0.3,1.1-0.5c0.3-0.2,0.4-0.6,0.4-1c0-0.5-0.1-0.9-0.3-1.3c-0.2-0.3-0.4-0.6-0.8-0.7
		s-0.7-0.3-1-0.3c-0.4-0.1-0.8-0.1-1.1-0.1c-1,0-1.8,0.2-2.5,0.6c-0.7,0.4-1,1.1-1.1,2.2h-2.4c0-0.9,0.2-1.7,0.6-2.3
		c0.3-0.6,0.8-1.1,1.3-1.5c0.6-0.4,1.2-0.7,1.9-0.8c0.7-0.2,1.5-0.3,2.3-0.3c0.7,0,1.3,0,1.9,0.1s1.2,0.3,1.8,0.6
		c0.5,0.3,0.9,0.7,1.3,1.2s0.5,1.2,0.5,2v7.4c0,0.6,0,1,0.1,1.2s0.3,0.4,0.7,0.4c0.2,0,0.4,0,0.7-0.1V241.2z M311.1,233.8
		c-0.3,0.2-0.7,0.4-1.2,0.5c-0.5,0.1-1,0.2-1.5,0.3c-0.5,0.1-1.1,0.1-1.6,0.2c-0.5,0.1-1,0.2-1.5,0.4c-0.4,0.2-0.8,0.5-1,0.8
		c-0.3,0.3-0.4,0.8-0.4,1.4c0,0.4,0.1,0.7,0.2,1c0.2,0.3,0.4,0.5,0.6,0.7c0.3,0.2,0.5,0.3,0.9,0.4c0.3,0.1,0.7,0.1,1.1,0.1
		c0.8,0,1.5-0.1,2-0.3c0.6-0.2,1-0.5,1.4-0.8s0.6-0.7,0.8-1.1c0.2-0.4,0.3-0.7,0.3-1.1V233.8z"/>
	<path fill="#FFFFFF" d="M322.9,243.2c-0.3,0.7-0.6,1.3-0.8,1.8c-0.3,0.5-0.6,0.9-0.9,1.2s-0.7,0.5-1.1,0.7
		c-0.4,0.1-0.9,0.2-1.4,0.2c-0.3,0-0.6,0-0.8-0.1c-0.3,0-0.6-0.1-0.8-0.2v-2.2c0.2,0.1,0.4,0.2,0.7,0.2c0.3,0.1,0.5,0.1,0.7,0.1
		c0.5,0,0.9-0.1,1.2-0.3c0.3-0.2,0.6-0.6,0.7-1l1-2.4l-5.7-14.4h2.7l4.2,11.8h0.1l4.1-11.8h2.5L322.9,243.2z"/>
	<path fill="#FFFFFF" d="M340.4,221.3c2,0,3.5,0.5,4.6,1.6c1,1,1.6,2.5,1.6,4.4c0,1.9-0.5,3.3-1.6,4.4c-1,1-2.6,1.6-4.6,1.5h-6.1
		v8.2h-2.7v-20H340.4z M339.5,230.9c1.5,0,2.6-0.3,3.3-0.9c0.7-0.6,1-1.5,1-2.7c0-1.2-0.4-2.1-1-2.7c-0.7-0.6-1.8-0.9-3.3-0.9h-5.2
		v7.3H339.5z"/>
	<path fill="#FFFFFF" d="M362.2,241.2c-0.4,0.2-1,0.4-1.7,0.4c-0.6,0-1.1-0.2-1.5-0.5s-0.5-0.9-0.5-1.7c-0.7,0.8-1.4,1.3-2.3,1.7
		c-0.9,0.3-1.8,0.5-2.8,0.5c-0.7,0-1.3-0.1-1.9-0.2s-1.1-0.4-1.5-0.7c-0.4-0.3-0.8-0.7-1-1.2c-0.3-0.5-0.4-1.1-0.4-1.9
		c0-0.8,0.1-1.5,0.4-2c0.3-0.5,0.6-0.9,1.1-1.3c0.5-0.3,1-0.6,1.6-0.7s1.2-0.3,1.8-0.4c0.7-0.1,1.3-0.2,1.9-0.3
		c0.6-0.1,1.1-0.2,1.6-0.3c0.4-0.1,0.8-0.3,1.1-0.5c0.3-0.2,0.4-0.6,0.4-1c0-0.5-0.1-0.9-0.3-1.3c-0.2-0.3-0.4-0.6-0.8-0.7
		s-0.7-0.3-1-0.3c-0.4-0.1-0.8-0.1-1.1-0.1c-1,0-1.8,0.2-2.5,0.6c-0.7,0.4-1,1.1-1.1,2.2h-2.4c0-0.9,0.2-1.7,0.6-2.3
		c0.3-0.6,0.8-1.1,1.3-1.5c0.6-0.4,1.2-0.7,1.9-0.8c0.7-0.2,1.5-0.3,2.3-0.3c0.7,0,1.3,0,1.9,0.1s1.2,0.3,1.8,0.6
		c0.5,0.3,0.9,0.7,1.3,1.2s0.5,1.2,0.5,2v7.4c0,0.6,0,1,0.1,1.2s0.3,0.4,0.7,0.4c0.2,0,0.4,0,0.7-0.1V241.2z M358.3,233.8
		c-0.3,0.2-0.7,0.4-1.2,0.5c-0.5,0.1-1,0.2-1.5,0.3c-0.5,0.1-1.1,0.1-1.6,0.2c-0.5,0.1-1,0.2-1.5,0.4c-0.4,0.2-0.8,0.5-1,0.8
		c-0.3,0.3-0.4,0.8-0.4,1.4c0,0.4,0.1,0.7,0.2,1c0.2,0.3,0.4,0.5,0.6,0.7c0.3,0.2,0.5,0.3,0.9,0.4c0.3,0.1,0.7,0.1,1.1,0.1
		c0.8,0,1.5-0.1,2-0.3c0.6-0.2,1-0.5,1.4-0.8s0.6-0.7,0.8-1.1c0.2-0.4,0.3-0.7,0.3-1.1V233.8z"/>
	<path fill="#FFFFFF" d="M366.9,221.3v20h-2.4v-20H366.9z"/>
</g>
</svg>
