<?xml version="1.0" encoding="utf-8"?>
<!-- Generator: Adobe Illustrator 17.1.0, SVG Export Plug-In . SVG Version: 6.00 Build 0)  -->
<!DOCTYPE svg PUBLIC "-//W3C//DTD SVG 1.1//EN" "http://www.w3.org/Graphics/SVG/1.1/DTD/svg11.dtd">
<svg version="1.1" id="Layer_1" xmlns="http://www.w3.org/2000/svg" xmlns:xlink="http://www.w3.org/1999/xlink" x="0px" y="0px"
	 viewBox="254.3 223.1 130.9 32.4" enable-background="new 254.3 223.1 130.9 32.4" xml:space="preserve">
<g>
	<g>
		<path fill="#FFFFFF" d="M269.9,248.5h-3.7v-12.5c0-1-0.3-1.8-0.9-2.4c-0.6-0.6-1.4-0.9-2.4-0.9c-0.9,0-1.6,0.1-2.2,0.4
			c-0.6,0.3-1.1,0.6-1.5,1.1c-0.4,0.5-0.7,1-0.9,1.7c-0.2,0.6-0.3,1.4-0.3,2.1v10.5h-3.7v-18.7h3.5v2.1c1.3-1.7,3.2-2.6,5.6-2.6
			c1.2,0,2.3,0.2,3.1,0.5c0.8,0.3,1.5,0.8,2.1,1.5c0.5,0.6,0.9,1.4,1.1,2.2c0.2,0.8,0.3,1.8,0.3,2.7V248.5z"/>
		<path fill="#FFFFFF" d="M289.7,235.3c-0.4-1.2-1-2.2-1.7-3.1c-0.8-0.9-1.7-1.6-2.9-2.1c-1.1-0.5-2.4-0.8-3.9-0.8
			c-1.5,0-2.8,0.3-3.9,0.8c-1.1,0.5-2.1,1.2-2.9,2.1c-0.8,0.9-1.4,1.9-1.7,3.1c-0.4,1.2-0.6,2.5-0.6,3.8c0,1.4,0.2,2.6,0.6,3.8
			c0.4,1.2,1,2.2,1.7,3.1c0.8,0.9,1.7,1.6,2.9,2.1c1.1,0.5,2.4,0.7,3.9,0.7c1.5,0,2.8-0.3,3.9-0.7c1.1-0.5,2.1-1.2,2.9-2.1
			c0.8-0.9,1.4-1.9,1.7-3.1c0.4-1.2,0.6-2.4,0.6-3.8C290.3,237.8,290.1,236.5,289.7,235.3z M286,241.9c-0.3,0.8-0.7,1.5-1.1,2
			c-0.5,0.5-1,0.9-1.7,1.2c-1.3,0.6-2.8,0.6-4.1,0c-0.6-0.3-1.2-0.7-1.7-1.2c-0.5-0.5-0.9-1.2-1.1-2c-0.3-0.8-0.4-1.7-0.4-2.8
			c0-1,0.1-2,0.4-2.8c0.3-0.8,0.7-1.5,1.1-2c0.5-0.5,1-1,1.7-1.2c0.6-0.3,1.3-0.4,2-0.4c0.7,0,1.4,0.1,2,0.4
			c0.6,0.3,1.2,0.7,1.7,1.2c0.5,0.5,0.9,1.2,1.1,2c0.3,0.8,0.4,1.7,0.4,2.8C286.4,240.2,286.3,241.1,286,241.9z"/>
		<path fill="#FFFFFF" d="M305.6,222.9v8.6c-0.2-0.2-0.5-0.5-0.7-0.7c-0.5-0.4-1-0.7-1.6-0.9c-0.6-0.2-1.1-0.4-1.7-0.5
			c-0.6-0.1-1.1-0.1-1.6-0.1c-1.4,0-2.7,0.3-3.8,0.8c-1.1,0.5-2,1.2-2.7,2.1c-0.7,0.9-1.2,1.9-1.6,3.1c-0.3,1.2-0.5,2.4-0.5,3.7
			c0,1.3,0.2,2.6,0.5,3.7c0.4,1.2,0.9,2.2,1.6,3.1c0.7,0.9,1.6,1.6,2.7,2.2c1.1,0.5,2.4,0.8,3.8,0.8c1.3,0,2.5-0.2,3.6-0.7
			c0.8-0.3,1.4-0.8,1.9-1.4v1.7h3.7v-25.6H305.6z M305.5,241.5c-0.2,0.8-0.5,1.5-0.9,2.1c-0.4,0.6-0.9,1.1-1.6,1.4
			c-0.6,0.4-1.4,0.5-2.4,0.5c-0.9,0-1.7-0.2-2.3-0.5c-0.7-0.3-1.2-0.8-1.6-1.4c-0.4-0.6-0.7-1.3-1-2c-0.2-0.8-0.3-1.6-0.3-2.4
			c0-0.9,0.1-1.7,0.3-2.5c0.2-0.8,0.5-1.5,0.9-2.1c0.4-0.6,0.9-1.1,1.5-1.5c0.6-0.4,1.4-0.5,2.4-0.5c1,0,1.8,0.2,2.4,0.5
			c0.7,0.4,1.2,0.8,1.6,1.4c0.4,0.6,0.7,1.3,0.9,2.1c0.2,0.8,0.3,1.6,0.3,2.5C305.7,239.9,305.6,240.7,305.5,241.5z"/>
		<path fill="#FFFFFF" d="M328.6,236.5c-0.3-1.2-0.7-2.4-1.4-3.5c-0.7-1.1-1.6-1.9-2.7-2.6c-1.1-0.7-2.5-1-4.2-1
			c-1.3,0-2.5,0.2-3.5,0.7c-1.1,0.5-2,1.2-2.8,2c-0.8,0.9-1.4,1.9-1.8,3.1c-0.4,1.2-0.6,2.5-0.6,3.9c0,1.4,0.3,2.7,0.6,3.9
			c0.4,1.2,0.9,2.3,1.7,3.1c0.8,0.9,1.7,1.6,2.8,2c1.1,0.5,2.4,0.7,3.9,0.7c2.1,0,3.9-0.5,5.3-1.6c1.4-1.1,2.3-2.7,2.7-4.8l0.1-0.4
			h-3.6l-0.1,0.3c-0.2,1.1-0.7,1.9-1.4,2.4c-0.7,0.5-1.7,0.8-2.9,0.8c-0.9,0-1.7-0.2-2.4-0.5c-0.7-0.3-1.2-0.7-1.7-1.2
			c-0.4-0.5-0.7-1.1-0.9-1.8c-0.2-0.6-0.3-1.2-0.3-1.8h13.5l0-0.3C329,238.9,328.9,237.7,328.6,236.5z M320.3,232.6
			c0.7,0,1.3,0.1,1.9,0.4c0.6,0.2,1.1,0.6,1.5,1c0.4,0.4,0.8,0.9,1,1.5c0.2,0.5,0.3,1,0.4,1.5h-9.6c0.1-0.5,0.2-1,0.4-1.5
			c0.2-0.6,0.6-1.1,1-1.5c0.4-0.4,0.9-0.8,1.5-1C318.9,232.8,319.6,232.6,320.3,232.6z"/>
	</g>
	<g>
		<path fill="#FFFFFF" d="M344.8,223.1v9c-0.3-0.4-0.6-0.7-1-1c-0.5-0.4-1-0.7-1.6-0.9c-0.5-0.2-1.1-0.4-1.6-0.5
			c-0.5-0.1-1.1-0.1-1.5-0.1c-1.4,0-2.6,0.3-3.7,0.8c-1.1,0.5-1.9,1.2-2.6,2.1c-0.7,0.9-1.2,1.9-1.6,3c-0.3,1.1-0.5,2.4-0.5,3.7
			c0,1.3,0.2,2.5,0.5,3.7c0.4,1.2,0.9,2.2,1.6,3.1c0.7,0.9,1.6,1.6,2.6,2.1c1.1,0.5,2.3,0.8,3.7,0.8c1.3,0,2.5-0.2,3.5-0.7
			c0.9-0.4,1.6-1,2.1-1.8v2.1h3.3v-25.2H344.8z M339.5,245.7c-0.9,0-1.7-0.2-2.4-0.5c-0.7-0.4-1.2-0.8-1.7-1.4
			c-0.4-0.6-0.8-1.3-1-2.1c-0.2-0.8-0.3-1.6-0.3-2.4c0-0.9,0.1-1.7,0.3-2.5c0.2-0.8,0.5-1.5,0.9-2.2c0.4-0.6,0.9-1.1,1.6-1.5
			c0.7-0.4,1.5-0.6,2.5-0.6c1,0,1.8,0.2,2.5,0.6c0.7,0.4,1.3,0.9,1.7,1.5c0.4,0.6,0.8,1.3,1,2.1c0.2,0.8,0.3,1.7,0.3,2.5
			c0,0.8-0.1,1.6-0.3,2.4c-0.2,0.8-0.5,1.5-0.9,2.1c-0.4,0.6-1,1.1-1.6,1.5C341.3,245.5,340.5,245.7,339.5,245.7z"/>
		<path fill="#FFFFFF" d="M367.8,245.6c-0.3,0.1-0.6,0.2-0.8,0.2c-0.5,0-0.6-0.2-0.6-0.4c-0.1-0.3-0.1-0.8-0.1-1.5v-9.3
			c0-1.1-0.2-2-0.6-2.6c-0.4-0.7-1-1.2-1.6-1.6c-0.7-0.4-1.4-0.6-2.2-0.7c-1.8-0.3-3.7-0.2-5.3,0.1c-0.9,0.2-1.7,0.6-2.5,1.1
			c-0.7,0.5-1.3,1.1-1.7,1.9c-0.4,0.8-0.7,1.8-0.7,2.9l0,0.2h3.3l0-0.2c0.1-1.3,0.5-2.1,1.3-2.6c0.8-0.5,1.8-0.7,3-0.7
			c0.5,0,0.9,0,1.4,0.1c0.5,0.1,0.9,0.2,1.2,0.4c0.4,0.2,0.6,0.5,0.9,0.8c0.2,0.4,0.3,0.9,0.3,1.5c0,0.5-0.1,0.9-0.4,1.1
			c-0.3,0.3-0.7,0.5-1.3,0.6c-0.5,0.1-1.2,0.3-1.9,0.3c-0.7,0.1-1.5,0.2-2.3,0.4c-0.8,0.1-1.5,0.3-2.3,0.5c-0.7,0.2-1.4,0.5-2,0.9
			c-0.6,0.4-1.1,1-1.4,1.6c-0.4,0.7-0.5,1.5-0.5,2.6c0,0.9,0.2,1.7,0.5,2.4c0.3,0.7,0.8,1.2,1.3,1.6c0.6,0.4,1.2,0.7,2,0.9
			c0.7,0.2,1.5,0.3,2.3,0.3c1.3,0,2.5-0.2,3.6-0.7c1-0.4,1.9-1,2.6-1.8c0.1,0.8,0.3,1.4,0.7,1.8c0.5,0.5,1.1,0.7,1.9,0.7
			c0.9,0,1.7-0.2,2.2-0.5l0.1-0.1v-2.6L367.8,245.6z M357.5,245.7c-0.4,0-0.9,0-1.3-0.1c-0.4-0.1-0.8-0.2-1.1-0.4
			c-0.3-0.2-0.5-0.4-0.7-0.8c-0.2-0.3-0.3-0.7-0.3-1.1c0-0.7,0.2-1.3,0.5-1.6c0.3-0.4,0.7-0.7,1.2-0.9c0.5-0.2,1.1-0.4,1.8-0.5
			c0.7-0.1,1.3-0.2,2-0.3c0.7-0.1,1.3-0.2,1.9-0.3c0.5-0.1,0.9-0.3,1.2-0.5v2.7c0,0.4-0.1,0.8-0.3,1.3c-0.2,0.5-0.5,0.9-0.9,1.3
			c-0.4,0.4-1,0.7-1.6,1C359.3,245.6,358.5,245.7,357.5,245.7z"/>
		<path fill="#FFFFFF" d="M381.7,229.9l-5,14.5l-5.2-14.5h-3.7L375,248l-1.2,2.9c-0.3,0.5-0.6,0.9-0.9,1.2c-0.3,0.3-0.8,0.4-1.4,0.4
			c-0.3,0-0.6,0-0.8-0.1c-0.3-0.1-0.6-0.2-0.9-0.3l-0.2-0.1v3.1l0.1,0c0.3,0.1,0.7,0.2,1,0.3c0.4,0,0.7,0.1,1.1,0.1
			c0.7,0,1.3-0.1,1.8-0.3c0.5-0.2,1-0.5,1.4-0.9c0.4-0.4,0.8-0.9,1.1-1.5c0.3-0.6,0.7-1.4,1-2.3l7.8-20.4l0.1-0.2H381.7z"/>
	</g>
</g>
</svg>
