<?xml version="1.0" encoding="utf-8"?>
<!-- Generator: Adobe Illustrator 17.1.0, SVG Export Plug-In . SVG Version: 6.00 Build 0)  -->
<!DOCTYPE svg PUBLIC "-//W3C//DTD SVG 1.1//EN" "http://www.w3.org/Graphics/SVG/1.1/DTD/svg11.dtd">
<svg version="1.1" id="Layer_1" xmlns="http://www.w3.org/2000/svg" xmlns:xlink="http://www.w3.org/1999/xlink" x="0px" y="0px"
	 viewBox="0 0 640 480" enable-background="new 0 0 640 480" xml:space="preserve">
<polygon fill="#88C443" stroke="#88C443" stroke-miterlimit="10" points="395.2,341.8 197.9,455.7 0.6,341.8 0.6,113.9 197.9,0 
	395.2,113.9 "/>
<path fill="#FFFFFF" d="M129.4,276.6H113v-56.2c0-4.6-1.3-8.1-4-10.8c-2.7-2.7-6.2-4-10.9-4c-3.8,0-7.1,0.6-10,1.7
	c-2.7,1.1-5.1,2.8-6.8,4.9c-1.9,2.1-3.2,4.6-4.1,7.4c-0.9,2.8-1.4,6.2-1.4,9.7v47.1H59.3v-83.9H75v9.7c5.9-7.6,14.2-11.4,25-11.4
	c5.5,0,10.1,0.8,13.9,2.4c3.8,1.6,6.8,3.8,9.2,6.5c2.4,2.8,4,6.2,4.9,10c0.9,3.6,1.4,7.9,1.4,12.3L129.4,276.6L129.4,276.6z"/>
<path fill="#FFFFFF" d="M218.3,217.6c-1.7-5.4-4.4-10-7.8-13.9c-3.5-4-7.8-7.1-12.8-9.3s-10.9-3.5-17.6-3.5
	c-6.5,0-12.5,1.1-17.6,3.5c-5.1,2.2-9.5,5.4-12.8,9.3c-3.5,4-6,8.7-7.8,13.9s-2.5,11.1-2.5,17.1c0,6,0.8,11.9,2.5,17.1
	c1.7,5.2,4.4,10,7.8,13.9c3.5,4,7.8,7.1,13,9.3c5.1,2.2,10.9,3.3,17.6,3.3c6.6,0,12.5-1.1,17.6-3.3c5.1-2.2,9.3-5.4,12.8-9.3
	c3.5-4,6-8.5,7.8-13.9c1.7-5.2,2.5-10.9,2.5-17.1C220.9,228.6,220.1,222.8,218.3,217.6z M201.9,247.1c-1.3,3.6-3,6.6-5.1,9
	c-2.1,2.4-4.6,4.3-7.4,5.5c-5.7,2.5-12.5,2.5-18.2,0c-2.8-1.3-5.4-3.2-7.4-5.5c-2.2-2.4-3.8-5.4-5.1-9s-1.9-7.8-1.9-12.5
	s0.6-8.9,1.9-12.5c1.3-3.6,3-6.6,5.1-9c2.1-2.4,4.6-4.3,7.4-5.5c2.8-1.3,5.9-1.9,9.2-1.9c3.2,0,6.3,0.6,9.2,1.9
	c2.8,1.3,5.4,3.2,7.4,5.5c2.2,2.4,3.8,5.5,5.1,9c1.3,3.6,1.9,7.9,1.9,12.5C203.8,239.4,203.1,243.5,201.9,247.1z"/>
<path fill="#FFFFFF" d="M289.7,161.9v38.8c-0.9-1.1-2.1-2.1-3.2-2.8c-2.2-1.7-4.6-3-7.1-4.1c-2.5-0.9-5.1-1.7-7.6-2.2
	c-2.5-0.5-4.9-0.6-7-0.6c-6.3,0-12,1.1-16.9,3.5c-4.9,2.4-8.9,5.5-12,9.5s-5.5,8.7-7.1,13.9s-2.4,10.8-2.4,16.6
	c0,5.9,0.8,11.6,2.4,16.8s4.1,10,7.3,13.9c3.2,4,7.3,7.3,12,9.7c4.9,2.4,10.6,3.6,17.1,3.6c5.9,0,11.2-1.1,16.1-3.2
	c3.5-1.4,6.2-3.5,8.4-6.2v7.6h16.5V161.9L289.7,161.9L289.7,161.9z M288.9,245.4c-0.8,3.5-2.2,6.5-4.1,9.2c-1.9,2.7-4.3,4.9-7.1,6.5
	c-2.8,1.6-6.5,2.4-10.6,2.4c-4,0-7.4-0.8-10.4-2.4c-3-1.6-5.4-3.6-7.3-6.2c-1.9-2.7-3.3-5.7-4.3-9.2s-1.4-7-1.4-10.6
	c0-3.8,0.5-7.6,1.3-11.2c0.8-3.5,2.1-6.8,3.8-9.5c1.7-2.7,4.1-4.9,7-6.5c2.8-1.6,6.5-2.4,10.6-2.4c4.3,0,7.9,0.8,10.9,2.4
	c3,1.6,5.5,3.8,7.3,6.3c1.9,2.7,3.3,5.7,4.3,9.2c0.9,3.5,1.4,7.3,1.4,11.1C290.2,238.3,289.9,241.8,288.9,245.4z"/>
<path fill="#FFFFFF" d="M392.9,222.8c-1.1-5.5-3.2-10.8-6.2-15.5c-3-4.7-7-8.7-11.9-11.9c-4.9-3.2-11.2-4.7-18.7-4.7
	c-5.7,0-11.1,1.1-15.8,3.3c-4.7,2.2-9,5.2-12.5,9.2c-3.5,4-6.3,8.5-8.2,13.8c-1.9,5.2-2.8,11.1-2.8,17.4c0.2,6.3,1.1,12.2,2.8,17.4
	c1.7,5.4,4.3,10.1,7.6,13.9c3.3,4,7.6,7,12.5,9.2c4.9,2.2,10.8,3.3,17.4,3.3c9.5,0,17.4-2.4,23.7-7.1c6.3-4.7,10.4-12,12.3-21.4
	l0.3-1.9h-16.3l-0.3,1.3c-1.1,4.9-3.2,8.5-6.5,10.9s-7.6,3.6-12.8,3.6c-4.1,0-7.8-0.6-10.8-2.1s-5.5-3.2-7.4-5.4
	c-1.9-2.2-3.3-4.9-4.3-7.9c-0.8-2.5-1.1-5.2-1.3-8.1h60.4v-1.6C394.4,233.5,394,228.3,392.9,222.8z M355.4,205.5
	c3.2,0,6,0.6,8.5,1.7c2.5,1.1,4.7,2.7,6.6,4.6c1.9,1.9,3.3,4.1,4.4,6.8c0.9,2.1,1.6,4.4,1.7,6.6h-42.9c0.3-2.4,0.9-4.6,1.7-6.6
	c1.1-2.5,2.5-4.9,4.4-6.8c1.9-1.9,4.1-3.5,6.6-4.6C349.2,206.2,352.2,205.5,355.4,205.5z"/>
<path fill="#88C443" d="M459.3,163.5v40.2c-1.3-1.7-2.7-3.3-4.4-4.6c-2.2-1.6-4.6-3-7-4c-2.4-0.9-4.9-1.7-7.3-2.2
	c-2.4-0.5-4.7-0.6-6.8-0.6c-6.2,0-11.9,1.1-16.5,3.5c-4.7,2.2-8.7,5.4-11.9,9.3c-3.2,3.8-5.5,8.4-7,13.6c-1.6,5.2-2.4,10.8-2.4,16.5
	c0,5.9,0.8,11.4,2.4,16.5c1.6,5.2,4,9.8,7.1,13.8c3.2,4,7.1,7.1,11.9,9.5s10.3,3.5,16.6,3.5c5.7,0,11.1-0.9,15.8-3
	c4.1-1.7,7.3-4.4,9.5-7.9v9.2h14.9V163.5H459.3z M435.9,265.1c-4.1,0-7.8-0.8-10.8-2.4c-3-1.6-5.5-3.8-7.6-6.5
	c-1.9-2.7-3.5-5.9-4.4-9.3c-0.9-3.5-1.4-7.1-1.4-10.8c0-4,0.5-7.8,1.3-11.4c0.8-3.6,2.2-7,4-9.8c1.7-2.8,4.3-5.1,7.3-6.8
	c3-1.7,6.6-2.5,11.1-2.5s8.2,0.8,11.4,2.5c3.2,1.6,5.7,3.8,7.6,6.5c1.9,2.7,3.5,5.9,4.3,9.5c0.9,3.6,1.4,7.4,1.4,11.2
	c0,3.6-0.5,7.3-1.3,10.9c-0.8,3.5-2.2,6.8-4.1,9.5c-1.9,2.7-4.4,5.1-7.4,6.6C443.8,264.3,440.2,265.1,435.9,265.1z"/>
<path fill="#88C443" d="M562.5,264.4c-1.4,0.5-2.7,0.8-3.8,0.8c-2.2,0-2.7-0.9-2.8-1.6c-0.3-1.4-0.5-3.6-0.5-6.6v-41.6
	c0-4.7-0.9-8.9-2.8-11.9c-1.9-3-4.3-5.4-7.3-7.1c-3-1.6-6.3-2.7-10-3.3c-8.1-1.1-16.5-1.1-23.9,0.6c-4.1,0.9-7.9,2.5-11.1,4.7
	s-5.9,5.1-7.8,8.7c-1.9,3.5-3,7.9-3.2,13v0.8h14.9v-0.8c0.3-5.7,2.2-9.5,5.7-11.4c3.6-2.1,8.2-3.2,13.6-3.2c2.1,0,4.1,0.2,6.2,0.5
	s4,0.9,5.5,1.7c1.6,0.8,2.8,2.2,4,3.8c0.9,1.6,1.6,3.8,1.6,6.6c0,2.2-0.6,4-1.9,5.1c-1.4,1.3-3.3,2.2-5.5,2.8
	c-2.4,0.6-5.4,1.1-8.5,1.6c-3.3,0.3-6.8,0.9-10.4,1.6c-3.5,0.6-6.8,1.4-10.1,2.4c-3.3,0.9-6.3,2.4-9,4.3s-4.7,4.4-6.3,7.4
	c-1.6,3-2.4,7-2.4,11.6c0,4.1,0.8,7.8,2.2,10.8c1.4,3,3.5,5.4,6,7.3c2.5,1.9,5.5,3.2,8.9,4.1c3.3,0.8,6.8,1.3,10.4,1.3
	c5.7,0,11.1-0.9,16-3c4.4-1.7,8.2-4.4,11.7-8.2c0.3,3.6,1.4,6.3,3.2,8.1c2.2,2.1,5.1,3.2,8.7,3.2c4.1,0,7.6-0.8,10-2.2l0.3-0.2
	v-11.9L562.5,264.4z M516.6,265.1c-1.9,0-3.8-0.2-5.7-0.6c-1.7-0.3-3.5-1.1-4.7-1.9c-1.3-0.8-2.4-2.1-3.2-3.5
	c-0.8-1.4-1.3-3.2-1.3-5.2c0-3.2,0.6-5.7,2.1-7.4c1.4-1.7,3.3-3.2,5.5-4.3c2.4-0.9,5.1-1.7,7.9-2.2c3-0.5,6-0.9,9-1.3
	c3-0.3,5.9-0.8,8.5-1.4c2.2-0.5,4.1-1.1,5.5-2.1v12.2c0,1.7-0.5,3.6-1.3,5.7c-0.9,2.1-2.4,4-4.1,5.7c-1.9,1.7-4.4,3.2-7.4,4.4
	C524.5,264.6,520.9,265.1,516.6,265.1z"/>
<path fill="#88C443" d="M624.8,194.2l-22.3,64.9l-23.1-64.9h-16.8l32.3,81l-5.4,13.3c-1.3,2.2-2.5,4-4.1,5.2c-1.6,1.1-3.6,1.7-6,1.7
	c-1.3,0-2.5-0.2-3.8-0.6s-2.5-0.8-3.8-1.3l-1.1-0.3V307l0.5,0.2c1.4,0.5,3,0.9,4.7,1.1c1.6,0.2,3.2,0.3,4.7,0.3
	c3.2,0,5.9-0.5,8.1-1.3c2.2-0.8,4.4-2.1,6.3-4c1.9-1.7,3.6-4.1,5.2-6.8c1.6-2.7,3.2-6.2,4.6-10.1l35.1-91.3l0.5-1.1h-15.7V194.2z"/>
<g>
	<path fill="#FFFFFF" d="M59.3,116.6v-8.1h6.6v8.1H59.3z M65.9,123.8v40.1h-6.6v-40.1H65.9z"/>
	<path fill="#FFFFFF" d="M82.3,123.8v6.4h0.2c2.7-4.9,7.1-7.3,13-7.3c2.6,0,4.8,0.4,6.6,1.1c1.8,0.7,3.2,1.7,4.3,3
		c1.1,1.3,1.8,2.8,2.3,4.6c0.4,1.8,0.7,3.8,0.7,5.9v26.3h-6.6v-27.1c0-2.5-0.7-4.4-2.2-5.9c-1.4-1.4-3.4-2.2-6-2.2
		c-2,0-3.8,0.3-5.2,0.9c-1.5,0.6-2.7,1.5-3.7,2.6c-1,1.1-1.7,2.5-2.2,4c-0.5,1.5-0.7,3.2-0.7,5v22.6h-6.6v-40.1H82.3z"/>
	<path fill="#FFFFFF" d="M136.3,123.8v5.8h-8v24.9c0,0.8,0.1,1.4,0.2,1.9c0.1,0.5,0.4,0.8,0.7,1.1c0.4,0.3,0.9,0.4,1.5,0.5
		c0.6,0.1,1.5,0.1,2.5,0.1h3v5.8h-5c-1.7,0-3.2-0.1-4.4-0.3c-1.2-0.2-2.2-0.7-2.9-1.3c-0.7-0.6-1.3-1.5-1.7-2.6
		c-0.4-1.1-0.5-2.6-0.5-4.5v-25.5H115v-5.8h6.8v-12h6.6v12H136.3z"/>
	<path fill="#FFFFFF" d="M170.6,163.9v-6.4h-0.2c-1.4,2.5-3.2,4.3-5.3,5.5c-2.2,1.2-4.7,1.7-7.7,1.7c-2.6,0-4.8-0.3-6.6-1
		c-1.8-0.7-3.2-1.7-4.3-3c-1.1-1.3-1.8-2.8-2.3-4.6c-0.4-1.8-0.7-3.8-0.7-5.9v-26.3h6.6v27.1c0,2.5,0.7,4.4,2.2,5.9
		c1.4,1.4,3.4,2.2,6,2.2c2,0,3.8-0.3,5.2-0.9c1.5-0.6,2.7-1.5,3.7-2.6c1-1.1,1.7-2.5,2.2-4c0.5-1.5,0.7-3.2,0.7-5v-22.6h6.6v40.1
		H170.6z"/>
	<path fill="#FFFFFF" d="M187.1,116.6v-8.1h6.6v8.1H187.1z M193.7,123.8v40.1h-6.6v-40.1H193.7z"/>
	<path fill="#FFFFFF" d="M221,123.8v5.8h-8v24.9c0,0.8,0.1,1.4,0.2,1.9c0.1,0.5,0.4,0.8,0.7,1.1c0.4,0.3,0.9,0.4,1.5,0.5
		c0.6,0.1,1.5,0.1,2.5,0.1h3v5.8h-5c-1.7,0-3.2-0.1-4.4-0.3c-1.2-0.2-2.2-0.7-2.9-1.3c-0.7-0.6-1.3-1.5-1.7-2.6
		c-0.4-1.1-0.5-2.6-0.5-4.5v-25.5h-6.8v-5.8h6.8v-12h6.6v12H221z"/>
</g>
<g>
	<path fill="#FFFFFF" d="M123.7,307.5v1.6h-7.9v4.5h7.4v1.6h-7.4v4.9h8v1.6h-9.9v-14.3H123.7z"/>
	<path fill="#FFFFFF" d="M127.4,311.4v1.6h0c0.7-1.3,1.8-1.9,3.4-1.9c0.7,0,1.2,0.1,1.7,0.3c0.5,0.2,0.8,0.4,1.1,0.8
		c0.3,0.3,0.5,0.7,0.6,1.2c0.1,0.5,0.2,1,0.2,1.5v6.8h-1.7v-7c0-0.6-0.2-1.1-0.6-1.5c-0.4-0.4-0.9-0.6-1.5-0.6c-0.5,0-1,0.1-1.3,0.2
		c-0.4,0.2-0.7,0.4-0.9,0.7c-0.3,0.3-0.4,0.6-0.6,1c-0.1,0.4-0.2,0.8-0.2,1.3v5.8h-1.7v-10.3H127.4z"/>
	<path fill="#FFFFFF" d="M144.6,324.6c-0.8,0.8-2,1.3-3.6,1.3c-0.5,0-1-0.1-1.5-0.2c-0.5-0.1-1-0.3-1.4-0.5c-0.4-0.2-0.7-0.6-1-0.9
		c-0.3-0.4-0.4-0.9-0.4-1.4h1.7c0,0.3,0.1,0.6,0.3,0.8c0.2,0.2,0.4,0.4,0.7,0.5c0.3,0.1,0.5,0.2,0.8,0.3c0.3,0.1,0.6,0.1,0.9,0.1
		c0.6,0,1-0.1,1.4-0.3c0.4-0.2,0.7-0.5,1-0.8c0.3-0.3,0.4-0.7,0.5-1.2c0.1-0.5,0.2-1,0.2-1.6V320h0c-0.3,0.6-0.7,1.1-1.3,1.4
		c-0.6,0.3-1.2,0.4-1.9,0.4c-0.8,0-1.4-0.1-2-0.4c-0.6-0.3-1.1-0.7-1.4-1.1c-0.4-0.5-0.7-1-0.9-1.7c-0.2-0.6-0.3-1.3-0.3-2
		c0-0.6,0.1-1.2,0.2-1.9c0.2-0.6,0.4-1.2,0.8-1.8c0.4-0.5,0.9-1,1.5-1.3c0.6-0.3,1.4-0.5,2.3-0.5c0.7,0,1.3,0.1,1.8,0.4
		c0.5,0.3,1,0.7,1.3,1.3h0v-1.5h1.6v9.4C145.8,322.5,145.4,323.8,144.6,324.6z M142.5,320c0.4-0.2,0.7-0.5,0.9-0.9
		c0.2-0.4,0.4-0.8,0.5-1.3c0.1-0.5,0.2-1,0.2-1.4c0-0.5-0.1-0.9-0.2-1.3c-0.1-0.4-0.3-0.8-0.5-1.2c-0.2-0.4-0.5-0.6-0.9-0.8
		c-0.4-0.2-0.8-0.3-1.4-0.3c-0.5,0-1,0.1-1.4,0.3c-0.4,0.2-0.7,0.5-0.9,0.8c-0.2,0.3-0.4,0.7-0.5,1.2c-0.1,0.5-0.2,0.9-0.2,1.4
		c0,0.5,0,0.9,0.1,1.4c0.1,0.5,0.3,0.9,0.5,1.3c0.2,0.4,0.5,0.7,0.9,0.9c0.4,0.2,0.8,0.3,1.4,0.3C141.6,320.3,142.1,320.2,142.5,320
		z"/>
	<path fill="#FFFFFF" d="M148.4,309.5v-2.1h1.7v2.1H148.4z M150.1,311.4v10.3h-1.7v-10.3H150.1z"/>
	<path fill="#FFFFFF" d="M154.4,311.4v1.6h0c0.7-1.3,1.8-1.9,3.4-1.9c0.7,0,1.2,0.1,1.7,0.3c0.5,0.2,0.8,0.4,1.1,0.8
		c0.3,0.3,0.5,0.7,0.6,1.2c0.1,0.5,0.2,1,0.2,1.5v6.8h-1.7v-7c0-0.6-0.2-1.1-0.6-1.5s-0.9-0.6-1.5-0.6c-0.5,0-1,0.1-1.3,0.2
		c-0.4,0.2-0.7,0.4-0.9,0.7c-0.3,0.3-0.4,0.6-0.6,1c-0.1,0.4-0.2,0.8-0.2,1.3v5.8h-1.7v-10.3H154.4z"/>
	<path fill="#FFFFFF" d="M171.2,321.1c-0.8,0.6-1.7,0.9-2.9,0.9c-0.8,0-1.5-0.1-2.1-0.4c-0.6-0.3-1.1-0.6-1.5-1.1
		c-0.4-0.5-0.7-1.1-0.9-1.7s-0.3-1.4-0.3-2.2c0-0.8,0.1-1.5,0.4-2.2c0.2-0.7,0.6-1.2,1-1.7c0.4-0.5,0.9-0.9,1.5-1.1
		c0.6-0.3,1.2-0.4,1.9-0.4c0.9,0,1.7,0.2,2.3,0.6c0.6,0.4,1.1,0.9,1.5,1.4c0.4,0.6,0.6,1.2,0.8,1.9s0.2,1.4,0.2,2h-7.7
		c0,0.5,0,0.9,0.2,1.3c0.1,0.4,0.3,0.8,0.6,1.1c0.3,0.3,0.6,0.6,1,0.7c0.4,0.2,0.9,0.3,1.5,0.3c0.7,0,1.3-0.2,1.8-0.5
		c0.5-0.3,0.8-0.8,0.9-1.5h1.7C172.5,319.6,172,320.5,171.2,321.1z M170.8,314.4c-0.2-0.4-0.4-0.7-0.6-0.9c-0.3-0.3-0.6-0.5-0.9-0.6
		c-0.4-0.2-0.7-0.2-1.2-0.2c-0.4,0-0.8,0.1-1.2,0.2c-0.4,0.2-0.7,0.4-0.9,0.6c-0.3,0.3-0.5,0.6-0.6,0.9c-0.1,0.4-0.2,0.7-0.3,1.1
		h5.9C171,315.2,170.9,314.8,170.8,314.4z"/>
	<path fill="#FFFFFF" d="M181.9,321.1c-0.8,0.6-1.7,0.9-2.9,0.9c-0.8,0-1.5-0.1-2.1-0.4c-0.6-0.3-1.1-0.6-1.5-1.1
		c-0.4-0.5-0.7-1.1-0.9-1.7c-0.2-0.7-0.3-1.4-0.3-2.2c0-0.8,0.1-1.5,0.4-2.2c0.2-0.7,0.6-1.2,1-1.7c0.4-0.5,0.9-0.9,1.5-1.1
		c0.6-0.3,1.2-0.4,1.9-0.4c0.9,0,1.7,0.2,2.3,0.6c0.6,0.4,1.1,0.9,1.5,1.4c0.4,0.6,0.6,1.2,0.8,1.9c0.1,0.7,0.2,1.4,0.2,2h-7.7
		c0,0.5,0,0.9,0.2,1.3c0.1,0.4,0.3,0.8,0.6,1.1c0.3,0.3,0.6,0.6,1,0.7c0.4,0.2,0.9,0.3,1.5,0.3c0.7,0,1.3-0.2,1.8-0.5
		c0.5-0.3,0.8-0.8,0.9-1.5h1.7C183.2,319.6,182.7,320.5,181.9,321.1z M181.5,314.4c-0.2-0.4-0.4-0.7-0.6-0.9
		c-0.3-0.3-0.6-0.5-0.9-0.6c-0.4-0.2-0.7-0.2-1.2-0.2c-0.4,0-0.8,0.1-1.2,0.2c-0.4,0.2-0.7,0.4-0.9,0.6c-0.3,0.3-0.5,0.6-0.6,0.9
		c-0.1,0.4-0.2,0.7-0.3,1.1h5.9C181.7,315.2,181.6,314.8,181.5,314.4z"/>
	<path fill="#FFFFFF" d="M186.9,311.4v2.2h0c0.4-0.8,0.9-1.5,1.5-1.9c0.6-0.4,1.4-0.6,2.3-0.6v1.8c-0.7,0-1.3,0.1-1.7,0.3
		c-0.5,0.2-0.9,0.5-1.2,0.8c-0.3,0.4-0.5,0.8-0.6,1.3c-0.1,0.5-0.2,1.1-0.2,1.8v4.6h-1.7v-10.3H186.9z"/>
	<path fill="#FFFFFF" d="M198.9,321.1c-0.8,0.6-1.7,0.9-2.9,0.9c-0.8,0-1.5-0.1-2.1-0.4c-0.6-0.3-1.1-0.6-1.5-1.1
		c-0.4-0.5-0.7-1.1-0.9-1.7s-0.3-1.4-0.3-2.2c0-0.8,0.1-1.5,0.4-2.2c0.2-0.7,0.6-1.2,1-1.7c0.4-0.5,0.9-0.9,1.5-1.1
		c0.6-0.3,1.2-0.4,1.9-0.4c0.9,0,1.7,0.2,2.3,0.6c0.6,0.4,1.1,0.9,1.5,1.4c0.4,0.6,0.6,1.2,0.8,1.9s0.2,1.4,0.2,2h-7.7
		c0,0.5,0,0.9,0.2,1.3c0.1,0.4,0.3,0.8,0.6,1.1c0.3,0.3,0.6,0.6,1,0.7c0.4,0.2,0.9,0.3,1.5,0.3c0.7,0,1.3-0.2,1.8-0.5
		c0.5-0.3,0.8-0.8,0.9-1.5h1.7C200.2,319.6,199.7,320.5,198.9,321.1z M198.5,314.4c-0.2-0.4-0.4-0.7-0.6-0.9
		c-0.3-0.3-0.6-0.5-0.9-0.6c-0.4-0.2-0.7-0.2-1.2-0.2c-0.4,0-0.8,0.1-1.2,0.2c-0.4,0.2-0.7,0.4-0.9,0.6c-0.3,0.3-0.5,0.6-0.6,0.9
		c-0.1,0.4-0.2,0.7-0.3,1.1h5.9C198.7,315.2,198.7,314.8,198.5,314.4z"/>
	<path fill="#FFFFFF" d="M209.8,321.7v-1.4h0c-0.3,0.6-0.7,1-1.3,1.2c-0.6,0.3-1.3,0.4-2,0.4c-0.8,0-1.5-0.1-2.1-0.4
		c-0.6-0.3-1.1-0.7-1.5-1.2c-0.4-0.5-0.7-1.1-0.9-1.7c-0.2-0.7-0.3-1.3-0.3-2.1c0-0.7,0.1-1.4,0.3-2.1c0.2-0.7,0.5-1.2,0.9-1.7
		c0.4-0.5,0.9-0.9,1.5-1.2c0.6-0.3,1.3-0.4,2.1-0.4c0.3,0,0.6,0,0.9,0.1c0.3,0.1,0.6,0.1,0.9,0.3c0.3,0.1,0.6,0.3,0.9,0.5
		c0.3,0.2,0.5,0.5,0.7,0.8h0v-5.3h1.7v14.3H209.8z M203.7,318.1c0.1,0.5,0.3,0.9,0.6,1.2c0.3,0.4,0.6,0.6,1,0.9
		c0.4,0.2,0.9,0.3,1.4,0.3c0.6,0,1.1-0.1,1.5-0.3c0.4-0.2,0.7-0.5,1-0.9c0.3-0.4,0.4-0.8,0.5-1.2c0.1-0.5,0.2-0.9,0.2-1.4
		c0-0.5-0.1-1-0.2-1.5c-0.1-0.5-0.3-0.9-0.6-1.2c-0.3-0.4-0.6-0.6-1-0.9c-0.4-0.2-0.9-0.3-1.5-0.3c-0.6,0-1.1,0.1-1.5,0.3
		c-0.4,0.2-0.7,0.5-1,0.9c-0.2,0.4-0.4,0.8-0.5,1.3c-0.1,0.5-0.2,1-0.2,1.5C203.6,317.1,203.6,317.6,203.7,318.1z"/>
	<path fill="#FFFFFF" d="M221.5,307.5v5.3h0c0.3-0.6,0.7-1,1.3-1.2s1.3-0.4,2-0.4c0.8,0,1.5,0.1,2.1,0.4c0.6,0.3,1.1,0.7,1.5,1.2
		c0.4,0.5,0.7,1.1,0.9,1.7c0.2,0.7,0.3,1.3,0.3,2.1c0,0.7-0.1,1.4-0.3,2.1c-0.2,0.7-0.5,1.2-0.9,1.7c-0.4,0.5-0.9,0.9-1.5,1.1
		c-0.6,0.3-1.3,0.4-2.1,0.4c-0.3,0-0.5,0-0.8-0.1c-0.3-0.1-0.6-0.1-0.9-0.3c-0.3-0.1-0.6-0.3-0.9-0.5c-0.3-0.2-0.5-0.5-0.7-0.8h0
		v1.4h-1.7v-14.3H221.5z M227.6,315.1c-0.1-0.5-0.3-0.9-0.6-1.2c-0.3-0.4-0.6-0.6-1-0.9c-0.4-0.2-0.9-0.3-1.4-0.3
		c-0.6,0-1.1,0.1-1.5,0.3c-0.4,0.2-0.7,0.5-1,0.9c-0.3,0.4-0.4,0.8-0.5,1.2c-0.1,0.5-0.2,0.9-0.2,1.4c0,0.5,0.1,1,0.2,1.5
		c0.1,0.5,0.3,0.9,0.6,1.2c0.3,0.4,0.6,0.6,1,0.9c0.4,0.2,0.9,0.3,1.5,0.3c0.6,0,1.1-0.1,1.5-0.3c0.4-0.2,0.7-0.5,0.9-0.9
		c0.2-0.4,0.4-0.8,0.5-1.3c0.1-0.5,0.2-1,0.2-1.5C227.7,316,227.7,315.5,227.6,315.1z"/>
	<path fill="#FFFFFF" d="M235,324.4c-0.2,0.3-0.4,0.6-0.6,0.8c-0.2,0.2-0.5,0.4-0.8,0.5c-0.3,0.1-0.6,0.1-1,0.1c-0.2,0-0.4,0-0.6,0
		c-0.2,0-0.4-0.1-0.6-0.1v-1.6c0.2,0.1,0.3,0.1,0.5,0.2c0.2,0.1,0.3,0.1,0.5,0.1c0.3,0,0.6-0.1,0.8-0.2c0.2-0.2,0.4-0.4,0.6-0.7
		l0.7-1.7l-4.1-10.3h1.9l3,8.4h0l2.9-8.4h1.8l-4.5,11.7C235.4,323.6,235.2,324,235,324.4z"/>
	<path fill="#FFFFFF" d="M253.6,307.5c1.4,0,2.5,0.4,3.3,1.1c0.7,0.7,1.1,1.8,1.1,3.1c0,1.3-0.4,2.4-1.1,3.1
		c-0.7,0.7-1.8,1.1-3.3,1.1h-4.4v5.8h-1.9v-14.3H253.6z M253,314.3c1.1,0,1.9-0.2,2.4-0.7c0.5-0.5,0.7-1.1,0.7-2
		c0-0.9-0.2-1.5-0.7-1.9c-0.5-0.4-1.3-0.7-2.4-0.7h-3.7v5.2H253z"/>
	<path fill="#FFFFFF" d="M267.9,321.9c-0.4,0-0.8-0.1-1-0.4c-0.3-0.2-0.4-0.6-0.4-1.2c-0.5,0.6-1,1-1.6,1.2c-0.6,0.2-1.3,0.4-2,0.4
		c-0.5,0-0.9,0-1.3-0.1c-0.4-0.1-0.8-0.3-1.1-0.5c-0.3-0.2-0.6-0.5-0.7-0.9c-0.2-0.4-0.3-0.8-0.3-1.3c0-0.6,0.1-1.1,0.3-1.4
		c0.2-0.4,0.5-0.7,0.8-0.9c0.3-0.2,0.7-0.4,1.1-0.5c0.4-0.1,0.8-0.2,1.3-0.3c0.5-0.1,0.9-0.2,1.3-0.2c0.4,0,0.8-0.1,1.1-0.2
		c0.3-0.1,0.6-0.2,0.8-0.4c0.2-0.2,0.3-0.4,0.3-0.7c0-0.4-0.1-0.7-0.2-0.9c-0.1-0.2-0.3-0.4-0.5-0.5s-0.5-0.2-0.7-0.2
		c-0.3,0-0.5-0.1-0.8-0.1c-0.7,0-1.3,0.1-1.8,0.4c-0.5,0.3-0.7,0.8-0.8,1.5h-1.7c0-0.6,0.2-1.2,0.4-1.6c0.2-0.4,0.6-0.8,1-1.1
		c0.4-0.3,0.9-0.5,1.4-0.6s1.1-0.2,1.6-0.2c0.5,0,0.9,0,1.4,0.1c0.5,0.1,0.9,0.2,1.2,0.4c0.4,0.2,0.7,0.5,0.9,0.9
		c0.2,0.4,0.3,0.9,0.3,1.5v5.3c0,0.4,0,0.7,0.1,0.9c0,0.2,0.2,0.3,0.5,0.3c0.1,0,0.3,0,0.5-0.1v1.3
		C268.9,321.9,268.4,321.9,267.9,321.9z M265.6,316.7c-0.3,0.1-0.7,0.1-1.1,0.2c-0.4,0-0.8,0.1-1.1,0.2c-0.4,0.1-0.7,0.2-1,0.3
		c-0.3,0.1-0.6,0.3-0.7,0.6c-0.2,0.2-0.3,0.6-0.3,1c0,0.3,0.1,0.5,0.2,0.7c0.1,0.2,0.3,0.3,0.4,0.5c0.2,0.1,0.4,0.2,0.6,0.3
		c0.2,0.1,0.5,0.1,0.7,0.1c0.6,0,1-0.1,1.4-0.2c0.4-0.2,0.7-0.3,1-0.6c0.3-0.2,0.4-0.5,0.6-0.8c0.1-0.3,0.2-0.5,0.2-0.8v-1.7
		C266.2,316.6,265.9,316.7,265.6,316.7z"/>
	<path fill="#FFFFFF" d="M274.2,324.4c-0.2,0.3-0.4,0.6-0.6,0.8c-0.2,0.2-0.5,0.4-0.8,0.5c-0.3,0.1-0.6,0.1-1,0.1
		c-0.2,0-0.4,0-0.6,0c-0.2,0-0.4-0.1-0.6-0.1v-1.6c0.2,0.1,0.3,0.1,0.5,0.2c0.2,0.1,0.3,0.1,0.5,0.1c0.3,0,0.6-0.1,0.8-0.2
		c0.2-0.2,0.4-0.4,0.6-0.7l0.7-1.7l-4.1-10.3h1.9l3,8.4h0l2.9-8.4h1.8l-4.5,11.7C274.6,323.6,274.4,324,274.2,324.4z"/>
	<path fill="#FFFFFF" d="M287.2,307.5c1.4,0,2.5,0.4,3.3,1.1c0.7,0.7,1.1,1.8,1.1,3.1c0,1.3-0.4,2.4-1.1,3.1
		c-0.7,0.7-1.8,1.1-3.3,1.1h-4.4v5.8H281v-14.3H287.2z M286.6,314.3c1.1,0,1.9-0.2,2.4-0.7c0.5-0.5,0.7-1.1,0.7-2
		c0-0.9-0.2-1.5-0.7-1.9c-0.5-0.4-1.3-0.7-2.4-0.7h-3.7v5.2H286.6z"/>
	<path fill="#FFFFFF" d="M301.6,321.9c-0.4,0-0.8-0.1-1-0.4c-0.3-0.2-0.4-0.6-0.4-1.2c-0.5,0.6-1,1-1.6,1.2c-0.6,0.2-1.3,0.4-2,0.4
		c-0.5,0-0.9,0-1.3-0.1c-0.4-0.1-0.8-0.3-1.1-0.5c-0.3-0.2-0.6-0.5-0.7-0.9c-0.2-0.4-0.3-0.8-0.3-1.3c0-0.6,0.1-1.1,0.3-1.4
		c0.2-0.4,0.5-0.7,0.8-0.9c0.3-0.2,0.7-0.4,1.1-0.5c0.4-0.1,0.8-0.2,1.3-0.3c0.5-0.1,0.9-0.2,1.3-0.2c0.4,0,0.8-0.1,1.1-0.2
		c0.3-0.1,0.6-0.2,0.8-0.4c0.2-0.2,0.3-0.4,0.3-0.7c0-0.4-0.1-0.7-0.2-0.9c-0.1-0.2-0.3-0.4-0.5-0.5c-0.2-0.1-0.5-0.2-0.7-0.2
		c-0.3,0-0.5-0.1-0.8-0.1c-0.7,0-1.3,0.1-1.8,0.4c-0.5,0.3-0.7,0.8-0.8,1.5h-1.7c0-0.6,0.2-1.2,0.4-1.6c0.2-0.4,0.6-0.8,1-1.1
		c0.4-0.3,0.9-0.5,1.4-0.6s1.1-0.2,1.6-0.2c0.5,0,0.9,0,1.4,0.1c0.5,0.1,0.9,0.2,1.2,0.4c0.4,0.2,0.7,0.5,0.9,0.9
		c0.2,0.4,0.3,0.9,0.3,1.5v5.3c0,0.4,0,0.7,0.1,0.9c0,0.2,0.2,0.3,0.5,0.3c0.1,0,0.3,0,0.5-0.1v1.3
		C302.5,321.9,302.1,321.9,301.6,321.9z M299.2,316.7c-0.3,0.1-0.7,0.1-1.1,0.2c-0.4,0-0.8,0.1-1.1,0.2c-0.4,0.1-0.7,0.2-1,0.3
		c-0.3,0.1-0.6,0.3-0.7,0.6c-0.2,0.2-0.3,0.6-0.3,1c0,0.3,0.1,0.5,0.2,0.7c0.1,0.2,0.3,0.3,0.4,0.5c0.2,0.1,0.4,0.2,0.6,0.3
		c0.2,0.1,0.5,0.1,0.7,0.1c0.6,0,1-0.1,1.4-0.2c0.4-0.2,0.7-0.3,1-0.6c0.3-0.2,0.4-0.5,0.6-0.8c0.1-0.3,0.2-0.5,0.2-0.8v-1.7
		C299.8,316.6,299.5,316.7,299.2,316.7z"/>
	<path fill="#FFFFFF" d="M306.2,307.5v14.3h-1.7v-14.3H306.2z"/>
</g>
</svg>
